<?xml version="1.0" encoding="utf-8"?>
<!-- Generator: Adobe Illustrator 18.0.0, SVG Export Plug-In . SVG Version: 6.00 Build 0)  -->
<!DOCTYPE svg PUBLIC "-//W3C//DTD SVG 1.1//EN" "http://www.w3.org/Graphics/SVG/1.1/DTD/svg11.dtd">
<svg version="1.1" id="Layer_1" xmlns="http://www.w3.org/2000/svg" xmlns:xlink="http://www.w3.org/1999/xlink" x="0px" y="0px"
	 viewBox="0 0 44.5 50.3" enable-background="new 0 0 44.5 50.3" xml:space="preserve">
<g>
	<path fill="#00AF4F" d="M23.3,27.1c0.6,0.6,1.5,0.6,2,0l2.1-2.1c-1.4-1.5-2.3-3.7-2.3-5.9c0-4.8,3.9-8.7,8.7-8.7
		c2.1,0,4.1,0.8,5.6,2.1c1.7-3.2,1.2-7.3-1.5-10c-1.6-1.6-3.9-2.5-6.1-2.5c-2.2,0-4.4,0.8-6,2.5L24.2,4l-1.4-1.4
		C21.2,0.8,19,0,16.8,0c-2.3,0-4.5,0.9-6.2,2.6c-3.2,3.4-3,8.8,0.3,12.1L23.3,27.1z"/>
	<path fill="#00AF4F" d="M33.7,12.5c-3.7,0-6.6,3-6.6,6.6s3,6.6,6.6,6.6s6.6-3,6.6-6.6S37.4,12.5,33.7,12.5z M37.4,20.3h-2.6v2.6
		h-2.2v-2.6H30V18h2.6v-2.6h2.2V18h2.6V20.3z"/>
	<path fill="#00AF4F" d="M40.1,34.5c-1.2,0.5-3.3,1.1-5.5,1.7c-0.7,1.3-2.2,2.5-4.4,3c-0.5,0.1-1.1,0.2-1.8,0.3
		c-1.6,0.1-3.5,0-5.6-0.1c-0.2,0-0.3,0-0.4,0c-0.5,0-1-0.4-1-0.9c-0.1-0.6,0.4-1.2,1.1-1.2c0.2,0,0.3,0,0.5,0
		c2.7,0.1,5.2,0.2,6.8-0.1c2.9-0.7,3.7-2.5,3.4-4c-0.2-1.2-1.2-2.4-2.6-2.2c-2.1,0.2-4.5,0.2-6.9,0.1c-2.7-0.1-5.5-0.1-7.5,0.3
		c-2.2,0.4-6.6,2.2-10.4,5c-1.9,1.4-4,3.1-5.3,4.1c-0.6,0.5-0.7,1.4-0.2,2.1l6,7.2c0.5,0.6,1.4,0.7,2.1,0.2l2.1-1.7
		c0.5-0.4,1.1-0.5,1.7-0.4c3.9,1.1,8,1.7,10.7,1.7c5.9,0.1,16.9-7.4,20.1-9.7C46.2,37.5,43.7,33.1,40.1,34.5z"/>
</g>
</svg>
