<?xml version="1.0" encoding="utf-8"?>
<!-- Generator: Adobe Illustrator 18.0.0, SVG Export Plug-In . SVG Version: 6.00 Build 0)  -->
<!DOCTYPE svg PUBLIC "-//W3C//DTD SVG 1.1//EN" "http://www.w3.org/Graphics/SVG/1.1/DTD/svg11.dtd">
<svg version="1.1" id="Layer_1" xmlns="http://www.w3.org/2000/svg" xmlns:xlink="http://www.w3.org/1999/xlink" x="0px" y="0px"
	 viewBox="0 0 41.6 30.7" enable-background="new 0 0 41.6 30.7" xml:space="preserve">
<g>
	<path fill="#00AF4F" d="M0,21.7c0-1.6,2.5-8.1,7.5-19.6C8.1,0.7,9.2,0,10.9,0c1.4,0,2.7,0.4,3.9,1.3c1.2,0.8,1.8,1.9,1.8,3.3
		c0,0.4-0.1,1.1-0.4,1.9l-3.2,7.1c2.8,1.8,4.3,4.5,4.3,8.1c0,2.5-0.8,4.6-2.5,6.4c-1.7,1.8-3.7,2.7-6.1,2.7S4.3,29.8,2.6,28
		C0.9,26.2,0,24.1,0,21.7z M24.3,21.7c0-1.6,2.5-8.1,7.5-19.6C32.3,0.7,33.5,0,35.2,0c1.3,0,2.6,0.4,3.9,1.3
		c1.2,0.8,1.9,1.9,1.9,3.3c0,0.5-0.2,1.2-0.5,1.9l-3.1,7.1c2.8,1.8,4.3,4.5,4.3,8.1c0,2.5-0.8,4.6-2.5,6.4c-1.7,1.8-3.7,2.7-6.1,2.7
		s-4.4-0.9-6.2-2.7C25.1,26.2,24.3,24.1,24.3,21.7z"/>
</g>
</svg>
