<?xml version="1.0" encoding="utf-8"?>
<!-- Generator: Adobe Illustrator 18.0.0, SVG Export Plug-In . SVG Version: 6.00 Build 0)  -->
<!DOCTYPE svg PUBLIC "-//W3C//DTD SVG 1.1//EN" "http://www.w3.org/Graphics/SVG/1.1/DTD/svg11.dtd">
<svg version="1.1" id="Layer_1" xmlns="http://www.w3.org/2000/svg" xmlns:xlink="http://www.w3.org/1999/xlink" x="0px" y="0px"
	 viewBox="0 0 178.3 67.6" enable-background="new 0 0 178.3 67.6" xml:space="preserve">
<g opacity="0.2">
	<path fill="#FFFFFF" d="M19.4,42.3c2.7-1.2,4.9-3.5,6.4-6.7c1.5-3.2,2.3-7.1,2.3-11.4C28,11,20.3,4.4,4.7,4.4
		C3.1,4.4,1.5,4.5,0,4.7v12.8c1.3-0.4,2.8-0.6,4.6-0.6c6.4,0,9.7,3.2,9.7,9.6c0,4.3-0.9,7.2-2.6,8.6c-1.7,1.4-4.2,2.1-7.4,2.1
		c-2.8,0-4.3,1.9-4.3,5.6c0,3.7,1.4,5.6,4.2,5.6c8.1,0,12.1,3.5,12.1,10.4V61c0,2.7-0.4,4.9-1.2,6.6H30c0.4-2,0.6-4.2,0.6-6.6v-2.1
		C30.6,50.8,26.8,45.2,19.4,42.3z"/>
	<path fill="#FFFFFF" d="M64.9,39.9c-1.6,0-2.9,0.5-3.8,1.5c-0.9,1-1.4,2.4-1.4,4c0,1.7,0.5,3.1,1.4,4.1c1,1,2.2,1.6,3.7,1.6
		c1.5,0,2.8-0.5,3.7-1.6c0.9-1,1.4-2.4,1.4-4.1c0-1.7-0.5-3-1.4-4C67.6,40.4,66.4,39.9,64.9,39.9z"/>
	<path fill="#FFFFFF" d="M83.5,10.4c-4.7-4-11-6-18.8-6c-7.8,0-14.1,2-18.7,6c-4.7,4-7,10.4-7,19.1v30.7c0,2.7,0.2,5.1,0.7,7.4h15
		c-1-1.9-1.4-4.4-1.4-7.4V29.6c0-8.4,3.8-12.6,11.4-12.6c7.7,0,11.5,4.2,11.5,12.6v30.7c0,3-0.5,5.4-1.5,7.4h15.1
		c0.4-2.2,0.7-4.7,0.7-7.4V29.6C90.6,20.8,88.2,14.5,83.5,10.4z"/>
	<path fill="#FFFFFF" d="M163,4.9c0-1.4-0.6-2.6-1.7-3.5c-1.1-1-2.4-1.4-3.8-1.4c-1.8,0-3.1,0.8-3.9,2.3l-31.9,65.3h11.1l29.7-60.7
		C162.9,6.3,163,5.7,163,4.9z"/>
	<path fill="#FFFFFF" d="M129.1,34.5V18.6c0-4.9-1.4-8.5-4.1-10.8c-2.8-2.3-6.5-3.4-11.3-3.4s-8.5,1.1-11.3,3.4
		c-2.7,2.3-4.1,5.9-4.1,10.8v15.9c0,4.9,1.4,8.5,4.1,10.8c2.7,2.3,6.5,3.4,11.3,3.4s8.5-1.1,11.3-3.4
		C127.8,43,129.1,39.4,129.1,34.5z M120,34.5c0,4-2.1,5.9-6.3,5.9c-4.1,0-6.2-2-6.2-5.9V18.6c0-4,2.1-5.9,6.2-5.9
		c4.2,0,6.3,2,6.3,5.9V34.5z"/>
	<path fill="#FFFFFF" d="M174.1,44.2c-2.8-2.3-6.5-3.4-11.3-3.4c-4.8,0-8.5,1.1-11.3,3.4c-2.7,2.3-4.1,5.9-4.1,10.8v12.6h9.1V54.9
		c0-4,2.1-5.9,6.2-5.9c4.2,0,6.3,2,6.3,5.9v12.6h9.1V54.9C178.3,50,176.9,46.4,174.1,44.2z"/>
</g>
</svg>
