<?xml version="1.0" encoding="utf-8"?>
<!-- Generator: Adobe Illustrator 18.0.0, SVG Export Plug-In . SVG Version: 6.00 Build 0)  -->
<!DOCTYPE svg PUBLIC "-//W3C//DTD SVG 1.1//EN" "http://www.w3.org/Graphics/SVG/1.1/DTD/svg11.dtd">
<svg version="1.1" id="Layer_1" xmlns="http://www.w3.org/2000/svg" xmlns:xlink="http://www.w3.org/1999/xlink" x="0px" y="0px"
	 viewBox="0 0 170.1 39.7" enable-background="new 0 0 170.1 39.7" xml:space="preserve">
<g>
	<path fill="none" stroke="#00B04F" stroke-width="0.667" stroke-miterlimit="2.6131" d="M19.8,7.4c6.9,0,12.4,5.6,12.4,12.4
		c0,6.9-5.6,12.4-12.4,12.4c-6.9,0-12.4-5.6-12.4-12.4C7.4,13,13,7.4,19.8,7.4L19.8,7.4z"/>
	<path fill="#00B04F" d="M53,16.7c0,0.2,0.1,0.4,0.2,0.6c0.1,0.2,0.3,0.3,0.4,0.4c0.2,0.1,0.4,0.2,0.6,0.2h6.5
		c0.3,0,0.6-0.1,0.8-0.2c0.2-0.1,0.4-0.3,0.5-0.5c0.1-0.2,0.2-0.4,0.2-0.6c0-0.2-0.1-0.4-0.2-0.6c-0.1-0.2-0.3-0.4-0.5-0.5
		c-0.2-0.1-0.5-0.2-0.8-0.2h-5.3V5.5c0-0.2-0.1-0.4-0.2-0.6c-0.1-0.2-0.2-0.3-0.4-0.4c-0.2-0.1-0.4-0.2-0.6-0.2
		c-0.2,0-0.4,0.1-0.6,0.2c-0.2,0.1-0.3,0.3-0.4,0.4C53,5,53,5.2,53,5.5V16.7L53,16.7z M64.3,16.7c0,0.3,0.1,0.5,0.2,0.7
		c0.1,0.2,0.3,0.3,0.5,0.4c0.2,0.1,0.4,0.1,0.6,0.1c0.2,0,0.4,0,0.6-0.1c0.2-0.1,0.4-0.2,0.5-0.4c0.1-0.2,0.2-0.4,0.2-0.7V5.5
		c0-0.3-0.1-0.5-0.2-0.7c-0.1-0.2-0.3-0.3-0.5-0.4c-0.2-0.1-0.4-0.1-0.6-0.1c-0.2,0-0.4,0.1-0.6,0.1c-0.2,0.1-0.4,0.2-0.5,0.4
		c-0.1,0.2-0.2,0.4-0.2,0.7V16.7L64.3,16.7z M78.1,6.8c0.3,0,0.5-0.1,0.7-0.2c0.2-0.1,0.4-0.3,0.5-0.5c0.1-0.2,0.2-0.4,0.2-0.6
		c0-0.2-0.1-0.4-0.2-0.6c-0.1-0.2-0.3-0.3-0.5-0.4c-0.2-0.1-0.5-0.2-0.7-0.2h-6.9c-0.3,0-0.5,0.1-0.7,0.2c-0.2,0.1-0.4,0.2-0.5,0.4
		c-0.1,0.2-0.2,0.4-0.2,0.6v11.2c0,0.2,0.1,0.4,0.2,0.6c0.1,0.2,0.3,0.3,0.5,0.4c0.2,0.1,0.5,0.2,0.7,0.2c0.2,0,0.4-0.1,0.6-0.2
		c0.2-0.1,0.3-0.2,0.4-0.4c0.1-0.2,0.2-0.4,0.2-0.6v-4.1h5c0.2,0,0.5-0.1,0.7-0.2c0.2-0.1,0.4-0.2,0.5-0.4c0.1-0.2,0.2-0.4,0.2-0.6
		c0-0.2-0.1-0.5-0.2-0.7c-0.1-0.2-0.3-0.4-0.5-0.5C77.9,10,77.6,10,77.4,10h-5V6.8H78.1L78.1,6.8z M90.3,17.9c0.3,0,0.6-0.1,0.8-0.2
		c0.2-0.1,0.4-0.3,0.5-0.5c0.1-0.2,0.1-0.4,0.1-0.6c0-0.2-0.1-0.4-0.2-0.6c-0.1-0.2-0.3-0.4-0.5-0.5c-0.2-0.1-0.5-0.2-0.8-0.2h-6
		v-2.9h5c0.3,0,0.5-0.1,0.7-0.2c0.2-0.1,0.3-0.3,0.4-0.5c0.1-0.2,0.1-0.4,0.1-0.6c0-0.2,0-0.4-0.1-0.6c-0.1-0.2-0.2-0.4-0.4-0.5
		c-0.2-0.1-0.4-0.2-0.7-0.2h-5V6.8h5.7c0.3,0,0.5-0.1,0.7-0.2c0.2-0.1,0.3-0.3,0.4-0.5c0.1-0.2,0.2-0.4,0.2-0.6c0-0.2,0-0.4-0.1-0.6
		c-0.1-0.2-0.2-0.4-0.4-0.5c-0.2-0.1-0.4-0.2-0.8-0.2h-7.1c-0.2,0-0.4,0.1-0.6,0.2c-0.2,0.1-0.3,0.2-0.4,0.4
		c-0.1,0.2-0.2,0.4-0.2,0.6v11.2c0,0.2,0.1,0.4,0.2,0.6c0.1,0.2,0.2,0.3,0.4,0.4c0.2,0.1,0.4,0.2,0.6,0.2H90.3L90.3,17.9z
		 M56.6,34.6c0,0.3,0.1,0.5,0.2,0.7c0.1,0.2,0.3,0.4,0.5,0.5c0.2,0.1,0.4,0.2,0.6,0.2c0.2,0,0.5-0.1,0.6-0.2
		c0.2-0.1,0.3-0.3,0.4-0.5c0.1-0.2,0.2-0.4,0.2-0.7V32h3.3c0.6,0,1.3-0.1,1.8-0.3c0.6-0.2,1.1-0.5,1.6-0.9c0.5-0.4,0.8-0.9,1.1-1.5
		c0.3-0.6,0.4-1.3,0.4-2.1c0-0.8-0.1-1.5-0.4-2.2c-0.3-0.6-0.6-1.1-1.1-1.6c-0.5-0.4-1-0.7-1.6-0.9c-0.6-0.2-1.2-0.3-1.8-0.3H58
		c-0.3,0-0.5,0.1-0.7,0.2c-0.2,0.1-0.4,0.3-0.5,0.5c-0.1,0.2-0.2,0.4-0.2,0.6V34.6L56.6,34.6z M62.5,24.6c0.3,0,0.6,0.1,0.9,0.2
		c0.3,0.1,0.5,0.3,0.8,0.5c0.2,0.2,0.4,0.5,0.5,0.8c0.1,0.3,0.2,0.6,0.2,1c0,0.3-0.1,0.6-0.2,0.9c-0.1,0.3-0.3,0.5-0.5,0.8
		c-0.2,0.2-0.5,0.4-0.8,0.5c-0.3,0.1-0.6,0.2-0.9,0.2h-3.3v-4.9H62.5L62.5,24.6z M70.9,35.9c0.2,0,0.4-0.1,0.6-0.2
		c0.2-0.1,0.3-0.2,0.4-0.4c0.1-0.2,0.2-0.4,0.2-0.6v-4.3h6.4v4.3c0,0.2,0.1,0.4,0.2,0.6c0.1,0.2,0.3,0.3,0.5,0.4
		c0.2,0.1,0.4,0.2,0.7,0.2c0.2,0,0.4-0.1,0.6-0.2c0.2-0.1,0.3-0.2,0.4-0.4c0.1-0.2,0.2-0.4,0.2-0.6V23.5c0-0.2-0.1-0.4-0.2-0.6
		c-0.1-0.2-0.2-0.3-0.4-0.4c-0.2-0.1-0.4-0.2-0.6-0.2c-0.2,0-0.5,0.1-0.7,0.2c-0.2,0.1-0.4,0.2-0.5,0.4c-0.1,0.2-0.2,0.4-0.2,0.6
		v4.3h-6.4v-4.3c0-0.2-0.1-0.4-0.2-0.6c-0.1-0.2-0.2-0.3-0.4-0.4c-0.2-0.1-0.4-0.2-0.6-0.2c-0.3,0-0.5,0.1-0.8,0.2
		c-0.2,0.1-0.4,0.2-0.5,0.4c-0.1,0.2-0.2,0.4-0.2,0.6v11.2c0,0.2,0.1,0.4,0.2,0.6c0.1,0.2,0.3,0.3,0.5,0.4
		C70.3,35.9,70.6,35.9,70.9,35.9L70.9,35.9z M85.2,35.2l0.8-1.7h7.3l0.9,1.7c0.1,0.3,0.3,0.4,0.5,0.5c0.2,0.1,0.4,0.2,0.6,0.2
		c0.2,0,0.4-0.1,0.6-0.2c0.2-0.1,0.4-0.2,0.5-0.4c0.1-0.2,0.2-0.4,0.2-0.6c0-0.2,0-0.5-0.2-0.7l-5.5-11c-0.1-0.3-0.3-0.5-0.5-0.6
		c-0.2-0.1-0.4-0.2-0.7-0.2c-0.2,0-0.5,0.1-0.7,0.2c-0.2,0.1-0.4,0.3-0.5,0.6l-5.6,11c-0.1,0.3-0.2,0.5-0.2,0.8
		c0,0.2,0.1,0.5,0.2,0.6c0.1,0.2,0.3,0.3,0.5,0.5c0.2,0,0.5,0.1,0.7,0c0.2,0,0.4-0.1,0.6-0.2C85,35.6,85.1,35.5,85.2,35.2L85.2,35.2
		z M87.3,30.9l2.4-4.9l2.2,4.9H87.3L87.3,30.9z M100.9,31.1h3.1l3,4.2c0.2,0.3,0.5,0.5,0.8,0.6c0.3,0.1,0.5,0.1,0.8,0
		c0.3-0.1,0.5-0.2,0.6-0.4c0.2-0.2,0.3-0.4,0.3-0.7c0-0.3-0.1-0.6-0.3-0.9l-2.6-3.2c0.5-0.2,1-0.5,1.3-0.8c0.4-0.3,0.6-0.7,0.9-1.2
		c0.2-0.4,0.3-0.9,0.4-1.4c0.1-0.5,0-1-0.1-1.4c-0.1-0.5-0.2-0.9-0.5-1.4c-0.2-0.4-0.5-0.8-0.9-1.1c-0.4-0.3-0.8-0.6-1.3-0.8
		c-0.5-0.2-1.1-0.3-1.7-0.3h-5.2c-0.2,0-0.4,0.1-0.6,0.2c-0.2,0.1-0.3,0.2-0.4,0.4c-0.1,0.2-0.2,0.4-0.2,0.6v11.2
		c0,0.3,0.1,0.5,0.2,0.7c0.1,0.2,0.3,0.3,0.5,0.4c0.2,0.1,0.4,0.1,0.6,0.1c0.2,0,0.4-0.1,0.6-0.2c0.2-0.1,0.4-0.2,0.5-0.4
		c0.1-0.2,0.2-0.4,0.2-0.7V31.1L100.9,31.1z M100.9,24.7h3.8c0.4,0,0.7,0.1,1,0.2c0.3,0.1,0.5,0.3,0.6,0.6c0.2,0.2,0.3,0.5,0.3,0.8
		c0,0.3,0,0.6,0,0.9c-0.1,0.3-0.2,0.6-0.3,0.8c-0.2,0.2-0.4,0.4-0.6,0.6c-0.3,0.2-0.6,0.2-0.9,0.2h-3.8V24.7L100.9,24.7z
		 M117.1,31.4c0.2,0.3,0.5,0.5,0.7,0.6c0.3,0.1,0.5,0.1,0.8,0c0.3-0.1,0.5-0.3,0.8-0.6l3.3-4.1v7.3c0,0.3,0.1,0.5,0.2,0.7
		c0.1,0.2,0.3,0.4,0.4,0.5c0.2,0.1,0.4,0.2,0.6,0.2c0.2,0,0.4-0.1,0.6-0.2c0.2-0.1,0.3-0.3,0.4-0.5c0.1-0.2,0.2-0.4,0.2-0.7V23.5
		c0-0.3-0.1-0.5-0.2-0.7c-0.1-0.2-0.3-0.3-0.4-0.4c-0.2-0.1-0.4-0.2-0.6-0.2c-0.2,0-0.4,0-0.6,0.1c-0.2,0.1-0.3,0.2-0.5,0.4
		l-4.5,6.1l-4.3-5.8c-0.1-0.1-0.2-0.2-0.3-0.4c-0.1-0.1-0.2-0.2-0.4-0.3c-0.1-0.1-0.3-0.1-0.5-0.1c-0.1,0-0.2,0-0.3,0.1
		c-0.1,0-0.3,0.1-0.4,0.2c-0.1,0.1-0.2,0.2-0.3,0.4c-0.1,0.2-0.1,0.4-0.1,0.6v11.1c0,0.3,0.1,0.5,0.2,0.7c0.1,0.2,0.2,0.4,0.4,0.5
		c0.2,0.1,0.4,0.2,0.6,0.2c0.2,0,0.5-0.1,0.7-0.2c0.2-0.1,0.4-0.3,0.5-0.5c0.1-0.2,0.2-0.4,0.2-0.7v-7.3L117.1,31.4L117.1,31.4z
		 M129.3,35.2l0.8-1.7h7.3l0.9,1.7c0.1,0.3,0.3,0.4,0.5,0.5c0.2,0.1,0.4,0.2,0.6,0.2c0.2,0,0.4-0.1,0.6-0.2c0.2-0.1,0.4-0.2,0.5-0.4
		c0.1-0.2,0.2-0.4,0.2-0.6c0-0.2,0-0.5-0.2-0.7L135,23c-0.1-0.3-0.3-0.5-0.5-0.6c-0.2-0.1-0.4-0.2-0.7-0.2c-0.2,0-0.5,0.1-0.7,0.2
		c-0.2,0.1-0.4,0.3-0.5,0.6l-5.6,11c-0.1,0.3-0.2,0.5-0.2,0.8c0,0.2,0.1,0.5,0.2,0.6c0.1,0.2,0.3,0.3,0.5,0.5c0.2,0,0.5,0.1,0.7,0
		c0.2,0,0.4-0.1,0.6-0.2C129,35.6,129.2,35.5,129.3,35.2L129.3,35.2z M131.3,30.9l2.4-4.9l2.2,4.9H131.3L131.3,30.9z M148.7,36.1
		c0.5,0,1.1,0,1.6-0.1c0.5-0.1,1.1-0.2,1.6-0.5c0.5-0.2,1-0.5,1.5-1c0.2-0.2,0.4-0.5,0.4-0.7c0.1-0.2,0.1-0.4,0-0.6
		c0-0.2-0.1-0.4-0.2-0.5c-0.1-0.2-0.3-0.3-0.5-0.4c-0.2-0.1-0.4-0.1-0.7-0.1c-0.2,0-0.5,0.1-0.7,0.3c-0.5,0.4-0.9,0.7-1.5,0.9
		c-0.5,0.2-1.1,0.3-1.6,0.3c-0.8,0-1.4-0.1-2-0.4c-0.6-0.3-1-0.6-1.4-1c-0.4-0.4-0.6-0.9-0.8-1.5c-0.2-0.6-0.3-1.1-0.3-1.8
		c0-0.6,0.1-1.2,0.3-1.7c0.2-0.5,0.5-1,0.8-1.5c0.4-0.4,0.8-0.8,1.4-1c0.6-0.2,1.2-0.4,2-0.4c0.4,0,0.7,0,1,0.1
		c0.3,0.1,0.6,0.2,0.9,0.3c0.3,0.2,0.6,0.4,0.8,0.7c0.2,0.2,0.3,0.3,0.6,0.3c0.2,0.1,0.4,0.1,0.6,0c0.2,0,0.4-0.1,0.6-0.3
		c0.2-0.2,0.3-0.4,0.3-0.6c0-0.2,0-0.5,0-0.7c-0.1-0.2-0.2-0.4-0.4-0.6c-0.5-0.4-1-0.7-1.4-1c-0.5-0.3-1-0.4-1.5-0.6
		c-0.5-0.1-1-0.2-1.6-0.2c-0.9,0-1.7,0.1-2.5,0.4c-0.7,0.2-1.4,0.6-1.9,1c-0.6,0.4-1,1-1.4,1.5c-0.4,0.6-0.7,1.2-0.8,1.9
		c-0.2,0.7-0.3,1.4-0.3,2.2c0,0.8,0.1,1.5,0.3,2.2c0.2,0.7,0.4,1.3,0.8,1.9c0.4,0.6,0.8,1.1,1.4,1.5c0.6,0.4,1.2,0.8,1.9,1
		C146.9,35.9,147.8,36,148.7,36.1L148.7,36.1z M159.6,30.6v4.1c0,0.3,0.1,0.5,0.2,0.7c0.1,0.2,0.3,0.3,0.5,0.4
		c0.2,0.1,0.4,0.1,0.6,0.2c0.2,0,0.4,0,0.6-0.1c0.2-0.1,0.4-0.2,0.5-0.4c0.1-0.2,0.2-0.4,0.2-0.7v-4.1l4.4-6.4
		c0.2-0.2,0.3-0.4,0.3-0.7c0-0.2,0-0.4-0.2-0.6c-0.1-0.2-0.3-0.3-0.4-0.4c-0.2-0.1-0.4-0.2-0.6-0.2c-0.2,0-0.4,0-0.7,0.1
		c-0.2,0.1-0.4,0.3-0.6,0.5L161,28l-3.4-5.1c-0.2-0.3-0.4-0.4-0.6-0.5c-0.2-0.1-0.4-0.1-0.7-0.1c-0.2,0-0.4,0.1-0.6,0.2
		c-0.2,0.1-0.3,0.3-0.4,0.5c-0.1,0.2-0.2,0.4-0.2,0.6c0,0.2,0.1,0.4,0.2,0.6L159.6,30.6L159.6,30.6z"/>
	<path fill="#F58220" d="M101.4,14c-0.1,0.5-0.2,0.8-0.4,1.1c-0.2,0.3-0.5,0.5-0.9,0.6c-0.4,0.1-0.8,0.2-1.2,0.2
		c-0.4,0-0.9,0-1.3-0.1c-0.4-0.1-0.8-0.2-1.2-0.4c-0.4-0.2-0.7-0.3-1-0.5c-0.2-0.2-0.4-0.3-0.6-0.3c-0.2,0-0.4,0-0.6,0.1
		c-0.2,0.1-0.4,0.2-0.5,0.4c-0.1,0.2-0.2,0.4-0.2,0.6c0,0.2,0,0.5,0.1,0.7c0.1,0.2,0.2,0.4,0.4,0.6c0.3,0.3,0.7,0.5,1.2,0.7
		c0.5,0.2,1,0.4,1.5,0.5c0.5,0.1,1.1,0.2,1.6,0.2c0.6,0,1.1,0,1.7-0.1c0.5-0.1,1.1-0.2,1.5-0.5c0.5-0.2,0.9-0.5,1.3-0.8
		c0.4-0.3,0.7-0.7,0.9-1.2c0.2-0.5,0.3-1,0.4-1.6c0-0.6-0.1-1.1-0.3-1.5c-0.2-0.4-0.4-0.8-0.7-1.1c-0.3-0.3-0.7-0.5-1.1-0.7
		c-0.4-0.2-0.8-0.4-1.3-0.5c-0.5-0.1-0.9-0.3-1.4-0.4c-0.4-0.1-0.9-0.2-1.3-0.4c-0.4-0.1-0.7-0.3-1-0.5c-0.3-0.2-0.5-0.4-0.7-0.6
		C96,8.1,96,7.8,96,7.4c0.1-0.3,0.2-0.6,0.4-0.8c0.2-0.2,0.5-0.4,0.8-0.5C97.5,6,97.9,6,98.2,6c0.4,0,0.7,0,1.1,0.1
		c0.4,0.1,0.7,0.2,1,0.3c0.3,0.1,0.6,0.3,0.9,0.4c0.2,0.2,0.5,0.2,0.7,0.2c0.2,0,0.4-0.1,0.6-0.2c0.2-0.1,0.3-0.3,0.4-0.5
		c0.1-0.2,0.1-0.5,0-0.7c-0.1-0.2-0.2-0.5-0.5-0.7c-0.4-0.3-0.8-0.5-1.3-0.7c-0.5-0.2-1-0.3-1.6-0.4c-0.5-0.1-1.1-0.1-1.6,0
		c-0.5,0-1.1,0.2-1.6,0.3c-0.5,0.2-1,0.4-1.4,0.7c-0.4,0.3-0.7,0.7-1,1.1c-0.3,0.4-0.4,0.9-0.5,1.4c-0.1,0.7,0,1.3,0.2,1.8
		c0.2,0.5,0.4,0.9,0.8,1.2c0.3,0.3,0.8,0.6,1.2,0.8c0.5,0.2,0.9,0.4,1.4,0.6c0.5,0.2,1,0.3,1.5,0.4c0.5,0.1,0.9,0.3,1.3,0.4
		c0.4,0.2,0.7,0.4,1,0.6C101.2,13.3,101.3,13.6,101.4,14L101.4,14z M109.9,16.7c0,0.3,0.1,0.5,0.2,0.7c0.1,0.2,0.3,0.3,0.5,0.4
		c0.2,0.1,0.4,0.1,0.6,0.1c0.2,0,0.4-0.1,0.6-0.1c0.2-0.1,0.4-0.2,0.5-0.4c0.1-0.2,0.2-0.4,0.2-0.7V6.7h3.3c0.3,0,0.5-0.1,0.7-0.2
		c0.2-0.1,0.3-0.3,0.4-0.5c0.1-0.2,0.1-0.4,0.1-0.6c0-0.2,0-0.4-0.1-0.6c-0.1-0.2-0.2-0.3-0.4-0.5c-0.2-0.1-0.4-0.2-0.7-0.2h-9.3
		c-0.3,0-0.5,0.1-0.7,0.2c-0.2,0.1-0.3,0.3-0.4,0.5c-0.1,0.2-0.1,0.4-0.1,0.6c0,0.2,0,0.4,0.1,0.6c0.1,0.2,0.2,0.3,0.4,0.5
		c0.2,0.1,0.4,0.2,0.7,0.2h3.4V16.7L109.9,16.7z M132.1,11c0-0.9-0.1-1.8-0.4-2.5c-0.3-0.8-0.6-1.4-1.1-2c-0.5-0.6-1-1-1.6-1.4
		c-0.6-0.4-1.2-0.7-1.9-0.9c-0.7-0.2-1.4-0.3-2.1-0.4c-0.7,0-1.5,0.1-2.2,0.3c-0.7,0.2-1.4,0.5-2,0.9c-0.6,0.4-1.2,0.9-1.7,1.4
		c-0.5,0.6-0.9,1.3-1.1,2c-0.3,0.8-0.4,1.6-0.4,2.6c0,1,0.1,1.8,0.4,2.6c0.3,0.8,0.7,1.4,1.1,2c0.5,0.6,1,1,1.7,1.4
		c0.6,0.4,1.3,0.6,2,0.8c0.7,0.2,1.4,0.2,2.2,0.2c0.7,0,1.4-0.1,2.1-0.3c0.7-0.2,1.3-0.5,1.9-0.9c0.6-0.4,1.1-0.9,1.6-1.4
		c0.5-0.6,0.8-1.2,1.1-2C132,12.8,132.1,11.9,132.1,11L132.1,11z M129.5,11c0,0.6-0.1,1.2-0.3,1.7c-0.2,0.5-0.4,0.9-0.7,1.3
		c-0.3,0.4-0.7,0.7-1.1,0.9c-0.4,0.2-0.8,0.4-1.3,0.6c-0.4,0.1-0.9,0.2-1.4,0.2c-0.4,0-0.9-0.1-1.3-0.2c-0.4-0.1-0.9-0.3-1.2-0.6
		c-0.4-0.2-0.7-0.6-1-0.9c-0.3-0.4-0.5-0.8-0.7-1.3c-0.2-0.5-0.3-1.1-0.3-1.7c0-0.6,0.1-1.2,0.3-1.7c0.2-0.5,0.4-0.9,0.7-1.3
		c0.3-0.4,0.7-0.7,1-0.9c0.4-0.2,0.8-0.4,1.2-0.6c0.4-0.1,0.9-0.2,1.3-0.2c0.5,0,0.9,0.1,1.4,0.2c0.4,0.1,0.9,0.3,1.3,0.6
		c0.4,0.2,0.8,0.6,1.1,0.9c0.3,0.4,0.6,0.8,0.7,1.3C129.5,9.8,129.5,10.4,129.5,11L129.5,11z M137.1,13h3.1l3,4.2
		c0.2,0.3,0.5,0.5,0.8,0.6c0.3,0.1,0.5,0.1,0.8,0c0.3-0.1,0.5-0.2,0.6-0.4c0.2-0.2,0.3-0.4,0.3-0.7c0-0.3-0.1-0.6-0.3-0.9l-2.6-3.2
		c0.5-0.2,1-0.5,1.3-0.8c0.4-0.3,0.6-0.7,0.9-1.2c0.2-0.4,0.3-0.9,0.4-1.4c0.1-0.5,0-1-0.1-1.4c-0.1-0.5-0.2-0.9-0.5-1.4
		c-0.2-0.4-0.5-0.8-0.9-1.1c-0.4-0.3-0.8-0.6-1.3-0.8c-0.5-0.2-1.1-0.3-1.7-0.3h-5.2c-0.2,0-0.4,0.1-0.6,0.2
		c-0.2,0.1-0.3,0.2-0.4,0.4c-0.1,0.2-0.2,0.4-0.2,0.6v11.2c0,0.3,0.1,0.5,0.2,0.7c0.1,0.2,0.3,0.3,0.5,0.4c0.2,0.1,0.4,0.1,0.6,0.1
		c0.2,0,0.4-0.1,0.6-0.2c0.2-0.1,0.4-0.2,0.5-0.4c0.1-0.2,0.2-0.4,0.2-0.7V13L137.1,13z M137.1,6.7h3.8c0.4,0,0.7,0.1,1,0.2
		c0.3,0.1,0.5,0.3,0.6,0.6c0.2,0.2,0.3,0.5,0.3,0.8c0,0.3,0,0.6,0,0.9c-0.1,0.3-0.2,0.6-0.3,0.8c-0.2,0.2-0.4,0.4-0.6,0.6
		c-0.3,0.2-0.6,0.2-0.9,0.2h-3.8V6.7L137.1,6.7z M156.4,17.9c0.3,0,0.6-0.1,0.8-0.2c0.2-0.1,0.4-0.3,0.5-0.5
		c0.1-0.2,0.1-0.4,0.1-0.6c0-0.2-0.1-0.4-0.2-0.6c-0.1-0.2-0.3-0.4-0.5-0.5c-0.2-0.1-0.5-0.2-0.8-0.2h-6v-2.9h5
		c0.3,0,0.5-0.1,0.7-0.2c0.2-0.1,0.3-0.3,0.4-0.5c0.1-0.2,0.1-0.4,0.1-0.6c0-0.2,0-0.4-0.1-0.6c-0.1-0.2-0.2-0.4-0.4-0.5
		c-0.2-0.1-0.4-0.2-0.7-0.2h-5V6.8h5.7c0.3,0,0.5-0.1,0.7-0.2c0.2-0.1,0.3-0.3,0.4-0.5c0.1-0.2,0.2-0.4,0.2-0.6c0-0.2,0-0.4-0.1-0.6
		c-0.1-0.2-0.2-0.4-0.4-0.5c-0.2-0.1-0.4-0.2-0.8-0.2H149c-0.2,0-0.4,0.1-0.6,0.2c-0.2,0.1-0.3,0.2-0.4,0.4
		c-0.1,0.2-0.2,0.4-0.2,0.6v11.2c0,0.2,0.1,0.4,0.2,0.6c0.1,0.2,0.2,0.3,0.4,0.4c0.2,0.1,0.4,0.2,0.6,0.2H156.4L156.4,17.9z
		 M167.5,14c-0.1,0.5-0.2,0.8-0.4,1.1c-0.2,0.3-0.5,0.5-0.9,0.6c-0.4,0.1-0.8,0.2-1.2,0.2c-0.4,0-0.9,0-1.3-0.1
		c-0.4-0.1-0.8-0.2-1.2-0.4c-0.4-0.2-0.7-0.3-1-0.5c-0.2-0.2-0.4-0.3-0.6-0.3c-0.2,0-0.4,0-0.6,0.1c-0.2,0.1-0.4,0.2-0.5,0.4
		c-0.1,0.2-0.2,0.4-0.2,0.6c0,0.2,0,0.5,0.1,0.7c0.1,0.2,0.2,0.4,0.4,0.6c0.3,0.3,0.7,0.5,1.2,0.7c0.5,0.2,1,0.4,1.5,0.5
		c0.5,0.1,1.1,0.2,1.6,0.2c0.6,0,1.1,0,1.7-0.1c0.5-0.1,1.1-0.2,1.5-0.5c0.5-0.2,0.9-0.5,1.3-0.8c0.4-0.3,0.7-0.7,0.9-1.2
		c0.2-0.5,0.3-1,0.4-1.6c0-0.6-0.1-1.1-0.3-1.5c-0.2-0.4-0.4-0.8-0.7-1.1c-0.3-0.3-0.7-0.5-1.1-0.7c-0.4-0.2-0.8-0.4-1.3-0.5
		c-0.5-0.1-0.9-0.3-1.4-0.4c-0.4-0.1-0.9-0.2-1.3-0.4c-0.4-0.1-0.7-0.3-1-0.5c-0.3-0.2-0.5-0.4-0.7-0.6c-0.1-0.2-0.2-0.6-0.1-0.9
		c0.1-0.3,0.2-0.6,0.4-0.8c0.2-0.2,0.5-0.4,0.8-0.5c0.3-0.1,0.6-0.2,1-0.2c0.4,0,0.7,0,1.1,0.1c0.4,0.1,0.7,0.2,1,0.3
		c0.3,0.1,0.6,0.3,0.9,0.4c0.2,0.2,0.5,0.2,0.7,0.2c0.2,0,0.4-0.1,0.6-0.2c0.2-0.1,0.3-0.3,0.4-0.5c0.1-0.2,0.1-0.5,0-0.7
		c-0.1-0.2-0.2-0.5-0.5-0.7c-0.4-0.3-0.8-0.5-1.3-0.7c-0.5-0.2-1-0.3-1.6-0.4c-0.5-0.1-1.1-0.1-1.6,0c-0.5,0-1.1,0.2-1.6,0.3
		c-0.5,0.2-1,0.4-1.4,0.7c-0.4,0.3-0.7,0.7-1,1.1c-0.3,0.4-0.4,0.9-0.5,1.4c-0.1,0.7,0,1.3,0.2,1.8c0.2,0.5,0.4,0.9,0.8,1.2
		c0.3,0.3,0.8,0.6,1.2,0.8c0.5,0.2,0.9,0.4,1.4,0.6c0.5,0.2,1,0.3,1.5,0.4c0.5,0.1,0.9,0.3,1.3,0.4c0.4,0.2,0.7,0.4,1,0.6
		C167.3,13.3,167.5,13.6,167.5,14L167.5,14z"/>
	<path fill-rule="evenodd" clip-rule="evenodd" fill="#00B04F" d="M25.5,19.4c-0.1,0-0.5,0.2-0.6,0.3c-0.1,0.1-0.2,0.1-0.3,0.2
		c-0.1,0.1-0.2,0.1-0.3,0.2l0.1,0.1c0.1-0.1,0.4,0,0.5-0.1c0.4,0,0.5,0,0.8,0c0.1,0,0.9,0,1.1,0c0.2,0,0,0,0.2-0.1
		c0.2,0,0.4,0,0.6,0c0.2,0,0.3,0,0.5,0c0.2,0,0.4,0,0.6,0c0.2-0.1-0.1,0.1,0,0c0.1-0.1,0.1,0,0.2,0c0,0.1,0,0.1,0.1,0.1
		c0.1,0,0.2,0,0.3,0c0.2-0.1,0.2,0,0.3-0.1c0,0.1,0.1,0.2,0.1,0.2c0.1-0.1,0.3-0.5,0.3-0.7c-0.2,0-0.5-0.2-0.7-0.1l-0.1,0
		c0,0.1,0,0,0,0.1c-0.1-0.1-0.3-0.1-0.4-0.1c-0.1,0-0.3,0-0.4,0C27.9,19.3,25.7,19.4,25.5,19.4L25.5,19.4z"/>
	<path fill-rule="evenodd" clip-rule="evenodd" fill="#00B04F" d="M24.3,20c-0.1,0-0.1,0-0.2,0.1c-0.1,0.1-0.4,0.3-0.5,0.4l0.1,0
		c0,0,0,0.1,0.2,0.1c0.1,0,0.2,0,0.2,0l0.8,0c0.1,0,0.1-0.1,0.2-0.1c0,0,0.4,0,0.5,0l1.2-0.1c0.2,0,0.2,0,0.5,0c0.1,0,0.2,0,0.2,0
		c-0.1-0.1-0.3,0-0.4,0l0,0l1.5,0c0.2,0,0.1,0,0.2,0c0.2,0,0.4,0,0.6,0l0,0c0,0,0,0.1,0,0.1c0.1-0.1,0.3-0.4,0.3-0.5
		c0-0.1-0.1-0.2-0.1-0.2c-0.1,0.1,0,0-0.3,0.1c-0.1,0-0.2,0-0.3,0c-0.2,0-0.1,0-0.1-0.1c-0.1,0-0.1,0-0.2,0c-0.2,0.1,0.1,0,0,0
		c-0.2,0-0.4,0-0.6,0c-0.2,0-0.4,0-0.5,0c-0.2,0-0.4,0-0.6,0c-0.2,0,0,0-0.2,0.1c-0.2,0-1,0-1.1,0c-0.3,0.1-0.4,0-0.8,0
		c-0.1,0-0.4,0-0.5,0.1L24.3,20L24.3,20z"/>
	<path fill-rule="evenodd" clip-rule="evenodd" fill="#00B04F" d="M23.6,20.6c-0.1,0-0.5,0.5-0.6,0.6l-0.2,0.2l-0.1,0.2
		c0.7-0.3,0.8-0.4,1.7-0.6c0.6-0.1,1.5-0.2,2.1-0.2c-0.2,0.1-0.3,0-0.4,0.1c0.1,0,0.1,0,0.2,0c0,0,0,0,0,0c0.1,0,1.9-0.1,2.1-0.1
		c0.1,0,0.5-0.1,0.6,0c0,0,0,0,0,0c0.1,0,0.1-0.1,0.1-0.2c0.1-0.1,0.1-0.1,0.1-0.2c0,0,0-0.1,0-0.1l0,0c-0.1,0-0.4,0-0.6,0
		c-0.2,0-0.1,0-0.2,0l-1.5,0l0,0c0.1,0,0.3,0,0.4,0c-0.1,0-0.1,0-0.2,0c-0.3,0-0.3,0-0.5,0l-1.2,0.1c-0.1,0-0.5,0-0.5,0
		c-0.1,0,0,0.1-0.2,0.1l-0.8,0c-0.1,0-0.2,0-0.2,0C23.7,20.6,23.7,20.6,23.6,20.6L23.6,20.6L23.6,20.6z"/>
	<path fill-rule="evenodd" clip-rule="evenodd" fill="#00B04F" d="M10.7,21.1c0,0.1,0.2,0.1,0.2,0.2c0.1,0.1,0.2,0.1,0.3,0.2l0-0.1
		l0.2,0c0,0,0,0,0-0.1l0.2,0c0.1,0,0-0.1,0.2,0c0.2-0.1-0.1,0.1,0,0c0.1-0.1,0.1,0,0.2-0.1l0.1,0c0,0,0.1,0,0.1,0
		c0.1,0,0.1,0.1,0.3,0c0.1,0,0.1,0,0.2,0l-0.4,0V21c0.2,0,0.3,0,0.4,0c0.1,0,0.2,0.1,0.4,0C13.1,21,13,21,12.9,21
		c0.1-0.1,0.3,0,0.4,0c0-0.1,0,0,0-0.1c0-0.1,0,0,0-0.1c0.1,0,0,0,0.1,0c0.2,0.1,0.1,0,0.2,0l-0.4-0.2l0.5,0.1c0-0.1,0,0,0.1,0
		c0,0,0,0,0,0c0.1,0,0.1,0,0.2,0c0.3,0,0.1,0,0.2,0c0.3-0.1,0.5,0,0.5,0c0.1,0,0.1,0,0.1,0c-0.2,0-0.2,0-0.2,0c0,0,0.1,0,0.1,0
		c0.1,0,0,0,0.1,0l0.2,0c0,0,0,0,0,0l0.2,0c0.1,0,0.1,0,0.2,0l0-0.1c0.1-0.1,0.4,0,0.6,0c0.1,0,0.1-0.2,0.4,0
		c-0.1-0.1-0.4-0.4-0.5-0.6c-0.1-0.1,0,0-0.1-0.1c-0.1,0-0.1,0-0.2,0.1l-0.4,0c-0.1,0.1,0,0.1-0.1,0.1c-0.2,0-0.1,0-0.2,0
		c-0.1,0-0.2,0-0.3,0c0.1-0.2,0.1,0,0.1-0.2c0,0-0.1,0-0.1,0.1l-0.1,0.1c-0.1,0-0.2,0-0.3,0c0.1,0.1,0.3,0,0.4,0.1l-0.4,0.1
		c-0.3,0.1-0.2,0-0.4,0.1c-0.1,0,0,0-0.1,0c0,0-0.2,0-0.2,0c-0.2,0-0.1,0-0.1-0.1c0,0,0.1,0,0.1,0c0.1,0,0,0,0.1,0l-0.4,0
		c0,0.1,0,0,0.1,0.1c0.1,0,0.1-0.1,0.1,0.1c-0.1,0-0.1,0-0.2,0c-0.1,0,0,0,0,0.1c-0.1,0-0.4,0-0.5,0c-0.2,0-0.1,0-0.2,0.1
		c0,0,0,0,0,0c-0.2,0.1,0,0.1-0.2,0.1c-0.2,0-0.1,0-0.3,0l-0.1,0c-0.2,0.1-0.3,0.1-0.5,0.1c-0.2,0,0,0-0.4,0.1
		C10.8,20.9,11,21,10.7,21.1C10.6,21,10.7,20.9,10.7,21.1L10.7,21.1z"/>
	<path fill-rule="evenodd" clip-rule="evenodd" fill="#00B04F" d="M23.4,22.1c-0.1,0-0.2,0.1-0.3,0.2c0.1,0.1,0.4,0.2,0.5,0.3
		c0.2,0.1,0.4,0.2,0.6,0.2c0,0,0,0,0,0l-0.1,0l0.1,0c0.1,0,0.1,0,0.2,0c0.2,0,0.2-0.1,0.4,0l1.3,0c0.2,0,0.2,0,0.4,0
		c0.1,0,0.7,0,0.8,0c-0.1,0,0,0,0,0.1c0.4-0.1,0.9-0.6,1-0.6l0.1-0.1l0,0c-0.1,0-0.3,0-0.4,0c-0.2,0-0.3-0.1-0.3,0.1
		c-0.2,0-0.4,0-0.6,0c-0.6,0-0.6,0-1.1,0.1c-0.2,0-0.7-0.1-0.9,0c-0.2,0,0,0.1-0.2,0.1c-0.1,0-0.1,0-0.3,0
		C24.4,22,23.6,22.1,23.4,22.1L23.4,22.1z"/>
	<path fill-rule="evenodd" clip-rule="evenodd" fill="#00B04F" d="M14.5,16c0,0.3,0.1,0.7,0.2,0.9l0,0c0,0,0,0,0,0l0.1,0
		c0.1-0.1,0,0,0.1-0.1c0.1-0.1,0,0,0.1-0.1l0.3-0.1c0.1,0,0,0,0-0.1l0,0c0.1,0,0.3-0.1,0.4-0.1c0.1-0.1,0,0,0.1-0.1
		c0.2,0,0.3,0,0.4-0.1l0.1-0.1c0.1,0,0.1,0,0.2-0.1c0,0,0,0-0.1,0c0,0-0.1,0-0.1,0l0,0l0.3,0c0.1-0.1-0.1,0.1,0,0c0,0,0,0,0,0
		c0.1,0-0.1,0,0.1,0c0.4-0.1,0-0.1,0.3-0.1c0.1,0,0,0,0.1-0.1c0.1,0,0,0,0.1,0c0.1,0.1,0,0,0,0c0-0.1,0-0.1,0.1-0.2c0,0,0,0,0.1,0.1
		c0,0,0,0,0,0c0,0,0,0,0.1-0.1c0.1-0.1,0,0,0.1,0c0.2-0.1,0-0.1,0.2-0.1c0.1-0.1,0-0.1,0.1-0.1c0.1,0-0.1-0.1,0.1,0.1c0,0,0,0,0,0
		c0,0,0,0,0,0c0,0,0,0,0,0l0,0c0,0,0,0.1,0-0.1c-0.1-0.2-0.4-0.6-0.6-0.6c0.1,0.1,0,0,0.1,0.1c-0.1,0.1-0.1,0.1-0.1,0
		c0,0.1,0,0.1-0.3,0.2c-0.3,0.1-0.1,0.1-0.3,0.2c-0.1,0-0.1,0-0.2,0c0,0,0,0,0,0l-0.1,0c-0.3,0.2-0.2,0-0.4,0.2
		c-0.1,0.1-0.1,0-0.3,0.1c0,0-0.1,0-0.1,0.1L16,15.4c-0.1,0-0.2,0.1-0.3,0.1c0,0,0-0.1,0,0c0,0.1-0.1,0.1-0.2,0.1
		c-0.2,0.1-0.2,0.1-0.4,0.2c-0.1,0.1,0,0-0.1,0.1c-0.1,0-0.2,0.1-0.4,0.1c0,0,0-0.1,0,0l0,0C14.6,16.1,14.6,16.1,14.5,16L14.5,16z"
		/>
	<path fill-rule="evenodd" clip-rule="evenodd" fill="#00B04F" d="M24.9,21.4c-0.1,0-0.6,0.3-0.8,0.3l-0.7,0.4c0.1,0,1-0.1,1.2-0.1
		c0.1,0,0.2,0,0.3,0c0.2,0,0.1-0.1,0.2-0.1c0.2,0,0.7,0,0.9,0c0.6-0.1,0.6-0.1,1.1-0.1c0.2,0,0.4,0,0.6,0c0-0.2,0.1-0.1,0.3-0.1
		c0.1,0,0.3,0,0.4,0l0,0c0.1-0.1,0.2-0.2,0.3-0.2c0.1-0.1,0.1-0.2,0.2-0.3c-0.1,0-0.1,0-0.1-0.1l-0.1,0.1c-0.1,0,0.2,0-0.3,0
		c-0.4,0-0.2,0-0.4,0l-1.2,0c-0.5,0-1.2,0.1-1.7,0.1C25,21.4,25.2,21.4,24.9,21.4L24.9,21.4z"/>
	<path fill-rule="evenodd" clip-rule="evenodd" fill="#00B04F" d="M20.4,15.5L20.4,15.5c0.2,0.1,0.8,0.1,1,0.1c0.2,0,0.1,0,0.2,0
		c0.2,0,0,0,0.4,0c0.1,0,0.2,0,0.3,0c0.1,0,0,0,0.1,0c0.1,0,0.2,0,0.3,0c0.2,0,0,0,0.2,0c0.2,0,0.4,0,0.5,0l0.8,0
		c0.3,0.1,0.2,0,0.2,0c0,0,0.1,0.1,0.1,0.1l0-0.2c0,0,0,0,0,0c0,0,0,0,0,0c0,0,0,0,0,0l-0.1-0.6l0,0.1l-0.8,0l-0.1-0.1
		c-0.1,0-0.3,0-0.4,0c-0.2,0-0.2,0-0.3-0.1c-0.2,0-0.5,0-0.7,0c-0.5,0-0.8-0.1-1.3-0.1c-0.1-0.1,0,0-0.1,0c-0.1,0-0.1,0-0.1-0.1
		C20.6,15,20.4,15.3,20.4,15.5L20.4,15.5z"/>
	<path fill-rule="evenodd" clip-rule="evenodd" fill="#00B04F" d="M10,20.4c0,0.1,0.3,0.3,0.3,0.3l0-0.1c0.2,0,0.1,0,0.2,0
		c0.1-0.1,0.3-0.1,0.4-0.1c0.3-0.1,0.1,0,0.4,0c-0.1-0.1-0.1,0.1-0.1-0.1c0.2,0,0.2,0.1,0.4,0l0.1,0c0.2,0,0.2,0,0.3-0.1
		c0.2-0.1,0.1,0,0.3,0c0.1,0,0.1,0,0.1-0.1c0.1,0,0.2,0,0.2,0c0.1,0,0,0,0-0.1l0.2,0l0-0.1c0.1,0,0.1,0,0.2,0c0,0,0,0,0,0
		c0,0,0,0,0,0c0.1,0,0.1,0,0.2,0l0.4-0.1c0.2,0,0.2,0,0.2,0c0,0,0-0.1,0.1-0.1c0.1,0,0.1,0.1,0.3,0l0,0c0.1,0,0.1,0,0.3,0
		c0.1-0.1,0.1-0.1,0.3-0.1l0-0.1c0.1,0,0.2,0,0.3,0c0.2-0.1,0.1,0,0.3-0.1l0.1,0c0,0,0.1,0,0.1-0.1c-0.1-0.1-0.2-0.2-0.4-0.2
		c-0.1,0.1-0.2,0-0.4,0.1l-0.2,0.1c-0.1,0-0.2,0.1-0.3,0.1l-0.3,0.1c-0.1,0-0.4,0.1-0.5,0.1l-0.3,0.1c-0.1,0-0.1,0-0.5,0.1l-0.4,0.1
		c-0.1,0.1-0.1,0-0.2,0.1c0,0-0.1,0-0.1,0L11.6,20c-0.2,0,0,0-0.3,0.1c-0.1,0-0.1,0-0.2,0c-0.2,0.1-0.5,0.1-0.7,0.1
		c-0.2,0,0.1,0-0.3,0.1C9.9,20.4,10,20.4,10,20.4L10,20.4z"/>
	<path fill-rule="evenodd" clip-rule="evenodd" fill="#00B04F" d="M20.1,16.3c0.1,0,0,0,0,0.1c0.1,0,0.1,0,0.2,0c0.1,0,0,0,0,0
		c0.2,0.1-0.1,0,0.1,0l1.1,0c0.2,0,0.1,0,0.2,0c0.2,0.1-0.2,0,0,0c0,0,0.1,0,0.1,0c0.1,0,0.2,0,0.3,0l0-0.1c0,0.1,0,0,0.1,0.1l0-0.1
		l0,0.1c0.2,0.1,0.6,0,0.9,0.1c0.2,0.1,0.6,0,0.8,0c0.1,0,0.2,0,0.3,0c0.2,0,0.1,0,0.2,0.1l0-0.2c0.2,0.1,0.1,0,0.1,0.1
		c0.1,0.2-0.1,0,0,0.1l0-0.5c0,0-0.1-0.1-0.1-0.1c-0.1,0,0,0-0.1,0.1c0,0,0,0,0-0.1l0,0c-0.2,0-0.1,0-0.2,0l-1.3-0.1
		c-0.3,0-0.3,0-0.5,0c-0.1,0-0.5,0-0.6,0c-0.4,0-0.1,0-0.5,0c-0.3,0-0.8-0.1-1-0.1L20.1,16.3L20.1,16.3z"/>
	<path fill-rule="evenodd" clip-rule="evenodd" fill="#00B04F" d="M14.7,16.9l0.1,0.5c0,0,0,0,0,0c0,0,0,0,0.2-0.1
		c0.1,0,0.1-0.1,0.2-0.1c0.1-0.1,0-0.1,0.2-0.1c0.1,0,0.2-0.1,0.3-0.1l0.1,0c0.2-0.1,0.1,0,0.3-0.1c0.2-0.1,0.3-0.2,0.4-0.1
		c0,0,0-0.1,0-0.1c0-0.1,0-0.1,0,0c0.1-0.1,0,0,0.1-0.1c0.1-0.1,0,0,0.3-0.1c0.1,0,0.1,0,0.1,0c0.1,0,0.1,0,0.2-0.1
		c0.2-0.1,0.2-0.1,0.3-0.1c0.1,0,0,0,0.1-0.1l0.3-0.1c0.1,0,0.1,0,0.1-0.1c0.1-0.1,0,0,0.1,0c0.2-0.1,0.2-0.1,0.4-0.1
		c-0.1-0.1-0.2-0.4-0.3-0.5c0,0.2,0,0,0,0.1l0,0c0,0,0,0,0,0c0,0,0,0,0,0c0,0,0,0,0,0c-0.2-0.1,0.1,0-0.1-0.1c-0.1,0,0,0-0.1,0.1
		c-0.3,0-0.1,0-0.2,0.1c-0.1,0.1,0,0-0.1,0c-0.1,0,0,0.1-0.1,0.1c0,0,0,0,0,0c-0.1,0-0.1,0-0.1-0.1c-0.1,0.2-0.1,0.1-0.1,0.2
		c-0.1,0,0,0,0,0c0,0,0,0-0.1,0c-0.1,0.1,0,0.1-0.1,0.1c-0.3,0.1,0.1,0.1-0.3,0.1c-0.2,0,0,0-0.1,0c0,0,0,0,0,0c-0.1,0.1,0.1,0,0,0
		l-0.3,0l0,0c0,0,0.1,0,0.1,0c0.1,0,0,0,0.1,0c-0.1,0.1-0.1,0-0.2,0.1l-0.1,0.1c-0.1,0.1-0.2,0.1-0.4,0.1c-0.1,0.1,0,0-0.1,0.1
		c-0.1,0.1-0.3,0.1-0.4,0.1l0,0c0,0.1,0,0,0,0.1L15,16.6c-0.1,0,0,0-0.1,0.1c-0.1,0.1,0,0-0.1,0.1L14.7,16.9
		C14.8,16.8,14.7,16.8,14.7,16.9L14.7,16.9L14.7,16.9z"/>
	<path fill-rule="evenodd" clip-rule="evenodd" fill="#00B04F" d="M10.3,20.8C10.4,20.8,10.3,20.8,10.3,20.8
		C10.4,20.8,10.4,20.8,10.3,20.8l0.4,0.3c0-0.1,0,0,0-0.1c0.3,0,0-0.1,0.3-0.1c0.4,0,0.1,0,0.4-0.1c0.3-0.1,0.4-0.1,0.5-0.1l0.1,0
		c0.3-0.1,0.1,0,0.3,0c0.2,0,0,0,0.2-0.1c0,0,0,0,0,0c0.1,0,0,0,0.2-0.1c0.1,0,0.4-0.1,0.5,0c0-0.1-0.1,0,0-0.1c0,0,0.1,0,0.2,0
		c0-0.2,0-0.1-0.1-0.1c-0.1,0-0.1,0.1-0.1-0.1l0.4,0c0,0.1,0,0-0.1,0c0,0-0.1,0-0.1,0c0,0.1-0.1,0.1,0.1,0.1c0,0,0.2,0,0.2,0
		c0.1,0,0.1,0,0.1,0c0.2-0.1,0.1,0.1,0.4-0.1l0.4-0.1c-0.1-0.1-0.3,0-0.4-0.1c0.1,0,0.2,0,0.3,0l0.1-0.1c0.1,0,0.1,0,0.1-0.1
		c0,0.2-0.1,0-0.1,0.2c0.1,0,0.2,0,0.3,0c0.1,0,0,0,0.2,0c0.1,0,0,0,0.1-0.1l0.4,0c0.1-0.1,0.1-0.1,0.2-0.1
		c-0.1-0.1-0.1-0.1-0.2-0.2c-0.1,0-0.1-0.1-0.2-0.1c0,0.1-0.1,0-0.1,0.1l-0.1,0c-0.1,0.1-0.1,0-0.3,0.1c-0.1,0-0.2,0-0.3,0l0,0.1
		c-0.3,0-0.3,0-0.3,0.1c-0.1,0-0.2,0-0.3,0l0,0c-0.2,0.1-0.2,0-0.3,0c-0.1,0-0.1,0.1-0.1,0.1c-0.1,0-0.1-0.1-0.2,0L13.2,20
		c-0.1,0-0.1,0-0.2,0c0,0,0,0,0,0c0,0,0,0,0,0c-0.1,0-0.1,0-0.2,0l0,0.1l-0.2,0c0.1,0.1,0.1,0.1,0,0.1c-0.1,0-0.2,0-0.2,0
		c0,0.1,0.1,0-0.1,0.1c-0.2,0-0.1,0-0.3,0c-0.1,0-0.1,0-0.3,0.1l-0.1,0c-0.2,0.1-0.2,0-0.4,0c0,0.2,0,0,0.1,0.1
		c-0.2,0-0.1-0.1-0.4,0c-0.1,0-0.3,0-0.4,0.1C10.4,20.7,10.5,20.7,10.3,20.8L10.3,20.8L10.3,20.8z"/>
	<path fill-rule="evenodd" clip-rule="evenodd" fill="#00B04F" d="M12.5,22.1c0.1,0.1,1.1,0.3,1.3,0.3c0,0,0-0.1-0.2-0.1l0.1,0
		c0,0,0,0,0,0c0.3-0.1,0.2,0,0.4-0.1c0.1-0.1,0.3,0,0.4,0c0.2-0.1-0.1-0.1,0.4-0.1c0.1,0,0.1,0,0.2,0l0.7-0.2c0,0,0,0,0,0l0.1,0
		c0,0,0,0,0,0c0.1,0,0.4,0,0.4,0l0-0.1c0.2,0,0.6,0,0.8,0l0.1,0c-1,0-1.3-0.1-2.1-0.4c0,0.1,0,0,0,0.1c0,0,0,0,0,0c0,0,0,0,0,0
		c-0.1,0-0.1,0-0.2,0c-0.1,0.1-0.5,0.1-0.7,0.2l-0.2,0c0,0,0,0,0,0l-0.2,0c-0.2,0-0.1,0-0.3,0.1c-0.2,0.1-0.4,0.1-0.6,0.1L12.6,22
		C12.5,22,12.6,22,12.5,22.1L12.5,22.1C12.5,22.1,12.5,22.1,12.5,22.1L12.5,22.1z"/>
	<path fill-rule="evenodd" clip-rule="evenodd" fill="#00B04F" d="M20.2,16c0.3,0,0.7,0.1,1,0.1c0.4,0,0.1,0,0.5,0
		c0.1,0,0.5,0,0.6,0c0.2,0.1,0.2,0,0.5,0l1.3,0.1c0.1,0,0.1,0,0.2,0l0,0c0,0,0,0,0,0.1c0.1-0.1,0-0.1,0.1-0.1c0.1,0,0.1,0,0.1,0.1
		l0-0.5c0,0,0,0,0,0c0,0,0,0,0,0c0,0,0,0,0,0l0,0.2c0,0,0-0.1-0.1-0.1c0,0,0,0-0.2,0l-0.8,0c-0.1,0-0.4,0-0.5,0c-0.2,0,0,0-0.2,0
		c-0.1,0-0.2,0-0.3,0c-0.1,0,0,0-0.1,0c-0.1,0-0.2,0-0.3,0c-0.4-0.1-0.2,0-0.4,0c-0.2,0,0,0-0.2,0c-0.1,0-0.8,0-0.9,0l-0.1,0
		L20.2,16L20.2,16z"/>
	<path fill-rule="evenodd" clip-rule="evenodd" fill="#00B04F" d="M14.1,23.4L14.1,23.4C14.2,23.4,14.2,23.5,14.1,23.4
		c-0.1,0.2-0.1,0.2-0.3,0.4c-0.1,0.1,0,0.1-0.2,0.2c0,0,0,0-0.1,0.1l-0.2,0.3c0,0,0,0,0,0c0,0,0,0,0,0l0,0c-0.1,0.1-0.1,0-0.2,0.2
		c-0.1,0.1-0.1,0.1-0.1,0.1c0,0.1-0.1,0.1-0.1,0.2c-0.1,0.1-0.1,0-0.1,0.1c-0.1,0.1-0.1,0.1-0.1,0.1c-0.1,0.1,0,0.1-0.1,0.2
		l-0.3,0.3l-0.1,0.1c-0.1,0.2-0.1,0-0.2,0.1c0,0,0,0,0,0c-0.1,0.3-0.1,0-0.3,0.4l-0.2,0c0.1,0,0,0,0,0c0.4,0.1,1.1,0.1,1.5,0.1l0,0
		l-0.3,0l-0.5,0c-0.2,0-0.1,0-0.1-0.1c0.1,0,0.1,0,0.2,0c0,0,0-0.1,0-0.1c0,0,0,0,0,0l0.2-0.2c0,0,0,0,0,0c0.1-0.1,0.2-0.1,0.2-0.2
		c-0.1,0,0,0.1-0.2,0.1c0-0.1,0.1-0.1,0.2-0.3c0,0,0.1-0.1,0.1-0.1c0.2-0.1,0.1-0.2,0.3-0.3c0.1,0,0,0,0.1,0.1l0.2-0.2
		c0.1-0.1,0.1-0.1,0.2-0.1c-0.1,0,0,0-0.1,0c0,0.1-0.2,0.2-0.3,0.2c0-0.1,0-0.1,0.1-0.1c0,0,0,0,0-0.1l0.2-0.2
		c0.2-0.2,0.1-0.2,0.3-0.3c0.2-0.2,0,0,0.2-0.1c0-0.1,0,0,0-0.1c0,0,0,0,0-0.1c0.1-0.1,0.1,0,0.1,0c0,0,0,0,0.1,0
		c0.1-0.1-0.1,0,0-0.1c0,0,0.1-0.1,0.1-0.1l0,0.1c0,0.1-0.1,0,0,0.1c0,0,0,0,0.1-0.1c0.1-0.1,0.1-0.1,0.3-0.3c0,0-0.1,0-0.1-0.1
		l0.3,0C14.8,23.4,14.3,23.4,14.1,23.4L14.1,23.4z"/>
	<path fill-rule="evenodd" clip-rule="evenodd" fill="#00B04F" d="M21.6,13.4c-0.1,0-0.2,0.2-0.2,0.3c0,0-0.1,0.1-0.1,0.1
		c-0.1,0.1-0.1,0.1-0.1,0.2c0,0.1,0,0,0,0.1c0.1-0.1,0,0.1,0-0.1c0,0,0.1,0,0.2,0c0.2,0.1,0,0,0.1,0.1l1.6,0c-0.2,0-0.3,0-0.6,0v0
		c0.2,0,0.8,0,1,0c0,0,0.3-0.1,0.5,0l0-0.1c0-0.1-0.2-0.4-0.2-0.5c-0.3,0-0.2,0-0.2-0.1c-0.1,0-0.4,0-0.6,0c0,0.1,0,0.2,0,0.1
		c0,0,0,0,0,0c-0.2,0-0.2,0-0.2-0.2c-0.2,0-0.3,0-0.4,0c-0.1,0-0.3,0-0.4,0l0,0.1c0.1,0,0.2,0,0.4,0c0.3,0,0.2,0,0.3,0.1
		c-0.1,0-0.3,0-0.4,0C22,13.5,21.9,13.4,21.6,13.4L21.6,13.4z"/>
	<path fill-rule="evenodd" clip-rule="evenodd" fill="#00B04F" d="M10.6,19.5c-0.1,0.1-0.3,0.2-0.4,0.2c-0.1,0.1-0.3,0.2-0.3,0.3
		c0.1,0,0.1,0,0.1,0.1c0,0,0,0,0,0c0.1,0,0.1,0,0.2-0.1c0,0,0,0,0,0l0.2-0.1c0.1,0,0,0,0.1,0l0.5-0.1c0.3-0.1,0.1,0,0.3,0
		c0.2-0.1,0,0,0.1-0.1h0.4c0.1-0.1,0.1-0.1,0.1-0.1c0.1,0,0,0.1,0.4,0c0.2-0.1,0.2,0,0.4-0.1l0.3-0.1c0.1,0,0,0,0.2,0l0.3,0v-0.1
		h0.4c0-0.2-0.1,0,0-0.1c0.1,0.1,0,0,0.1,0c0.1,0,0,0,0.1,0c0,0,0,0,0,0l0.3-0.1c0.1,0,0.2,0,0.3,0c0.2-0.1,0.1,0,0.2-0.1l-0.5-0.2
		l-0.1,0c-0.1,0-0.1,0-0.2,0l-0.1,0c-0.2,0.1-0.2,0-0.4,0.1l-0.1,0c0,0,0,0,0,0c-0.1,0-0.1,0-0.2,0l-0.8,0.2c-0.3,0.1-0.2,0-0.4,0
		c0,0,0,0,0,0l0,0c-0.1,0.1-0.2,0-0.4,0.1l-0.5,0.1c0,0,0,0,0,0c-0.3,0.1-0.1,0-0.4,0.1C10.7,19.6,10.6,19.6,10.6,19.5
		C10.6,19.5,10.6,19.5,10.6,19.5L10.6,19.5z"/>
	<path fill-rule="evenodd" clip-rule="evenodd" fill="#00B04F" d="M27.4,26.2l0.3-0.1c0-0.2,0-0.1-0.1-0.2l-0.4-0.4
		c-0.1-0.1-0.1-0.1-0.2-0.2c-0.1-0.2,0,0-0.2-0.2c0-0.1-0.1-0.1-0.2-0.1c0,0.1,0.1,0.1,0,0.1c-0.1,0-0.1,0-0.1-0.1l-0.3-0.3
		c0,0,0,0,0.1,0c0.2,0-0.1,0.1,0,0c-0.2-0.2-0.4-0.1-0.5-0.2l-0.1-0.1c0-0.1,0,0,0-0.1c0.2,0,0,0.1,0.3,0.1
		c-0.1-0.1-0.3-0.3-0.5-0.5c0,0,0,0-0.1-0.1c-0.1-0.2-0.4-0.2-0.4-0.4c-0.1-0.1-0.3-0.1-0.4-0.1c0,0-0.1,0-0.1,0l-0.1,0
		c-0.1,0-0.2,0-0.3,0c0,0.1,0.1,0-0.1,0.1l0.2,0c0,0,0,0,0,0.1c0.1,0,0.1,0,0.2,0c0.1,0.1,0.2,0.2,0.3,0.2c0,0,0,0-0.1,0.1
		c0,0.1,0,0,0,0c0.1,0,0-0.1,0.1,0c0,0.1,0,0-0.1,0.1c0.2,0,0.1,0.2,0.4,0.2l0,0.2c0.3,0,0,0,0.2,0c0,0.2,0,0.2,0.2,0.2
		c0,0.1,0,0.1,0,0.1c0.3,0,0.2,0,0.3,0l-0.1,0c0,0,0,0,0,0l0,0c0.3,0.2,0.1,0.1,0.3,0.3c0.1,0.2,0.2,0,0.3,0.1l-0.2,0
		c0,0,0,0,0.1,0.1c0.1,0.1,0,0.1,0.1,0.1c0.3,0.2,0,0.1,0.3,0.2c0.1,0,0,0,0.1,0c0,0,0.2,0.2,0.2,0.2l0,0c0,0,0,0,0,0l0.2,0.1
		c0,0.1-0.1,0.1,0,0.1C27.3,26.2,27.4,26.1,27.4,26.2L27.4,26.2L27.4,26.2z"/>
	<path fill-rule="evenodd" clip-rule="evenodd" fill="#00B04F" d="M26.2,20.9c-0.2,0-0.5,0.1-0.6,0.2c-0.2,0.1-0.5,0.2-0.6,0.3
		c0.2,0.1,0.1,0,0.2,0c0.5,0,1.2-0.1,1.7-0.1l1.2,0c0.2,0,0,0,0.4,0c0.5,0,0.2,0.1,0.3,0l0.1-0.1c0,0.1,0,0,0.1,0.1
		c0.1,0,0.1-0.1,0.2-0.2c0,0,0.1-0.1,0.1-0.1c0.1-0.1,0,0,0.1-0.1c0-0.1,0,0,0,0c-0.1,0-0.5,0-0.6,0c-0.2,0-2,0.1-2.1,0.1
		c0,0,0,0,0,0C26.3,21,26.3,20.9,26.2,20.9L26.2,20.9z"/>
	<path fill-rule="evenodd" clip-rule="evenodd" fill="#00B04F" d="M16.8,16.9c0,0.1,0.1,0.2,0.2,0.3l0.1,0.3c0,0,0,0,0,0
		c0-0.1,0-0.1,0.1-0.1c0,0,0,0,0,0c0,0,0,0,0,0c0,0,0,0,0,0c0.2,0,0.1,0,0.1-0.1c0.1-0.1,0,0,0.1,0c0-0.1,0-0.1-0.1-0.2
		c0,0,0.1,0.1,0.2,0c0.2-0.1,0,0,0.3,0c0.1-0.1-0.1,0,0-0.1c0.1,0,0,0,0.2,0c0-0.2-0.1-0.1,0-0.2c0,0,0,0,0.1,0c0.1,0,0.1,0,0.1,0
		c0.2,0,0.2-0.1,0.4-0.1c0,0,0-0.1,0.1-0.1c0,0,0.1,0,0.1-0.1c0.1,0.1,0,0,0.1,0.1c0-0.3-0.1-0.5-0.2-0.7c-0.1,0-0.1,0-0.1,0
		c-0.1,0.1,0,0-0.1,0.1l-0.1,0.1c-0.1,0-0.1,0.1-0.2,0.1L18,16.4c-0.1,0-0.1,0-0.1,0c0,0,0,0-0.1,0.1c-0.1,0,0-0.1-0.1,0.1
		c-0.1,0.1-0.1,0.1-0.2,0.1c-0.1,0.1,0,0.1-0.3,0.2c-0.1,0-0.1,0-0.3,0.1L16.8,16.9C16.8,16.9,16.8,17,16.8,16.9L16.8,16.9z"/>
	<path fill-rule="evenodd" clip-rule="evenodd" fill="#00B04F" d="M14.4,15.2l0.1,0.5l0.2-0.1c0,0,0-0.1,0-0.1
		c0.3-0.2,0.4-0.1,0.6-0.3l0,0c0.1-0.1,0.1,0,0.4-0.2c0.2-0.1,0.1,0,0.3-0.1c0.2-0.1,0.1,0,0.3,0c0-0.1,0,0-0.1-0.1c0,0,0.1,0,0.1,0
		c0.1,0,0.1,0,0.1-0.1l0.3-0.1c0.1,0,0.1,0.1,0.2-0.1c0.1,0,0.1,0.2,0.1,0c0-0.1-0.1,0,0-0.1l0.1,0c0,0,0,0,0,0l0.2-0.1
		c0.2-0.1,0.2,0,0.2-0.1c0,0,0,0.1,0,0.1l-0.2,0.1l0,0.1c0.2,0,0.1,0,0.2-0.1c0.1,0,0,0,0.1,0c0,0,0,0,0,0c0,0,0,0,0,0l0,0
		c0-0.1-0.4-0.3-0.5-0.4l-0.3,0.2c-0.3,0.2-0.3,0.1-0.5,0.2c0,0,0,0,0,0l-0.2,0.1L16,14.5c-0.2,0.1-0.2,0.1-0.3,0.1l-0.1,0.1
		c0,0,0,0,0,0c0,0-0.1,0.1-0.1,0.1c-0.1,0,0,0-0.1,0c-0.1,0-0.1,0-0.2,0.1C15,15,14.9,15,14.8,15c0,0,0,0,0,0
		C14.7,15.1,14.6,15.2,14.4,15.2L14.4,15.2z"/>
	<path fill-rule="evenodd" clip-rule="evenodd" fill="#00B04F" d="M9.9,20C9.8,20,9.9,20,9.9,20C9.8,20.1,9.8,20.1,9.9,20
		c-0.1,0.1-0.1,0.1-0.2,0.1c0,0.1,0.2,0.2,0.3,0.3c0.1-0.1,0,0,0.1-0.1c0.4-0.1,0-0.1,0.3-0.1c0.2,0,0.5-0.1,0.7-0.1
		c0.1,0,0.1,0,0.2,0c0.3,0,0.2,0,0.3-0.1l0.2-0.1c0,0,0.1,0,0.1,0c0.2,0,0.1,0,0.2-0.1l0.4-0.1c0.4-0.1,0.4-0.1,0.5-0.1l0.3-0.1
		c0.1,0,0.4-0.1,0.5-0.1l0.3-0.1c0.1,0,0.2,0,0.3-0.1l0.2-0.1c0.2-0.1,0.4,0,0.4-0.1C15.2,19.1,15,19,14.9,19c-0.1,0.1,0,0-0.2,0.1
		c-0.1,0-0.2,0-0.3,0L14,19.2c0,0,0,0,0,0c0,0,0,0-0.1,0c-0.2,0,0,0-0.1,0c-0.1,0.1,0-0.1,0,0.1h-0.4v0.1l-0.3,0c-0.2,0-0.1,0-0.2,0
		l-0.3,0.1c-0.1,0-0.2,0-0.4,0.1c-0.4,0.1-0.3,0.1-0.4,0c0,0,0,0-0.1,0.1h-0.4c-0.1,0.1,0.1,0.1-0.1,0.1c-0.2,0.1,0,0-0.3,0L10.6,20
		c-0.1,0-0.1,0-0.1,0L10.3,20c0,0,0,0,0,0c-0.1,0-0.2,0-0.2,0.1c0,0,0,0,0,0C9.9,20,9.9,20,9.9,20L9.9,20z"/>
	<path fill-rule="evenodd" clip-rule="evenodd" fill="#00B04F" d="M22.1,17.2c0.3,0,0.1,0,0.3,0.1l0.6,0c0.1,0,0.2,0,0.3,0l0,0.1
		c0.2,0,0.2,0,0.2,0c0.1,0,0.1,0,0.2,0c0.2,0,0.3,0,0.5,0c0,0,0,0,0,0c0,0,0,0,0,0c0,0,0,0,0,0c0,0.1,0,0,0,0.1l0,0.3
		c0.1-0.1,0.1-0.4,0.1-0.5l0-0.3c-0.1-0.1,0.1,0.1,0-0.1c0,0,0,0-0.1-0.1l0,0.2c-0.1-0.1,0-0.1-0.2-0.1c-0.1,0-0.1,0-0.3,0
		c-0.2,0-0.6,0-0.8,0c-0.2-0.1-0.7,0-0.9-0.1L22.1,17.2L22.1,17.2z"/>
	<path fill-rule="evenodd" clip-rule="evenodd" fill="#00B04F" d="M14.4,14.6l0,0.6l0,0c0.2,0,0.3-0.1,0.4-0.2c0,0,0,0,0,0
		c0.1-0.1,0.2-0.1,0.5-0.2c0.1-0.1,0.1,0,0.2-0.1c0.1,0,0,0,0.1,0c0,0,0.1-0.1,0.1-0.1c0,0,0,0,0,0l0.1-0.1c0.1,0,0.1,0,0.3-0.1
		l0.1-0.1l0.2-0.1c0,0,0,0,0,0c0.3-0.2,0.3-0.1,0.5-0.2l0.3-0.2c0,0,0,0,0,0c-0.1-0.1-0.4-0.3-0.5-0.3l-0.1,0c0,0,0,0,0,0
		c0,0,0.2,0.1-0.2,0.1c0,0,0,0,0,0c0,0-0.1,0.1-0.1,0.1c-0.4,0.1,0,0.1-0.4,0.2c-0.2,0-0.1,0-0.2,0.1c-0.1,0-0.2,0-0.2,0
		c-0.1,0.1,0,0-0.2,0.1l-0.1,0.1c-0.3,0.2-0.1,0-0.3,0.2L14.4,14.6C14.4,14.5,14.4,14.7,14.4,14.6L14.4,14.6z"/>
	<path fill-rule="evenodd" clip-rule="evenodd" fill="#00B04F" d="M12.8,26.3l0.1-0.1C13,26,13,26.1,13,26c0.1,0,0,0.1,0.1,0.1
		c0,0,0,0,0,0c0.1-0.3,0.1-0.2,0.3-0.3c0.1-0.1-0.1,0,0.1-0.2c0.1-0.1,0.1-0.1,0.2-0.1c0-0.1,0.2-0.3,0.2-0.3c0,0,0,0,0,0
		c0,0,0,0,0,0c0.1,0,0,0,0.1,0c0.1,0,0.1,0,0.1-0.1l-0.2,0l0.1,0l0-0.1l-0.2,0l0.3-0.1c0-0.1,0-0.1-0.1-0.1c0.2-0.1,0.2-0.1,0.3-0.3
		c0.1-0.1,0.1-0.1,0.1-0.2c0,0,0.1,0,0.1-0.1c0.1-0.1,0.1-0.1,0.1-0.2c0,0,0,0,0,0c0,0,0,0,0,0c0,0,0,0,0,0c0.1-0.2,0.3-0.3,0.4-0.4
		c0-0.1,0-0.1,0-0.1l-0.1,0l-0.3,0c0.1,0,0.1,0,0.1,0.1c-0.2,0.2-0.1,0.2-0.3,0.3c0,0,0,0-0.1,0.1c-0.1-0.1,0,0,0-0.1l0-0.1
		c0,0-0.1,0-0.1,0.1c-0.1,0.1,0.1,0,0,0.1c0,0-0.1,0-0.1,0c0,0,0-0.1-0.1,0c-0.1,0.1,0,0,0,0.1c0,0,0,0,0,0.1
		c-0.2,0.2,0-0.1-0.2,0.1c-0.2,0.1-0.1,0.1-0.3,0.3l-0.2,0.2c0,0,0,0,0,0.1c0,0.1-0.1,0.1-0.1,0.1c0.1,0,0.2-0.2,0.3-0.2
		c0.1,0,0,0,0.1,0c-0.1,0,0,0-0.2,0.1l-0.2,0.2c-0.1,0,0,0-0.1-0.1c-0.2,0.2-0.1,0.2-0.3,0.3c0,0-0.1,0.1-0.1,0.1
		c-0.1,0.2-0.2,0.1-0.2,0.3c0.2-0.1,0.2-0.1,0.2-0.1c0,0.1-0.1,0.2-0.2,0.2c0,0,0,0,0,0l-0.2,0.2c0,0,0,0,0,0c0,0,0,0.1,0,0.1
		c0,0-0.1-0.1-0.2,0c0,0.1-0.1,0,0.1,0.1L12.8,26.3L12.8,26.3z"/>
	<path fill-rule="evenodd" clip-rule="evenodd" fill="#00B04F" d="M25.4,24.8c0,0.2,0.1,0.1,0.1,0.2c0,0,0,0,0.1,0
		c0,0,0.1,0,0.1,0.1c0,0,0,0,0,0c0.1-0.1,0.1,0,0.1,0.1c0.1,0.1,0.2,0.1,0.3,0.1c0,0.2,0,0.2,0.2,0.2c0,0.2,0,0.2,0.2,0.2
		c0,0.1,0,0.1,0.1,0.1c0.1,0,0.1,0,0.2,0.1c0.2,0.2,0,0.1,0,0.2l0.2,0l0,0.1l0.5-0.1l0-0.1c0,0-0.1,0-0.2,0c-0.1,0,0,0,0-0.1
		l-0.2-0.1c-0.1,0,0,0,0,0l0,0c0,0-0.2-0.2-0.2-0.2c-0.1,0,0,0-0.1,0c-0.3-0.1,0,0-0.3-0.2c-0.1-0.1,0,0-0.1-0.1c0,0,0,0-0.1-0.1
		l0.2,0c-0.1-0.1-0.2,0.1-0.3-0.1c-0.1-0.2,0.1-0.1-0.3-0.3l0,0c0,0,0,0,0,0l0.1,0c-0.1-0.1,0,0-0.3,0c0-0.1,0,0,0-0.1
		c-0.2,0-0.2,0-0.2-0.2c-0.2,0,0.1,0-0.2,0l0-0.2c-0.3,0-0.2-0.1-0.4-0.2c0.1-0.1,0.1,0,0.1-0.1c-0.1-0.1-0.1,0-0.1,0c0,0,0,0,0,0
		c0-0.1,0,0,0.1-0.1c-0.1,0-0.2-0.1-0.3-0.2c-0.1-0.1-0.1-0.1-0.2,0c0,0,0,0,0-0.1l-0.2,0c0.1,0,0.1,0,0.1-0.1c-0.3,0-0.6,0-0.8,0.1
		c0.3,0.1,0.4,0.1,1.2,0.6c0.2,0.2,0.8,0.6,1,0.8L25.4,24.8L25.4,24.8z"/>
	<path fill-rule="evenodd" clip-rule="evenodd" fill="#00B04F" d="M11.2,21.4c0.1,0.1,0.1,0.1,0.2,0.2c0.1,0,0,0,0.1,0
		c0,0,0.1,0,0.1,0.1c0.1,0.1,0.1,0.1,0.2,0.1l0-0.1c0.4,0,0.2-0.1,0.5-0.1c0,0,0.1,0,0.1,0c0.1,0,0,0,0.2-0.1c0.2,0,0.2,0,0.4-0.1
		l0.1,0c0.2,0,0.3,0,0.4-0.1c0.1,0,0,0,0.2,0c0.1,0,0.1,0,0.2,0c0.1,0,0.1,0,0.2,0l0.1,0c0,0,0,0,0,0l0,0c0,0,0,0,0,0c0,0,0,0,0,0
		l0.1,0c0.1,0,0,0,0.2,0c-0.1-0.1-0.1-0.1-0.2-0.1c-0.1,0-0.1-0.1-0.2-0.1c-0.2-0.1-0.3-0.1-0.4-0.2c-0.2,0,0,0.1-0.2,0
		c-0.1,0,0,0-0.1,0c0,0,0,0,0,0.1c0,0.1,0,0,0,0.1c-0.1,0-0.3,0-0.4,0c0.1,0.1,0.1,0,0.2,0.1c-0.1,0.1-0.3,0-0.4,0
		c-0.1,0-0.3,0-0.4,0v0.1l0.4,0c-0.1,0,0,0-0.2,0c-0.2,0.1-0.1,0-0.3,0c0,0-0.1,0-0.1,0l-0.1,0c-0.1,0-0.1,0-0.2,0.1
		c-0.2,0.1,0.1,0,0,0c-0.2-0.1-0.1,0-0.2,0l-0.2,0c0,0.1,0,0.1,0,0.1L11.2,21.4L11.2,21.4L11.2,21.4z"/>
	<path fill-rule="evenodd" clip-rule="evenodd" fill="#00B04F" d="M21.8,18.3l-0.1,0.5c0.1,0,0.1,0.1,0.1,0.2l0.2,0
		c0-0.1,0-0.1-0.2-0.1v-0.1c0.1,0,0.1,0,0.2,0c0,0,0,0,0,0c0,0,0,0,0,0c0,0,0,0,0.1,0l0.1,0c0.2,0.1,0.3,0,0.5,0c0.3,0,0.7,0.1,1,0
		c0.1-0.2,0,0.2,0.2-0.1l0,0.1c0.2-0.1,0.2-0.4,0.3-0.5l0-0.1c-0.1-0.1-0.2-0.1-0.3-0.1c-0.2,0-0.2,0-0.3,0c-0.2,0-0.2-0.1-0.5-0.1
		c-0.1,0-0.1,0-0.1,0.1c0.1,0,0.2,0,0.3,0c0.2,0,0.2,0,0.2,0.1c-0.6,0-0.8,0-1.3-0.1C22.1,18.3,21.9,18.3,21.8,18.3L21.8,18.3z"/>
	<path fill-rule="evenodd" clip-rule="evenodd" fill="#00B04F" d="M19.9,17C20,17,20,17.1,19.9,17L19.9,17c0.7,0,0.3,0.1,0.8,0.1
		c0,0,0,0,0.1,0l0.3-0.1c0.1,0,0.2,0,0.2,0c-0.1,0-0.1,0-0.2,0.1c0.2,0.1,0.6,0,0.6,0c0,0,0,0.1,0,0.2c0.1,0,0-0.1,0.1-0.2
		c0.1,0.1,0.1,0.1,0.1,0.1c0.1-0.1,0.1-0.2,0.2-0.3c0.1-0.1,0.1-0.2,0.2-0.4c-0.1,0-0.1,0.1-0.1-0.1l0,0.1c-0.1,0-0.2,0-0.3,0
		c0,0-0.1,0-0.1,0c-0.2,0,0.2,0.1,0,0c-0.1,0,0,0-0.2,0l-1.1,0c-0.2,0,0.1,0.1-0.1,0c-0.1-0.1,0,0,0,0c-0.1,0-0.1,0-0.2,0
		c0-0.1,0-0.1,0-0.1L19.9,17L19.9,17z"/>
	<path fill-rule="evenodd" clip-rule="evenodd" fill="#00B04F" d="M19.8,17.7l0,0.3c0,0,0,0,0,0c0,0,0,0,0,0c0,0,0-0.1,0-0.1L20,18
		c0,0,0,0,0,0l0,0c0,0.1,0,0.1,0.1,0.1l0.1,0c0.2,0,0.4,0,0.6,0c0.3,0.1,0,0,0.4,0c0.1,0,0.3,0.1,0.3,0c-0.3,0-0.4-0.1-0.8-0.1
		c-0.3,0-0.2,0-0.3-0.1c0-0.1,0-0.1,0.3-0.1c0.1,0,0.2,0,0.3,0c0.2,0,0.4,0,0.6,0c0,0.2,0,0-0.1,0.1c0,0,0,0,0.1,0l0,0.1
		c0.1-0.1,0.4-0.8,0.4-0.9c-0.1,0-0.1,0-0.3,0c-0.2,0-1.6-0.1-1.6-0.2C19.9,17.4,19.9,17.6,19.8,17.7L19.8,17.7z"/>
	<path fill-rule="evenodd" clip-rule="evenodd" fill="#00B04F" d="M20.7,14.9c0,0,0,0.1,0.1,0.1c0.1,0,0-0.1,0.1,0
		c0.5,0,0.8,0,1.3,0.1c0.2,0,0.5,0,0.7,0c0.1,0,0.1,0.1,0.3,0.1c0.1,0,0.3,0,0.4,0l0.1,0.1l0.8,0l0-0.1l-0.1-0.3c-0.2,0-0.4,0-0.6,0
		c-0.1,0,0,0-0.1,0c-0.2,0-0.3,0-0.5,0c-0.1,0-0.5-0.1-0.7,0c-0.1,0-0.2,0-0.3,0c-0.2,0,0,0-0.2-0.1c-0.5-0.1-0.6,0.1-1-0.1l-0.1,0
		c-0.1,0,0,0-0.1,0c0,0,0,0,0,0c-0.1-0.1,0,0,0-0.1C20.8,14.6,20.7,14.8,20.7,14.9L20.7,14.9z"/>
	<path fill-rule="evenodd" clip-rule="evenodd" fill="#00B04F" d="M16.6,16.5l0.2,0.5c0.1,0,0,0,0,0.1l0.1-0.1
		c0.1-0.1,0.2-0.1,0.3-0.1c0.3-0.1,0.2-0.1,0.3-0.2c0.1,0,0.1,0,0.2-0.1c0.1-0.1,0,0,0.1-0.1c0,0,0,0,0.1-0.1c0,0,0,0,0.1,0l0.3-0.1
		c0.1,0,0.1-0.1,0.2-0.1l0.1-0.1c0.1-0.1,0,0,0.1-0.1c0.1,0,0.1,0,0.1,0c-0.1-0.2-0.2-0.4-0.3-0.5c-0.2,0-0.2,0.1-0.4,0.1
		c-0.1,0,0,0-0.1,0c0,0,0,0-0.1,0.1l-0.3,0.1c-0.1,0.1,0,0-0.1,0.1c-0.1,0.1-0.1,0-0.3,0.1c-0.1,0.1-0.1,0.1-0.2,0.1
		c-0.1,0,0,0-0.1,0c-0.3,0.1-0.2,0.1-0.3,0.1C16.6,16.4,16.7,16.4,16.6,16.5L16.6,16.5z"/>
	<path fill-rule="evenodd" clip-rule="evenodd" fill="#00B04F" d="M14.5,15.8l0,0.2c0.1,0.1,0.1,0.1,0.1,0l0,0c0-0.2,0,0,0,0
		c0.1,0,0.2,0,0.4-0.1c0.2,0,0,0,0.1-0.1c0.2-0.1,0.2-0.1,0.4-0.2c0,0,0.2-0.1,0.2-0.1c0-0.1,0,0,0,0c0.1,0,0.2-0.1,0.3-0.1l0.1-0.1
		c0,0,0.1,0,0.1-0.1c0.1-0.1,0.1,0,0.3-0.1c0.2-0.2,0.1,0,0.4-0.2l0.1,0c0,0,0,0,0,0c0.1-0.1,0.1,0,0.2,0c0.2,0,0,0,0.3-0.2
		c0.3-0.1,0.3-0.1,0.3-0.2c0,0.1,0.1,0.1,0.1,0c0-0.1,0,0-0.1-0.1c0,0,0,0,0,0c0,0,0,0-0.1,0l0,0c0,0,0,0,0,0c0,0,0,0,0,0
		c-0.1,0-0.1,0-0.1,0c-0.1,0,0,0-0.2,0.1l0-0.1l0.2-0.1c0,0,0-0.1,0-0.1c0,0.1,0.1,0-0.2,0.1l-0.2,0.1c0,0,0,0,0,0l-0.1,0
		c-0.1,0.1,0.1,0,0,0.1c0,0.1-0.1,0-0.1,0c-0.1,0.1-0.1,0-0.2,0.1l-0.3,0.1c-0.1,0,0,0-0.1,0.1c0,0-0.1,0-0.1,0
		c0.1,0.1,0.1,0,0.1,0.1c-0.2,0-0.2-0.1-0.3,0c-0.2,0.1-0.1,0-0.3,0.1c-0.3,0.1-0.2,0.1-0.4,0.2l0,0c-0.2,0.1-0.3,0.1-0.6,0.3
		c0,0,0,0.1,0,0.1L14.5,15.8L14.5,15.8z"/>
	<path fill-rule="evenodd" clip-rule="evenodd" fill="#00B04F" d="M14.4,13.9l0,0.7c0.1,0.1,0-0.1,0.1,0.1l0.2-0.1
		c0.3-0.2,0.1,0,0.3-0.2l0.1-0.1c0.2-0.1,0.1-0.1,0.2-0.1c0.1,0,0.1,0,0.2,0c0-0.1,0-0.1,0.2-0.1c0.4-0.1,0-0.1,0.4-0.2
		c0.1,0,0.1-0.1,0.1-0.1c0,0,0,0,0,0c0.4,0,0.2,0,0.2-0.1c0,0,0,0,0,0l0.1,0c-0.1-0.1-0.6-0.4-0.7-0.4c-0.1,0,0,0-0.1,0.1
		c0,0,0,0,0,0c-0.1,0-0.1,0,0,0.1c0.1,0.2,0-0.1,0,0c-0.1,0-0.1,0.1-0.3,0.1c-0.1-0.1-0.1-0.1-0.3-0.1c0.1,0,0.1,0,0.1,0.1
		c0,0.1,0,0-0.1,0.1c-0.1,0.1-0.1,0.1-0.1,0.1c-0.3,0.1-0.1-0.1-0.4,0.2l-0.2,0l0-0.1c0,0,0-0.1,0-0.1L14.4,13.9
		C14.4,13.9,14.5,13.9,14.4,13.9L14.4,13.9z"/>
	<path fill-rule="evenodd" clip-rule="evenodd" fill="#00B04F" d="M15,17.7c0.1,0.1,0.2,0.4,0.3,0.5c0.1,0,0.1,0,0-0.1l0.1,0.1
		c0.5,0,0.2-0.1,0.6-0.1c0-0.1,0-0.1,0.2-0.2c0.3-0.1,0.1,0,0.3-0.1c-0.1-0.1,0-0.1-0.1-0.1c0.1,0,0.1-0.1,0.2-0.2
		c0.1,0.1,0,0,0.1,0.1l-0.1-0.7c-0.1,0.1,0,0-0.1,0.1l0-0.1c0,0,0,0,0,0.1c0,0-0.1,0.2-0.2,0.2c-0.1,0,0,0-0.1,0
		c-0.2,0.2-0.2,0.1-0.3,0.2l-0.2,0.1c-0.1,0.1,0,0-0.1,0.1c-0.3,0.1-0.3,0.1-0.4,0.2L15,17.7L15,17.7z"/>
	<path fill-rule="evenodd" clip-rule="evenodd" fill="#00B04F" d="M25.9,26.3c0.1,0.1,0.6,0,0.8,0c-0.1,0-0.1,0-0.2-0.1L26,25.8
		c-0.1-0.1-0.1-0.1-0.2-0.2c-0.1,0,0,0-0.1,0l-0.1,0c0-0.2,0,0,0-0.1c-0.1,0-0.1-0.1-0.1-0.1c-0.1,0,0.1,0-0.1,0.1c0-0.2,0,0,0-0.1
		c-0.1,0-0.1,0-0.1-0.1c0,0,0,0-0.1,0.1c0.1-0.3,0-0.1-0.1-0.2c-0.1,0,0.1,0-0.1,0c0-0.1,0-0.1,0-0.1c-0.1,0-0.1,0-0.1,0l0,0
		c0.1-0.1,0,0,0.1-0.1c0,0-0.1,0.1-0.2-0.1c-0.1,0-0.1,0.1-0.2,0c0.1,0,0.1-0.1,0.2,0c0,0,0,0,0,0l0-0.1c0-0.1-1-0.4-1.2-0.5
		c0,0.1,0.1,0.1,0.1,0.1c0,0,0,0,0,0c0,0,0,0,0,0l0.3,0.3c0.2,0.2,0.1,0.1,0.2,0.2l0.1,0.1c0.1,0.1,0.1,0,0.1,0c0.1,0.1,0,0,0,0
		c0,0.1,0.1,0.2,0.2,0.2c0,0.1,0,0,0,0.1c0,0.1,0.2,0.1,0.2,0.1l0,0c0.1,0,0,0,0,0c0,0.1,0.1,0.1,0.1,0.2c0.1,0.1,0.2,0.2,0.2,0.2
		l0-0.1c0,0,0,0,0,0c0,0.1,0,0,0,0.1c0,0,0,0,0,0c0,0,0,0,0,0c0,0,0,0,0,0c0,0.1,0.1,0.1,0.2,0.2c0.1,0.1,0,0.1,0.1,0.1
		c0,0,0.1,0,0.1,0.1c0.1,0.1,0.1,0.1,0.2,0.2L25.9,26.3L25.9,26.3z"/>
	<path fill-rule="evenodd" clip-rule="evenodd" fill="#00B04F" d="M11.8,21.8c0.1,0.1,0.5,0.3,0.7,0.3c0,0,0,0,0,0l0-0.1
		c0.1,0,0,0,0.1-0.1l0.4-0.1c0.1,0,0.3,0,0.6-0.1c0.2-0.1,0.1,0,0.3-0.1l0.2,0c0,0,0,0,0,0l0.2,0c0.2-0.1,0.5-0.1,0.7-0.2
		c0.1,0,0.1,0,0.2,0c0,0,0,0,0,0c0,0,0,0,0,0c0-0.1,0,0,0-0.1c-0.1-0.1-0.3-0.1-0.4-0.1c-0.1,0-0.1,0-0.2,0l-0.1,0c0,0,0,0,0,0
		c0,0,0,0,0,0l0,0c0,0,0,0,0,0l-0.1,0c-0.1,0-0.1,0-0.2,0c-0.1,0-0.1,0-0.2,0c-0.1,0-0.1,0-0.2,0c-0.1,0.1-0.2,0.1-0.4,0.1l-0.1,0
		c-0.2,0.1-0.2,0-0.4,0.1c-0.2,0-0.1,0-0.2,0.1c0,0-0.1,0-0.1,0c-0.3,0-0.1,0.1-0.5,0.1L11.8,21.8L11.8,21.8z"/>
	<path fill-rule="evenodd" clip-rule="evenodd" fill="#00B04F" d="M21.7,19.4c0.1,0,0.1,0,0.1-0.1c0,0,0,0,0,0l0.1,0.1
		c0,0,0.1,0,0.2,0c0.3,0.1,0.2,0,0.6,0c0.2,0,0.3,0,0.5,0c0.1,0,0.2,0,0.2,0l0.2,0l0,0.1c0.1-0.1,0.2-0.2,0.2-0.3
		c0,0,0.1-0.1,0.1-0.1c0-0.1,0.1-0.1,0.1-0.2l0-0.1c-0.2,0.2,0-0.1-0.2,0.1c-0.3,0-0.7-0.1-1,0c-0.2,0-0.3,0.1-0.5,0l-0.1,0
		c0,0,0,0-0.1,0c0,0,0,0,0,0c0,0,0,0,0,0c-0.1,0-0.1,0-0.2,0v0.1c0.2,0,0.2,0,0.2,0.1l-0.2,0c0-0.1,0-0.2-0.1-0.2L21.7,19.4
		L21.7,19.4z"/>
	<path fill-rule="evenodd" clip-rule="evenodd" fill="#00B04F" d="M20.9,14.5C20.9,14.6,20.8,14.5,20.9,14.5c0,0.1,0.1,0.1,0.1,0.1
		c0.1,0.1,0,0,0.1,0l0.1,0c0.4,0.2,0.4,0,1,0.1c0.2,0,0,0,0.2,0.1c0.1,0,0.2,0,0.3,0c0.2,0,0.5,0,0.7,0c0.1,0,0.3,0,0.5,0
		c0.1,0,0.1,0,0.1,0c0.1,0,0.4,0,0.6,0l-0.1-0.3L23,14.5c-0.1,0-0.2,0-0.2,0c-0.2,0,0,0-0.1,0c-0.1,0-0.3,0-0.4,0
		c-0.2,0-1-0.1-1.2-0.1L21,14.3C20.9,14.3,20.9,14.4,20.9,14.5L20.9,14.5z"/>
	<path fill-rule="evenodd" clip-rule="evenodd" fill="#00B04F" d="M27.8,26.1c0,0,0.1,0,0.1,0C28,26,28,26,28,25.9
		c-0.1-0.1-0.3-0.5-0.4-0.6l-0.1,0c0,0,0,0,0,0c0,0,0,0,0,0c0,0,0,0,0,0l0-0.1c-0.1,0-0.1,0-0.1,0c0-0.1,0-0.1-0.1-0.1l0,0
		c-0.2-0.2-0.1-0.1-0.2-0.2c0,0,0,0-0.1-0.1c0-0.1,0,0-0.1-0.1c-0.1-0.1,0-0.1-0.2-0.2c-0.3-0.2-0.2-0.2-0.4-0.4
		c-0.2-0.2-0.2-0.2-0.2-0.1c0-0.2,0,0-0.1-0.2c-0.1-0.1-0.5-0.2-0.7-0.3c0,0.2,0.2,0.2,0.4,0.4c0,0,0,0.1,0.1,0.1
		c0.1,0.1,0.4,0.3,0.5,0.5c-0.3,0-0.1-0.1-0.3-0.1c0,0.1,0,0,0,0.1l0.1,0.1c0.1,0.1,0.3,0,0.5,0.2c-0.1,0.1,0.1,0,0,0c0,0,0,0-0.1,0
		l0.3,0.3c0.1,0.1,0,0.1,0.1,0.1c0.1,0,0,0,0-0.1c0.1,0,0.1,0.1,0.2,0.1c0.2,0.2,0.1,0,0.2,0.2c0.1,0.1,0,0,0.2,0.2l0.4,0.4
		C27.8,26,27.7,25.9,27.8,26.1L27.8,26.1z"/>
	<path fill-rule="evenodd" clip-rule="evenodd" fill="#00B04F" d="M23.7,24.6c0,0,0,0,0-0.1L23.7,24.6c0.1,0,0-0.1,0.2,0
		C23.8,24.7,23.9,24.6,23.7,24.6c0.2,0.1,0.2,0.2,0.3,0.3c0-0.1,0-0.1,0.1-0.1c0.1,0.1,0,0,0.1,0.1l0.2,0.3c0,0,0,0,0,0c0,0,0,0,0,0
		c0,0,0.1,0,0.1,0.1c0,0,0,0,0,0l0,0.1c0,0,0,0,0,0.1c0.1,0.1,0,0,0.1,0l0,0c0.1,0,0,0,0,0c0.1,0.1-0.1,0,0.1,0.1c0.1,0.1,0,0,0.2,0
		c0,0.2-0.1,0,0,0.2c0.1,0.1,0.1,0,0.2,0c0,0,0,0,0,0.1l0,0.1c0,0.1,0.1,0.1,0.2,0.2c0.1,0.1,0.1,0,0.1,0.1l-0.2,0c0,0,0,0,0.1,0
		c0,0,0,0,0.1,0c0.1,0,0.3,0.1,0.5,0.1l0.1,0c-0.1,0-0.1-0.1-0.2-0.2c0,0-0.1-0.1-0.1-0.1c-0.1,0,0,0-0.1-0.1
		c-0.1-0.1-0.2-0.1-0.2-0.2c0,0,0,0,0,0c0,0,0,0,0,0c0,0,0,0,0,0c0-0.1,0,0,0-0.1c0,0,0,0,0,0l0,0.1c-0.1-0.1-0.2-0.2-0.2-0.2
		c-0.1-0.1-0.1,0-0.1-0.2c0-0.1,0.1,0,0,0l0,0c0,0-0.2,0-0.2-0.1c0-0.1,0,0,0-0.1c-0.1,0-0.2-0.1-0.2-0.2c0-0.1,0.1,0,0,0
		c0,0,0,0.1-0.1,0l-0.1-0.1c-0.1-0.1,0,0-0.2-0.2l-0.3-0.3c0,0,0,0,0,0c0,0,0,0,0,0c0,0,0,0-0.1-0.1l-0.3-0.1c0,0.1,0.1,0.2,0.1,0.3
		C23.5,24.4,23.6,24.5,23.7,24.6L23.7,24.6z"/>
	<path fill-rule="evenodd" clip-rule="evenodd" fill="#00B04F" d="M13.9,20.7c0.5,0.1,1.1,0.2,1.6,0.3c-0.3,0,0.1-0.1-0.2-0.1
		l0.1-0.1c0.1,0,0.2,0,0.3,0c0,0,0,0.1,0.2,0c0.2,0,0,0,0.1-0.1c0.1-0.1,0.3-0.1,0.4-0.1c0.2,0,0.1,0,0.2-0.1c0,0,0.1,0,0.1,0
		c0-0.2,0-0.2,0.1-0.1c0,0,0-0.1-0.1-0.1c0,0,0,0,0,0c0,0,0,0-0.1,0c-0.3-0.2-0.3,0-0.4,0c-0.2,0-0.5-0.1-0.6,0l0,0.1
		c-0.1,0-0.1-0.1-0.2,0l-0.2,0c0,0,0,0,0,0l-0.2,0c-0.1,0,0,0-0.1,0c0,0-0.1,0-0.1,0c0,0,0,0.1,0.2,0c0,0,0,0-0.1,0
		c-0.1,0-0.3-0.1-0.5,0c-0.2,0.1,0,0-0.2,0C14,20.6,14,20.7,13.9,20.7C13.9,20.7,13.9,20.7,13.9,20.7C13.9,20.7,13.9,20.6,13.9,20.7
		L13.9,20.7z"/>
	<path fill-rule="evenodd" clip-rule="evenodd" fill="#00B04F" d="M10.9,19.3C10.9,19.4,10.9,19.4,10.9,19.3
		c-0.1,0.1-0.1,0.1-0.2,0.1l-0.2,0.1c0,0,0,0,0,0c0,0,0.1,0.1,0.2,0c0.3-0.1,0.1,0,0.4-0.1c0,0,0,0,0,0l0.5-0.1c0.1,0,0.3,0,0.4-0.1
		l0,0c0,0,0,0,0,0c0.2-0.1,0.1,0,0.4,0l0.8-0.2c0.1,0,0.1,0,0.2,0c0,0,0,0,0,0l0.1,0c0.3-0.1,0.2,0,0.4-0.1l0.1,0c0.1,0,0.1,0,0.2,0
		c-0.3,0-0.6-0.1-0.9-0.1c-0.6,0-1.2,0.1-1.8,0.3C11.5,19.1,11,19.3,10.9,19.3L10.9,19.3z"/>
	<path fill-rule="evenodd" clip-rule="evenodd" fill="#00B04F" d="M13.8,22.5c0.4,0.1,1.4,0,1.8-0.1c0.3-0.1,1.3-0.4,1.4-0.6
		c-0.2,0-0.6,0-0.8,0l0,0.1c0,0-0.3,0-0.4,0c0,0,0,0,0,0l-0.1,0c0,0,0,0,0,0l-0.7,0.2c-0.1,0-0.1,0-0.2,0c-0.5,0-0.1,0-0.4,0.1
		c-0.1,0-0.2,0-0.4,0c-0.2,0.1-0.1,0-0.4,0.1c0,0,0,0,0,0l-0.1,0C13.8,22.4,13.8,22.4,13.8,22.5L13.8,22.5z"/>
	<path fill-rule="evenodd" clip-rule="evenodd" fill="#00B04F" d="M17.7,18.6c0,0.1,0.1,0.2,0.2,0.4c0.1,0,0.1,0.2,0.2,0.3l0,0
		c0.1,0,0,0,0,0c0,0,0.1-0.1,0.3,0c0.1,0,0,0,0,0c0.1,0,0.1,0,0.2,0l0.1-0.1c0,0,0.1-0.1,0.1-0.1c0,0,0,0-0.1,0c0,0,0,0-0.1,0
		c0.2,0,0.1,0,0.2-0.1c0.1,0.1,0.1,0,0.3,0l0,0.1l0-0.2l0.1-0.4c0-0.1,0-0.1,0-0.2l0-0.1c0,0,0,0,0,0l-0.1,0
		c-0.2,0.1-0.1,0.1-0.2,0.1c0,0-0.3,0.1-0.4,0.1c-0.5,0-0.1-0.1-0.4,0c-0.1,0.1-0.1,0-0.2,0.1C17.7,18.5,17.7,18.5,17.7,18.6
		L17.7,18.6z"/>
	<path fill-rule="evenodd" clip-rule="evenodd" fill="#00B04F" d="M14.9,17.3l0.1,0.1l0.1,0.3l0.2,0c0.1,0,0.1-0.1,0.4-0.2
		c0.1,0,0,0,0.1-0.1l0.2-0.1c0.1-0.1,0.1,0,0.3-0.2c0.1-0.1,0,0,0.1,0c0.1,0,0.2-0.2,0.2-0.2c0.1-0.1,0-0.1,0-0.1l0,0.1
		c0.1-0.1,0,0,0.1-0.1l-0.1-0.4c-0.1-0.1-0.2,0-0.4,0.1c-0.2,0.1-0.1,0-0.3,0.1l-0.1,0c-0.1,0.1-0.2,0.1-0.3,0.1
		c-0.2,0-0.1,0-0.2,0.1c-0.1,0-0.1,0.1-0.2,0.1C14.9,17.3,14.9,17.3,14.9,17.3C14.9,17.3,14.9,17.3,14.9,17.3L14.9,17.3z"/>
	<path fill-rule="evenodd" clip-rule="evenodd" fill="#00B04F" d="M24.1,22.7c0.3,0.2,1.2,0.3,1.6,0.3c0.4,0,1.3-0.2,1.5-0.4
		c0-0.1,0,0,0-0.1c-0.1,0-0.7,0-0.8,0c-0.2,0.1-0.2,0-0.4,0l-1.3,0c-0.2,0-0.2,0-0.4,0C24.3,22.6,24.2,22.6,24.1,22.7L24.1,22.7
		L24.1,22.7C24.1,22.7,24.1,22.7,24.1,22.7L24.1,22.7z"/>
	<path fill-rule="evenodd" clip-rule="evenodd" fill="#00B04F" d="M21.2,14c-0.1,0.1-0.1,0.2-0.2,0.3l0.1,0.1c0.2-0.1,1,0.1,1.2,0.1
		c0.1,0,0.3,0,0.4,0c0.1,0,0,0,0.1,0c0.1,0,0.2,0,0.2,0l1.2,0.1c0-0.1-0.1-0.4-0.2-0.4c0,0,0,0,0-0.1l0,0.1c-0.2-0.1-0.5,0-0.5,0
		c-0.1,0-0.8,0-1,0v0c0.3,0,0.4,0,0.6,0l-1.6,0C21.4,14,21.6,14,21.4,14C21.3,14,21.3,14,21.2,14C21.2,14.2,21.3,14,21.2,14
		C21.2,14,21.2,14.1,21.2,14L21.2,14z"/>
	<path fill-rule="evenodd" clip-rule="evenodd" fill="#00B04F" d="M21.9,17.9c0.1-0.1,0-0.1,0.3,0c0.2,0,0.5,0.1,0.7,0
		c0.1,0,0.2,0,0.2,0c0,0,0,0,0,0l0,0c0.2,0.1,0.5,0,0.9,0c0.1,0,0.2,0,0.3,0.1c0,0,0,0,0,0c0,0,0,0,0,0l0.1-0.4l0-0.1c0,0,0.1,0,0,0
		L23,17.5c-0.2,0,0,0-0.1,0c-0.1,0-0.1,0-0.3,0L22,17.4L21.9,17.9L21.9,17.9z"/>
	<path fill-rule="evenodd" clip-rule="evenodd" fill="#00B04F" d="M21.6,20.9l0.1-0.1l0-0.3c0.1,0.1,0.2,0,0.4,0c0.2,0,0,0,0.2,0
		c0.2,0,0.1-0.1,0.1,0.1c0,0,0,0,0,0c0,0.1,0-0.1,0.1-0.1c0,0,0,0,0,0.1c0,0,0,0,0,0.1c0.1,0,0.1,0,0.2-0.1l0,0.1
		c0.1-0.1,0.5-0.4,0.6-0.6c0.1-0.1,0.1-0.1,0.1-0.1c0-0.1-0.1-0.1-0.1,0c-0.2,0.1,0.1,0,0,0c-0.1,0-0.2,0-0.4,0
		c-0.3,0-0.2,0-0.3-0.1c-0.2,0-0.5,0-0.8,0L21.6,20.9L21.6,20.9z"/>
	<path fill-rule="evenodd" clip-rule="evenodd" fill="#00B04F" d="M21.7,13.3l-0.1,0.2c0.3,0,0.4,0,0.6,0c0.1,0,0.3,0,0.4,0
		c0-0.1,0.1-0.1-0.3-0.1c-0.1,0-0.2,0-0.4,0l0-0.1c0.2,0,0.3,0,0.4,0c0.1,0,0.3,0,0.4,0c0,0.2,0,0.2,0.2,0.2c0,0,0,0,0,0
		c0,0.1,0,0,0-0.1c0.2,0,0.5,0,0.6,0c0,0.2-0.1,0.1,0.2,0.1c0-0.1-0.1-0.2-0.1-0.3c-0.1-0.1-0.1-0.2-0.2-0.3c0,0.1,0,0,0,0.1
		c-0.2-0.2-0.9-0.1-1.1-0.2c0,0,0,0,0,0c-0.1,0-0.1,0-0.2,0l0-0.1c-0.1,0,0,0-0.1,0.1L21.7,13.3L21.7,13.3z"/>
	<path fill-rule="evenodd" clip-rule="evenodd" fill="#00B04F" d="M25.5,19.4c0.2,0,2.5-0.1,2.9-0.1c0.2,0,0.3,0,0.4,0
		c0.2,0,0.3,0,0.4,0.1c0,0,0,0,0-0.1l0.1,0v0c-0.3,0-1.7-0.5-3.4,0c-0.1,0-0.1,0-0.2,0.1C25.6,19.3,25.5,19.3,25.5,19.4L25.5,19.4z"
		/>
	<path fill-rule="evenodd" clip-rule="evenodd" fill="#00B04F" d="M19.9,18.6c0,0.2,0,0.5,0.1,0.7c0-0.1,0-0.1,0.3-0.1
		c0.2,0,0.1,0.1,0.3,0.1c0.2,0,0.1,0,0.3,0c0,0,0,0,0,0l0,0l0.1-0.1l0,0.1c0,0,0,0,0,0c0,0,0,0,0,0c0.1-0.1,0.2-0.5,0.3-0.7
		c-0.6,0-0.7,0-1.1-0.1c0,0-0.1,0-0.1,0l-0.1,0c-0.1,0,0,0.2-0.1,0c0,0,0,0,0,0l0-0.3L19.9,18.6L19.9,18.6z"/>
	<path fill-rule="evenodd" clip-rule="evenodd" fill="#00B04F" d="M17.2,17.8l0.2,0.4l0.1,0c0-0.1,0,0,0-0.1c0.1,0,0.1,0,0.2,0
		c0.3-0.1,0.2-0.1,0.5-0.2l0.2-0.1c0.1,0,0,0,0.1,0c0.1,0,0,0,0.1-0.1c0,0,0,0,0.1,0c0.1,0,0,0,0.1-0.1c0.1,0,0.4-0.2,0.5-0.2l0,0.2
		l0-0.5c0,0,0,0,0-0.1c0,0-0.1,0-0.1,0l0,0c-0.1,0,0.1-0.1-0.1,0l-0.5,0.2c-0.1,0.1-0.1,0.1-0.2,0.1c-0.1,0-0.2,0.1-0.3,0.1
		c0,0,0,0-0.1,0l-0.2,0.1c0,0-0.1,0-0.1,0c-0.1,0,0.1,0,0,0C17.5,17.7,17.4,17.9,17.2,17.8L17.2,17.8z"/>
	<path fill-rule="evenodd" clip-rule="evenodd" fill="#00B04F" d="M21.9,17.9l-0.1,0.4c0.1,0,0.3,0,0.4,0c0.5,0,0.7,0.1,1.3,0.1
		c-0.1-0.1-0.1-0.1-0.2-0.1c-0.1,0-0.2,0-0.3,0c0-0.1,0-0.1,0.1-0.1c0.3,0,0.4,0.1,0.5,0.1c0.2,0,0.2,0,0.3,0c0.1,0,0.3,0,0.3,0.1
		c0,0,0,0,0,0c0,0,0,0,0,0c0.1-0.1,0-0.1,0.1-0.2c0,0,0,0,0,0c0,0,0,0,0,0C24.2,17.9,24.1,18,24,18c-0.4-0.1-0.7,0-0.9,0l0,0
		c0,0,0,0,0,0c-0.1,0-0.1,0-0.2,0c-0.2,0-0.5,0-0.7,0C21.9,17.8,22,17.8,21.9,17.9L21.9,17.9z"/>
	<path fill-rule="evenodd" clip-rule="evenodd" fill="#00B04F" d="M13.5,23.6c-0.1,0.1-0.1,0.1-0.2,0.1c0.1,0.1-0.1,0,0.1,0.1
		l-0.1,0c0,0,0,0-0.1,0.1c0,0,0,0-0.1,0.1c0,0,0,0,0,0C13.1,24,13.1,24,13,24L13,24.1c-0.2,0.3-0.1,0.1-0.3,0.4c0,0,0,0,0,0
		c0,0,0,0,0,0l-0.2,0.2c-0.1,0.1,0,0-0.1,0.1l-0.1,0.2c0,0-0.1,0.1-0.1,0.1l0,0c-0.1,0.1-0.1,0-0.1,0.1c0,0-0.1,0.1-0.1,0.1
		c0,0,0,0.1-0.1,0.1c-0.1,0-0.1,0-0.1,0c-0.1,0.2-0.2,0.3-0.2,0.5c0.1,0,0,0,0.1,0l0,0.1c0.1-0.1,0.1-0.1,0.2-0.2c0,0,0,0,0,0
		c0,0,0,0,0,0c0.2-0.2,0.2-0.2,0.3-0.3c0.1-0.1,0.1-0.1,0.2-0.2c0,0,0,0,0,0l0,0c0.1-0.1,0,0,0.1-0.1c0.1-0.2,0-0.1,0.1-0.2
		c0.3-0.2,0.3-0.4,0.3-0.4c0,0,0.1,0,0.3-0.2c0.2-0.3,0.1-0.2,0.3-0.3c0-0.1-0.1,0,0,0c0.1-0.1,0,0,0.1-0.1c0.2-0.2,0.2-0.1,0.3-0.3
		L13.5,23.6L13.5,23.6z"/>
	<path fill-rule="evenodd" clip-rule="evenodd" fill="#00B04F" d="M15.4,24.6c0,0.1,0,0,0,0.1c-0.1,0-0.1,0-0.2,0.1
		c-0.1,0.1-0.1,0.1-0.1,0.1c0,0,0,0,0,0C15,25.3,15,25.1,15,25.3c-0.2,0-0.2,0.1-0.2,0.2c-0.2,0-0.2,0-0.2,0.2c-0.2,0-0.1,0-0.2,0.1
		c-0.1,0.1-0.1,0-0.1,0l0,0.2l0,0c0.3,0,0.9-0.5,1.1-0.6c0.2-0.2,0.3-0.2,0.4-0.4c0.1-0.1,0.3-0.4,0.4-0.5l0.2-0.4
		c-0.2,0.1-0.2,0.2-0.4,0.3C15.8,24.5,15.5,24.6,15.4,24.6L15.4,24.6z"/>
	<path fill-rule="evenodd" clip-rule="evenodd" fill="#00B04F" d="M21.7,19.4l0,0.4c0.3,0,0.5,0,0.8,0c0.2,0,0,0.1,0.3,0.1
		c0.2,0,0.2,0,0.4,0c0.2,0-0.1,0.1,0,0c0,0,0.1,0,0.1,0c0.1-0.1,0.3-0.3,0.3-0.4l0-0.1l-0.2,0c-0.1,0-0.1,0-0.2,0
		c-0.2,0-0.3,0-0.5,0c-0.4,0-0.4,0-0.6,0c-0.1,0-0.1,0-0.2,0l-0.1-0.1c0,0,0,0,0,0C21.8,19.4,21.8,19.3,21.7,19.4L21.7,19.4z"/>
	<path fill-rule="evenodd" clip-rule="evenodd" fill="#00B04F" d="M17.5,18.3c0.1,0.1,0.1,0.3,0.2,0.3c0-0.1,0-0.1,0.1-0.1
		c0.1,0,0.1,0,0.2-0.1c0.3-0.2,0,0,0.4,0c0.1,0,0.4-0.1,0.4-0.1c0.1-0.1,0-0.1,0.2-0.1l0.1,0c0,0,0,0,0,0l0,0.1c0-0.1,0-0.2,0-0.4
		l0-0.2c-0.1,0-0.4,0.1-0.5,0.2c-0.1,0,0,0-0.1,0.1c-0.1,0,0,0-0.1,0c-0.1,0.1,0,0-0.1,0.1c0,0,0,0-0.1,0l-0.2,0.1
		C17.9,18,18,18,17.7,18.1c-0.1,0-0.1,0.1-0.2,0C17.6,18.2,17.5,18.2,17.5,18.3L17.5,18.3L17.5,18.3z"/>
	<path fill-rule="evenodd" clip-rule="evenodd" fill="#00B04F" d="M13.9,23.5c-0.1,0.2-0.1,0.2-0.3,0.3c-0.1,0.1,0,0-0.1,0.1
		c0,0.1,0-0.1,0,0c-0.1,0.1-0.1,0-0.3,0.3c-0.2,0.3-0.2,0.2-0.3,0.2c0,0-0.1,0.3-0.3,0.4c-0.1,0.1,0,0-0.1,0.2c0,0.1,0,0.1-0.1,0.1
		l0,0c0,0,0,0,0,0c-0.2,0.2-0.1,0.1-0.2,0.2c-0.1,0.1-0.1,0.1-0.3,0.3c0,0,0,0,0,0c0,0,0,0,0,0c-0.1,0.1-0.1,0.2-0.2,0.2l0-0.1
		c0,0,0,0-0.1,0l-0.1,0.3l0.2,0c0,0,0-0.1,0,0l0.2,0c0.1-0.3,0.1-0.1,0.3-0.4c0,0,0,0,0,0c0.1-0.2,0.1,0.1,0.2-0.1l0.1-0.1l0.3-0.3
		c0.1-0.1,0-0.1,0.1-0.2c0.1-0.1,0.1-0.1,0.1-0.1c0.1-0.1,0.1-0.1,0.1-0.1c0.1-0.1,0.1-0.1,0.1-0.2c0.1-0.1,0.1,0,0.1-0.1
		c0.1-0.1,0.1-0.1,0.2-0.2l0,0c0,0,0,0,0,0c0,0,0,0,0,0l0.2-0.3c0,0,0-0.1,0.1-0.1c0.1-0.1,0.1-0.1,0.2-0.2c0.2-0.2,0.2-0.2,0.3-0.4
		c0,0,0,0,0,0l-0.1,0L13.9,23.5L13.9,23.5z"/>
	<path fill-rule="evenodd" clip-rule="evenodd" fill="#00B04F" d="M14,24.9c0.2-0.1,1.1-0.5,1.2-0.6l-0.1,0c0.1-0.1,0,0,0.1-0.1
		c0,0,0,0,0.1-0.1l0.2-0.3c0.1-0.1,0.1-0.1,0.2-0.1c0,0,0,0-0.1,0c-0.1-0.1-0.4-0.1-0.6-0.2c0.1,0,0,0,0,0.1
		c-0.2,0.1-0.3,0.3-0.4,0.4c0,0,0,0,0,0c0,0,0,0,0,0c0,0,0,0,0,0c-0.1,0.1-0.1,0.1-0.1,0.2c0,0-0.1,0-0.1,0.1
		c-0.1,0-0.1,0.1-0.1,0.2c-0.2,0.2-0.1,0.1-0.3,0.3C14,24.8,14,24.8,14,24.9L14,24.9z"/>
	<path fill-rule="evenodd" clip-rule="evenodd" fill="#00B04F" d="M19.9,18l0,0.2l0,0.3c0,0,0,0,0,0c0.1,0.2,0,0,0.1,0l0.1,0
		c0,0,0.1,0,0.1,0c0.5,0,0.6,0.1,1.1,0.1c0-0.1,0.1-0.2,0.1-0.3l0-0.1c-0.1,0,0,0-0.1,0c0.1-0.1,0,0,0.1-0.1c-0.2,0-0.4,0-0.6,0
		c-0.1,0-0.2,0-0.3,0c-0.3,0-0.2,0-0.3,0.1c0,0.1-0.1,0.1,0.3,0.1c0.4,0,0.5,0.1,0.8,0.1c0,0.1-0.2,0-0.3,0c-0.3,0,0,0-0.4,0
		c-0.1,0-0.4,0-0.6,0l-0.1,0C19.9,18.1,19.9,18.1,19.9,18l0.1,0c0,0,0,0,0,0l-0.1-0.1C19.9,17.8,19.9,17.9,19.9,18
		C19.9,17.9,19.9,18,19.9,18C19.9,17.9,19.9,18,19.9,18L19.9,18z"/>
	<path fill-rule="evenodd" clip-rule="evenodd" fill="#00B04F" d="M26.7,26.3l0.2,0l0-0.1l-0.2,0c0-0.1,0.2,0,0-0.2
		c-0.1-0.1-0.1-0.1-0.2-0.1c-0.1-0.1-0.1,0-0.1-0.1c-0.2,0-0.2-0.1-0.2-0.2c-0.2,0-0.2,0-0.2-0.2c-0.1,0-0.2-0.1-0.3-0.1
		c-0.1-0.1,0-0.2-0.1-0.1c0,0,0,0,0,0c0-0.1,0-0.1-0.1-0.1c0,0,0,0-0.1,0c0-0.1,0-0.1-0.1-0.2c0-0.1-0.4-0.2-0.5-0.3l0,0.1
		c0,0,0,0,0,0c-0.1,0-0.1,0-0.2,0c0.1,0.1,0.1,0.1,0.2,0c0.1,0.3,0.2,0.1,0.2,0.1c0,0.1,0,0-0.1,0.1l0,0c0,0,0,0,0.1,0
		c0,0.1,0,0,0,0.1c0.2,0,0,0,0.1,0c0.1,0.2,0.1,0,0.1,0.2c0.1,0,0.1,0,0.1-0.1c0.1,0.1,0,0.1,0.1,0.1c0,0.1,0-0.1,0,0.1
		c0.2,0,0,0,0.1-0.1c0,0.1,0.1,0.1,0.1,0.1c-0.1,0.1,0-0.1,0,0.1l0.1,0c0,0,0,0,0.1,0c0,0.1,0.1,0.1,0.2,0.2l0.5,0.5
		C26.6,26.3,26.6,26.3,26.7,26.3L26.7,26.3z"/>
	<path fill-rule="evenodd" clip-rule="evenodd" fill="#00B04F" d="M17.1,17.6c0,0.1,0,0.1,0.1,0.2c0.2,0,0.2-0.1,0.3-0.2
		c0.1-0.1-0.1,0,0,0c0,0,0.1,0,0.1,0l0.2-0.1c0.1,0,0,0,0.1,0c0.1,0,0.2-0.1,0.3-0.1c0.1-0.1,0.1-0.1,0.2-0.1l0.5-0.2
		c0.2-0.1,0,0,0.1,0l0,0c0,0,0.1,0,0.1,0c0,0.1,0,0.1,0,0.1L19,16.8c-0.1,0,0,0-0.1-0.1c-0.1,0-0.1,0-0.1,0.1
		c-0.1,0.1,0,0.1-0.1,0.1c-0.2,0-0.2,0.1-0.4,0.1c-0.1,0-0.1,0-0.1,0c0,0,0-0.1-0.1,0c-0.1,0.1,0,0,0,0.2c-0.2,0-0.1,0-0.2,0
		c-0.1,0.1,0.1-0.1,0,0.1c-0.2,0-0.1,0-0.3,0c-0.2,0.1-0.2,0-0.2,0c0,0.1,0.1,0.1,0.1,0.2c-0.1,0-0.1,0-0.1,0
		c-0.1,0.1,0.1,0.1-0.1,0.1c0,0,0,0,0,0c0,0,0,0,0,0c0,0,0,0,0,0C17.2,17.5,17.2,17.5,17.1,17.6L17.1,17.6z"/>
	<path fill-rule="evenodd" clip-rule="evenodd" fill="#00B04F" d="M13.9,25L13.9,25l-0.1,0.1l0.2,0c-0.1,0-0.1,0.1-0.1,0.1
		c-0.1,0,0,0-0.1,0c0,0,0,0,0,0c0,0,0,0,0,0c0,0-0.3,0.2-0.2,0.3c-0.1,0-0.1,0-0.2,0.1c-0.1,0.2,0.1,0-0.1,0.2
		c-0.1,0.1-0.1,0-0.3,0.3c0,0.1,0,0,0,0c0,0,0,0-0.1-0.1c0,0.1,0,0-0.1,0.3l-0.1,0.1l0.3,0c0.2,0,0.1,0,0.2,0c0,0,0,0,0,0
		c0,0,0,0,0,0c-0.1,0-0.1,0-0.1-0.1c0-0.1,0,0,0.1,0c0,0,0,0,0.1,0l0,0c0,0,0,0,0,0c0.2-0.2,0.2,0,0.3-0.1l-0.1-0.1c0,0,0,0,0-0.1
		c0-0.1,0-0.1,0.1-0.1c0-0.1,0.3-0.3,0.3-0.3c-0.1-0.1-0.1,0,0-0.1c0-0.1,0,0,0.1,0c0.1,0,0.1,0,0.2-0.1l0.3-0.2
		c0.1-0.1,0,0,0.1-0.1L13.9,25L13.9,25z"/>
	<path fill-rule="evenodd" clip-rule="evenodd" fill="#00B04F" d="M22,17.4l0.6,0.1c0.1,0,0.2,0,0.3,0c0.1,0-0.1,0,0.1,0l1.4,0.1
		c0.1,0,0,0,0,0l0,0.1l0-0.1l0-0.3c0,0,0,0,0-0.1c0,0,0,0,0,0c0,0,0,0,0,0c0,0,0,0,0,0c-0.2,0-0.4,0-0.5,0c-0.1,0-0.1-0.1-0.2,0
		c-0.1,0,0,0-0.2,0l0-0.1c-0.1,0-0.2,0-0.3,0l-0.6,0c-0.2,0,0,0-0.3-0.1L22,17.4L22,17.4z"/>
	<path fill-rule="evenodd" clip-rule="evenodd" fill="#00B04F" d="M18,19.2c0.1,0.1,0.4,0.6,0.5,0.8c0.1,0.1,0.1,0.1,0.1,0.1
		c0.1-0.4,0.2-0.8,0.4-1.2l0-0.1c-0.1,0-0.2,0-0.3,0c-0.1,0.1,0,0.1-0.2,0.1c0.1,0,0,0,0.1,0c0.1,0,0,0,0.1,0c0,0-0.1,0-0.1,0.1
		l-0.1,0.1c-0.1,0-0.1,0-0.2,0c-0.1,0,0,0,0,0C18.2,19.1,18.1,19.2,18,19.2C18,19.2,18.1,19.2,18,19.2L18,19.2L18,19.2z"/>
	<path fill-rule="evenodd" clip-rule="evenodd" fill="#00B04F" d="M14.9,24.8L14.9,24.8c-0.1,0.1-0.1,0.1-0.1,0.2
		c0,0-0.1,0.1-0.1,0.1l-0.4,0.5c0,0,0,0-0.1,0.1c0,0.1,0.1,0,0,0.1c-0.1,0.1-0.1,0.1-0.3,0.3c0,0-0.1,0.1-0.1,0.1
		c0,0.1-0.1,0-0.2,0.1c0.1,0,0,0,0.1,0v0l0.1,0c0.1,0,0.3-0.1,0.4-0.1l0,0l0-0.2c0,0,0,0.1,0.1,0c0.1-0.1,0-0.1,0.2-0.1
		c0-0.2,0.1-0.2,0.2-0.2c0-0.1,0-0.2,0.2-0.2c0-0.2,0-0.1,0.1-0.3c0,0,0,0,0,0c0.1-0.1,0,0,0.1-0.1c0.1-0.1,0-0.1,0.2-0.1
		c0-0.1,0,0,0-0.1L14.9,24.8L14.9,24.8z"/>
	<path fill-rule="evenodd" clip-rule="evenodd" fill="#00B04F" d="M23.7,24.6c0,0.2,0.5,0.8,0.6,1c0.2,0.2,0.7,0.6,1,0.6l0.2,0
		c-0.1-0.1,0,0-0.1-0.1c-0.1,0-0.2-0.1-0.2-0.2l0-0.1c0,0,0,0,0-0.1c-0.1,0-0.1,0.1-0.2,0c-0.1-0.1,0,0,0-0.2c-0.2-0.1-0.1,0-0.2,0
		c-0.2-0.1,0.1,0-0.1-0.1c0,0,0,0,0,0l0,0c0,0,0,0.1-0.1,0c-0.1-0.1,0,0,0-0.1l0-0.1c0,0,0,0,0,0c0,0-0.1,0-0.1-0.1c0,0,0,0,0,0
		c0,0,0,0,0,0l-0.2-0.3c-0.1-0.1-0.1,0-0.1-0.1c-0.1,0-0.1,0-0.1,0.1C23.9,24.7,23.8,24.7,23.7,24.6c0.3,0,0.2,0.1,0.2,0
		C23.7,24.5,23.8,24.6,23.7,24.6l0-0.1C23.7,24.6,23.7,24.5,23.7,24.6L23.7,24.6z"/>
	<path fill-rule="evenodd" clip-rule="evenodd" fill="#00B04F" d="M15.6,18.7c0.1,0.1,0.2,0.3,0.3,0.4c0,0,0-0.1,0.1-0.1
		c0.3-0.1,0.1-0.1,0.4-0.2c0.1,0,0.5-0.2,0.5-0.3c0-0.1-0.1-0.4-0.1-0.5c0,0-0.1,0,0,0c0,0.2,0,0,0,0.1c0,0.1-0.1,0.1-0.1,0.1l0,0
		c0,0,0,0-0.1,0l-0.3,0.2c0,0-0.1,0-0.1,0l-0.4,0.2c-0.1,0,0,0-0.1,0C15.7,18.6,15.7,18.6,15.6,18.7L15.6,18.7z"/>
	<path fill-rule="evenodd" clip-rule="evenodd" fill="#00B04F" d="M15.9,19c0.1,0.1,0.2,0.2,0.3,0.4c0,0,0,0,0,0c0,0,0,0,0.1,0
		c0-0.2,0-0.1,0.1-0.2c0.2-0.1-0.1,0,0.3-0.1l0.1-0.1C17,19,17.1,19,17.2,19c0-0.1-0.1-0.5-0.2-0.5c-0.1,0.1-0.4,0.2-0.5,0.3
		c-0.3,0.1-0.2,0.1-0.4,0.2C15.9,19,15.9,19,15.9,19L15.9,19z"/>
	<path fill-rule="evenodd" clip-rule="evenodd" fill="#00B04F" d="M14.6,24.9C14.5,25,14.6,24.9,14.6,24.9l-0.3,0.3
		c-0.1,0.1,0,0.1-0.2,0.1c0,0-0.1,0-0.1,0c0,0.1,0,0,0,0.1c-0.1,0-0.3,0.2-0.3,0.3c0,0.1,0,0-0.1,0.1c0,0.1,0,0.1,0,0.1l0.1,0.1
		c-0.1,0-0.1-0.1-0.3,0.1c0,0,0,0,0,0l0,0c0,0,0,0-0.1,0c-0.1,0-0.1,0-0.1,0c0,0,0.1,0,0.1,0.1c0.1,0,0.2,0,0.3,0
		c0.2,0,0.2,0,0.3-0.1l-0.1,0v0c-0.1,0,0,0.1-0.1,0c0.1-0.1,0.1-0.1,0.2-0.1c0,0,0.1-0.1,0.1-0.1c0.1-0.2,0.2-0.2,0.3-0.3
		c0.1-0.1,0,0,0-0.1c0-0.1,0,0,0.1-0.1l0.4-0.5c0,0,0.1-0.1,0.1-0.1c0-0.1,0-0.1,0.1-0.1l0,0L14.6,24.9L14.6,24.9z"/>
	<path fill-rule="evenodd" clip-rule="evenodd" fill="#00B04F" d="M15.5,21l1.7,0.1c0-0.1-0.3-0.5-0.4-0.6c-0.1,0-0.1,0-0.1,0.1
		c0,0-0.1,0-0.1,0c-0.1,0,0,0.1-0.2,0.1c-0.1,0-0.3,0-0.4,0.1c-0.1,0.1,0,0-0.1,0.1c-0.2,0.1-0.2,0-0.2,0c-0.1,0-0.2,0-0.3,0
		l-0.1,0.1C15.6,20.9,15.2,21,15.5,21L15.5,21z"/>
	<path fill-rule="evenodd" clip-rule="evenodd" fill="#00B04F" d="M19.9,17l0,0.3c0.1,0,1.4,0.1,1.6,0.2c0.2,0,0.2,0,0.3,0
		c0-0.1,0.1-0.1,0.1-0.2c0-0.1,0-0.1-0.1-0.1c0,0.1,0,0.2-0.1,0.2c0-0.1,0.1-0.1,0-0.2c0,0-0.5,0.1-0.6,0c0.1-0.1,0.1,0,0.2-0.1
		c0,0,0-0.1-0.2,0l-0.3,0.1c0,0,0,0-0.1,0C20.2,17.1,20.7,17,19.9,17L19.9,17C20,17.1,20,17,19.9,17L19.9,17z"/>
	<path fill-rule="evenodd" clip-rule="evenodd" fill="#00B04F" d="M10.1,15.3c0,0.2,0.2,0.6,0.3,0.7l0-0.1c0.1,0,0.2,0,0.3,0l0.2,0
		c0.1,0,0,0,0.1,0l-0.2,0c0.2,0,0.2,0,0.4,0c0,0.1,0,0-0.1,0.1c0,0-0.1,0,0,0c0.1,0,0.1,0,0.2,0c0.3,0.1,0.3,0,0.5,0.1
		c-0.1,0.1-0.2,0-0.2,0.1c0,0,0.2,0,0.3,0c0.3,0.1,0-0.1,0.3,0.1c0.1,0.1,0.2,0,0.4,0c0.1,0,0.1,0,0.1,0.1c-0.3,0-0.3,0-0.3,0
		c0,0,0.1,0,0.1,0c0.1,0,0.2,0,0.2,0c0.2,0,0.3,0,0.5,0c0,0,0,0-0.1,0c0,0-0.1,0-0.1,0l0,0c0.2,0,0.2,0,0.3,0c0.1,0,0.1,0,0.1,0
		c0,0.1,0,0-0.1,0.1c0,0-0.1,0-0.1,0c0.1,0,0.3,0,0.3,0l0.1,0c0.1,0,0.1,0,0.2,0.1c0-0.2-0.2-0.4-0.3-0.5c-0.1-0.2-0.2-0.3-0.3-0.4
		l-0.1,0c0.1,0,0,0,0,0l-0.4-0.1c-0.2,0-0.1-0.1-0.3-0.1c-0.1,0-0.1,0-0.1,0l-0.2-0.1c-0.1,0,0,0-0.1,0c-0.2,0,0,0-0.1,0
		c-0.3-0.1-0.4-0.1-0.6-0.1c0-0.1,0,0,0-0.1c-0.2,0-0.1,0.1-0.3,0c-0.3-0.1-0.5-0.1-0.6-0.1L10.1,15.3L10.1,15.3L10.1,15.3z"/>
	<path fill-rule="evenodd" clip-rule="evenodd" fill="#00B04F" d="M10.4,16l0.1,0.3l0.1,0l0-0.1l0.1,0.1c0.2,0.1,0.4,0.1,0.5,0.1
		l0.2,0.1c0.1,0,0.1,0,0.2,0c0.1,0,0.1,0,0.2,0.1c0.1,0,0.1,0,0.2,0c0.2,0,0.1,0,0.1,0.1c0.1,0,0,0,0.1,0c0-0.1,0-0.1,0.1,0
		c0,0,0.4,0.3,0.6,0.4c-0.1-0.1,0,0,0-0.1c0.2,0-0.1,0,0.2-0.1c0.2,0,0.2,0.1,0.3,0.1l0.3,0.1c0,0,0,0,0.1,0l0,0c0,0,0,0,0,0l0,0
		c0,0,0,0,0,0c0,0,0,0,0,0l0.1,0l-0.1-0.3c-0.1-0.1-0.1,0-0.2-0.1l-0.1,0c-0.1,0-0.3,0-0.3,0c0,0,0.1,0,0.1,0c0.1,0,0.1,0,0.1-0.1
		c0,0,0,0-0.1,0c-0.1,0-0.1,0-0.3,0l0,0c0.1,0,0.1,0,0.1,0c0.1,0,0,0,0.1,0c-0.2,0-0.3,0-0.5,0c-0.1,0-0.1,0-0.2,0
		c-0.1,0-0.1,0-0.1,0c0-0.1,0,0,0.3,0c0-0.1,0-0.1-0.1-0.1c-0.2,0-0.3,0.1-0.4,0c-0.3-0.2,0,0.1-0.3-0.1c-0.1-0.1-0.2,0-0.3,0
		c0.1-0.1,0.1,0,0.2-0.1c-0.2-0.1-0.2,0-0.5-0.1c-0.1,0-0.1,0-0.2,0c-0.1,0,0,0,0,0c0.1-0.1,0,0,0.1-0.1c-0.1,0-0.2,0-0.4,0l0.2,0
		c0,0,0,0-0.1,0l-0.2,0C10.6,16,10.5,16,10.4,16L10.4,16L10.4,16z"/>
	<path fill-rule="evenodd" clip-rule="evenodd" fill="#00B04F" d="M11.2,17.2c0.1,0.3,0.9,0.7,1.3,0.9c0.2,0.1,0.5,0.1,0.6,0.2
		c0.2,0,0.5,0.1,0.8,0c-0.2-0.1-0.4-0.2-0.5-0.3c-0.1-0.1-0.2-0.1-0.2-0.2c-0.1-0.1-0.2-0.2-0.2-0.2c-0.1,0-0.1,0-0.1-0.1l-0.1,0.1
		c0,0,0,0-0.1,0c-0.1-0.1,0,0-0.1-0.1c0,0-0.1,0-0.1,0c-0.1,0,0,0-0.1,0c-0.1-0.1-0.1,0-0.2-0.1c-0.1,0,0,0-0.2-0.1
		c-0.1,0-0.3,0-0.4-0.1C11.3,17,11.4,17.2,11.2,17.2C11.3,17.1,11.2,16.9,11.2,17.2L11.2,17.2z"/>
	<path fill-rule="evenodd" clip-rule="evenodd" fill="#00B04F" d="M10.1,15.3L10.1,15.3l0.1,0c0.1,0,0.3,0,0.6,0.1
		c0.2,0.1,0.1,0,0.3,0c0,0-0.1-0.1,0,0.1c0.2,0.1,0.3,0,0.6,0.1c0.1,0.1,0,0,0.1,0c0.1,0,0,0,0.1,0l0.2,0.1c0.1,0,0.1,0,0.1,0
		c0.3,0,0.2,0.1,0.3,0.1l0.4,0.1c0,0,0.1-0.1,0,0l0.1,0c-0.1-0.1-0.2-0.2-0.3-0.3c-0.1-0.1-0.3-0.2-0.4-0.2
		c-0.4-0.1-0.6-0.2-1.1-0.3C11.1,15.1,10.3,15.1,10.1,15.3C10.1,15.4,10.1,15.3,10.1,15.3L10.1,15.3z"/>
	<path fill-rule="evenodd" clip-rule="evenodd" fill="#00B04F" d="M12.8,17.1c0.1,0.2,1.2,0.7,1.2,0.8c0.1,0,0,0,0.1-0.1L14,17.4
		c0-0.1,0-0.3-0.1-0.3l-0.1,0c0,0,0,0,0,0c0,0,0,0,0,0l0,0c0,0,0,0,0,0l0,0c0,0,0,0-0.1,0L13.3,17c-0.1,0-0.1-0.1-0.3-0.1
		C12.7,17,13,17,12.8,17.1C12.8,17,12.7,16.9,12.8,17.1L12.8,17.1z"/>
	<path fill-rule="evenodd" clip-rule="evenodd" fill="#00B04F" d="M10.6,16.3c0,0.1,0.2,0.4,0.3,0.4l0.1,0c0,0,0,0,0,0
		c0.1,0,0.2,0,0.3,0c0.2,0.1,0.2,0,0.3,0.1c0.1,0,0,0,0.1,0c0.3,0.1,0.6,0.1,0.8,0.1c0-0.1,0,0-0.1-0.1c0,0,0-0.1-0.1-0.1
		c-0.1-0.1-0.1-0.1-0.2-0.2c-0.1,0,0,0-0.1,0c0-0.1,0.1-0.1-0.1-0.1c-0.1,0-0.1,0-0.2,0c-0.1,0-0.1,0-0.2-0.1c-0.1,0-0.1,0-0.2,0
		l-0.2-0.1C11,16.4,10.8,16.4,10.6,16.3L10.6,16.3L10.6,16.3L10.6,16.3z"/>
	<path fill-rule="evenodd" clip-rule="evenodd" fill="#00B04F" d="M11.2,17.2C11.2,16.9,11.3,17.1,11.2,17.2c0.2,0,0.1-0.1,0.3,0
		c0.1,0.1,0.3,0,0.4,0.1c0.1,0,0.1,0.1,0.2,0.1c0.1,0,0.1,0,0.2,0.1c0,0,0,0,0.1,0c0,0,0.1,0,0.1,0c0.1,0.1,0,0,0.1,0.1
		c0,0,0.1,0,0.1,0l0.1-0.1c0.1,0,0.1,0,0.1,0.1c0-0.1-0.3-0.4-0.4-0.4c-0.3,0-0.6-0.1-0.8-0.1c-0.1,0,0,0-0.1,0
		c-0.2-0.1-0.1,0-0.3-0.1c-0.1,0-0.2,0-0.3,0c0,0,0,0,0,0l-0.1,0C10.9,16.9,11.1,17.1,11.2,17.2L11.2,17.2z"/>
	<path fill-rule="evenodd" clip-rule="evenodd" fill="#00B04F" d="M15.3,18.2c0,0.1,0,0,0,0.1c0,0.1,0,0,0.1,0.1l0.2,0.2
		c0.1,0,0.1-0.1,0.2-0.1c0,0,0,0,0.1,0l0.4-0.2c0,0,0.1,0,0.1,0l0.3-0.2c0,0,0,0,0.1,0l0,0c0,0,0,0,0.1-0.1c0,0,0,0.1,0-0.1
		c0,0,0,0,0,0l-0.1-0.4c-0.1-0.1,0,0-0.1-0.1c0,0.1-0.1,0.1-0.2,0.2c0.1,0,0,0,0.1,0.1c-0.3,0.2-0.1,0.1-0.3,0.1
		c-0.3,0.1-0.2,0.1-0.2,0.2c-0.4,0-0.1,0.1-0.6,0.1L15.3,18.2C15.5,18.2,15.4,18.2,15.3,18.2L15.3,18.2z"/>
	<path fill-rule="evenodd" clip-rule="evenodd" fill="#00B04F" d="M22.1,12.9L22.1,12.9c0,0.1,0.1,0.1,0.2,0.1c0,0,0,0,0,0
		c0.3,0,1,0,1.1,0.2c0.1-0.1,0,0,0-0.1c0-0.1-0.2-0.4-0.3-0.5c0,0.1,0,0,0,0.1c-0.2,0-0.3,0-0.4-0.1c-0.1,0-0.1,0.1-0.2,0
		c-0.1,0,0,0-0.1-0.1c-0.1,0.1-0.1,0.1-0.2,0.2L22.1,12.9C22.1,12.8,22.1,12.8,22.1,12.9L22.1,12.9z"/>
	<path fill-rule="evenodd" clip-rule="evenodd" fill="#00B04F" d="M12.8,23.9c0,0.1-0.3,0.2-0.3,0.3c-0.1,0.1-0.2,0.2-0.3,0.3
		c-0.2,0.2-0.4,0.5-0.5,0.8c0.1,0,0.1,0,0.1,0c0,0,0-0.1,0.1-0.1c0,0,0.1-0.1,0.1-0.1c0.1-0.1,0,0,0.1-0.1l0,0c0,0,0.1-0.1,0.1-0.1
		l0.1-0.2c0.1-0.1,0,0,0.1-0.1l0.2-0.2c0,0,0,0,0,0c0,0,0,0,0,0c0.2-0.2,0.1-0.1,0.3-0.4L13,24c0.1-0.1,0.1-0.1,0.2-0.2c0,0,0,0,0,0
		c0,0,0,0,0.1-0.1c0,0,0,0,0.1-0.1l0.1,0c-0.2,0,0,0-0.1-0.1c0,0-0.2,0.1-0.2,0.1C13,23.8,12.9,23.9,12.8,23.9L12.8,23.9z"/>
	<path fill-rule="evenodd" clip-rule="evenodd" fill="#00B04F" d="M20.1,19.7c0,0.1,0.1,0.3,0.1,0.4c0,0.1,0.1,0.3,0.2,0.3
		c0-0.1,0-0.1,0.1-0.1c0.1,0,0.2,0,0.3,0l0.1-0.5c0-0.1,0-0.1,0-0.2c-0.2,0-0.2,0-0.4,0c-0.4,0-0.3,0-0.3-0.1
		C20.1,19.7,20.1,19.6,20.1,19.7L20.1,19.7z"/>
	<path fill-rule="evenodd" clip-rule="evenodd" fill="#00B04F" d="M21.6,20.9l0,0.4c0.2-0.1,0.6-0.4,0.8-0.5l0.2-0.1
		c0.1-0.1,0,0,0-0.1l0-0.1c-0.1,0-0.1,0-0.2,0.1c0,0,0,0,0-0.1c0,0,0,0,0-0.1c-0.1,0.1-0.1,0.2-0.1,0.1c0,0,0,0,0,0
		c0-0.1,0.1,0-0.1-0.1c-0.2,0,0,0-0.2,0c-0.2,0-0.3,0-0.4,0l0,0.3L21.6,20.9L21.6,20.9z"/>
	<path fill-rule="evenodd" clip-rule="evenodd" fill="#00B04F" d="M14.4,13.7l0,0.1C14.5,13.9,14.4,13.9,14.4,13.7l0.1,0.1
		c0,0,0,0.1,0,0.1l0,0.1l0.2,0c0.3-0.3,0-0.1,0.4-0.2c0.1,0,0.1,0,0.1-0.1c0-0.1,0,0,0.1-0.1c-0.1-0.1,0,0-0.1-0.1
		c0.2,0,0.1,0,0.3,0.1c0.2-0.1,0.2-0.1,0.3-0.1c0-0.1,0.1,0.1,0,0c0-0.1,0-0.1,0-0.1c0,0,0,0,0,0c0.1-0.1,0,0,0.1-0.1l-0.2-0.1
		c0,0,0,0,0,0l0,0c0,0,0,0,0,0c-0.1,0.1-0.1,0.1-0.2,0.1c-0.1,0-0.1,0-0.1,0.1c-0.1,0-0.1,0-0.2,0.1l-0.1,0.1c0,0,0,0-0.1,0
		c-0.2,0.1-0.1-0.1-0.3,0.1C14.6,13.7,14.5,13.7,14.4,13.7C14.5,13.7,14.5,13.7,14.4,13.7L14.4,13.7z"/>
	<path fill-rule="evenodd" clip-rule="evenodd" fill="#00B04F" d="M20,19.3c0,0.1,0,0.4,0.1,0.4c0-0.1,0,0,0-0.1
		c0.1,0.1-0.1,0.1,0.3,0.1c0.2,0,0.2,0,0.4,0c0,0.1,0,0.1,0,0.2c0.1-0.1,0.1-0.4,0.1-0.5l0-0.1l-0.1,0.1l0,0c0,0,0,0,0,0
		c-0.2-0.1-0.1,0-0.3,0c-0.2,0-0.1,0-0.3-0.1C20,19.2,20,19.2,20,19.3L20,19.3z"/>
	<path fill-rule="evenodd" clip-rule="evenodd" fill="#00B04F" d="M16.3,19.5c0,0.1,0.2,0.2,0.3,0.3c0,0,0,0,0,0c0,0,0.1,0,0.1-0.1
		l0.1,0c0-0.1,0-0.1,0-0.1c0.1,0.1,0.1,0.1,0.2,0l0.1-0.1c0,0,0,0,0,0c0.1-0.1,0.1,0,0.1-0.1l0-0.1c-0.1-0.1-0.1-0.2-0.1-0.2
		c0,0-0.2,0-0.3,0.1l-0.1,0.1c-0.3,0.1-0.1,0.1-0.3,0.1C16.4,19.3,16.3,19.3,16.3,19.5L16.3,19.5z"/>
	<path fill-rule="evenodd" clip-rule="evenodd" fill="#00B04F" d="M14.5,13.2c-0.1,0.1-0.1,0.4-0.1,0.6c0,0,0.1,0,0.1,0
		c0,0,0.1,0,0.1,0c0.1-0.3,0.1,0,0.3-0.1c0,0,0,0,0.1,0l0.1-0.1c0.1,0,0.1,0,0.2-0.1c0.1,0,0.1,0,0.1-0.1c0.1,0,0.1,0,0.2-0.1
		c0,0,0,0,0,0l0,0c0,0,0,0,0,0L15.2,13c-0.1,0-0.1,0-0.1,0.1c-0.1,0-0.1,0-0.1-0.1c0,0-0.1,0.1-0.1,0.1c-0.1,0-0.1,0-0.2,0
		c0,0.1-0.2,0.1-0.2,0.1C14.5,13.3,14.5,13.2,14.5,13.2L14.5,13.2z"/>
	<path fill-rule="evenodd" clip-rule="evenodd" fill="#00B04F" d="M27.6,25.3c-0.2-0.4-1.1-1.4-1.7-1.5c0.1,0.2,0.1,0,0.1,0.2
		c0-0.1,0.1-0.1,0.2,0.1c0.2,0.2,0.1,0.2,0.4,0.4c0.1,0.1,0,0.1,0.2,0.2c0.1,0,0,0,0.1,0.1c0,0.1,0,0.1,0.1,0.1c0.1,0.1,0,0,0.2,0.2
		l0,0c0,0.1,0,0,0.1,0.1c0.1-0.1,0,0,0.1,0l0,0.1c0,0,0,0,0,0c0,0,0,0,0,0c0,0,0,0,0,0L27.6,25.3L27.6,25.3z"/>
	<path fill-rule="evenodd" clip-rule="evenodd" fill="#00B04F" d="M16.7,19.8c0.1,0.1,0.2,0.2,0.4,0.2c0.3,0,0.1,0,0.3-0.1
		c0.1-0.1,0.1,0,0.1-0.1l-0.2-0.4c0,0.1,0,0-0.1,0.1c0,0,0,0,0,0l-0.1,0.1c-0.1,0.1-0.1,0.1-0.2,0c0,0.1,0,0,0,0.1l-0.1,0
		C16.8,19.7,16.7,19.7,16.7,19.8C16.7,19.7,16.7,19.8,16.7,19.8L16.7,19.8z"/>
	<path fill-rule="evenodd" clip-rule="evenodd" fill="#00B04F" d="M17,20c0.1,0.1,0.8,0.5,1,0.6c-0.1-0.1-0.2-0.2-0.3-0.4
		c-0.1-0.1-0.2-0.3-0.3-0.4c0,0.1,0,0.1-0.1,0.1C17.1,20,17.3,20,17,20L17,20z"/>
	<path fill-rule="evenodd" clip-rule="evenodd" fill="#00B04F" d="M14.5,13.2c0,0.1,0,0.2,0.1,0.2c0,0,0.2-0.1,0.2-0.1
		c0.1,0,0.1,0,0.2,0c0.1,0,0.1-0.1,0.1-0.1c0,0.1,0,0,0.1,0.1c0-0.1-0.1-0.1,0.1-0.1c-0.2,0-0.5-0.2-0.7-0.2
		C14.5,12.9,14.5,13,14.5,13.2L14.5,13.2z"/>
	<path fill-rule="evenodd" clip-rule="evenodd" fill="#00B04F" d="M20.4,20.5c0,0.2,0.3,0.7,0.4,0.8l0-0.8c-0.1,0-0.2,0-0.3,0
		C20.4,20.4,20.3,20.3,20.4,20.5L20.4,20.5z"/>
	<path fill-rule="evenodd" clip-rule="evenodd" fill="#00B04F" d="M15.3,24.2c0.1,0,0.6-0.4,0.8-0.4c-0.1-0.1-0.1-0.1-0.2-0.1
		c-0.1,0-0.1,0-0.2,0c-0.1,0-0.1,0-0.2,0.1l-0.2,0.3c0,0,0,0-0.1,0.1c-0.1,0.1,0-0.1-0.1,0.1L15.3,24.2L15.3,24.2z"/>
	<path fill-rule="evenodd" clip-rule="evenodd" fill="#00B04F" d="M22.4,12.5C22.4,12.5,22.4,12.5,22.4,12.5
		c0.2,0.1,0.2,0.1,0.3,0.1c0.1,0,0.2,0,0.4,0.1c0,0,0,0,0-0.1c0-0.1-0.2-0.4-0.3-0.4L22.4,12.5L22.4,12.5z"/>
	<path fill="none" stroke="#00B04F" stroke-width="0.667" stroke-miterlimit="2.6131" d="M19.8,0.3c10.8,0,19.5,8.7,19.5,19.5
		c0,10.8-8.7,19.5-19.5,19.5S0.3,30.6,0.3,19.8C0.3,9.1,9.1,0.3,19.8,0.3L19.8,0.3z"/>
	<path fill="#00B04F" d="M5.4,22.1c0.1,0,0.2,0,0.2-0.1c0.1,0,0.1-0.1,0.2-0.2c0-0.1,0.1-0.1,0.1-0.2l0-2.3c0-0.1,0-0.2-0.1-0.3
		c0-0.1-0.1-0.1-0.2-0.2c-0.1,0-0.1-0.1-0.2-0.1c-0.1,0-0.2,0-0.2,0.1C5.1,19,5.1,19,5,19.1c0,0.1-0.1,0.2-0.1,0.3l0,1.9l-3.5-0.1
		c-0.1,0-0.1,0-0.2,0.1c-0.1,0-0.1,0.1-0.2,0.1C1,21.5,1,21.5,1,21.6c0,0.1,0,0.2,0.1,0.2c0,0.1,0.1,0.1,0.1,0.2
		C1.3,22,1.4,22,1.4,22L5.4,22.1L5.4,22.1z M5.9,17.5c0.1,0,0.2,0,0.3,0c0.1,0,0.1-0.1,0.2-0.1c0-0.1,0.1-0.1,0.1-0.2
		c0-0.1,0-0.2,0-0.2c0-0.1,0-0.1-0.1-0.2c-0.1-0.1-0.1-0.1-0.2-0.1l-3.8-1c-0.1,0-0.2,0-0.3,0c-0.1,0-0.1,0.1-0.2,0.1
		c0,0.1-0.1,0.1-0.1,0.2c0,0.1,0,0.2,0,0.2c0,0.1,0,0.1,0.1,0.2c0.1,0.1,0.1,0.1,0.2,0.1L5.9,17.5L5.9,17.5z M5.1,10.8
		c0-0.1,0.1-0.2,0.1-0.3c0-0.1,0-0.2-0.1-0.2c0-0.1-0.1-0.1-0.2-0.2c-0.1,0-0.1-0.1-0.2-0.1c-0.1,0-0.1,0-0.2,0.1
		c-0.1,0-0.1,0.1-0.2,0.2l-1.2,2.1c0,0.1-0.1,0.2-0.1,0.3c0,0.1,0,0.2,0.1,0.2c0,0.1,0.1,0.1,0.2,0.2L6.7,15c0.1,0,0.1,0.1,0.2,0.1
		c0.1,0,0.1,0,0.2-0.1c0.1,0,0.1-0.1,0.2-0.2c0-0.1,0.1-0.1,0.1-0.2c0-0.1,0-0.1-0.1-0.2c0-0.1-0.1-0.1-0.2-0.2l-1.3-0.7L6.7,12
		c0-0.1,0.1-0.2,0.1-0.2c0-0.1,0-0.2,0-0.2c0-0.1-0.1-0.1-0.1-0.2c-0.1,0-0.2-0.1-0.2,0c-0.1,0-0.2,0-0.2,0.1
		c-0.1,0-0.1,0.1-0.2,0.2l-0.9,1.5l-1-0.5L5.1,10.8L5.1,10.8z M12,9.1c0.1-0.1,0.1-0.2,0.2-0.2c0-0.1,0-0.2,0-0.2
		c0-0.1-0.1-0.1-0.1-0.2C12,8.4,12,8.4,11.9,8.3c-0.1,0-0.2,0-0.2,0c-0.1,0-0.2,0.1-0.2,0.1L9.8,9.8L9.1,9.1l1.3-1.1
		c0.1-0.1,0.1-0.1,0.1-0.2c0-0.1,0-0.2,0-0.2c0-0.1-0.1-0.1-0.1-0.2c-0.1-0.1-0.1-0.1-0.2-0.1c-0.1,0-0.1,0-0.2,0
		c-0.1,0-0.2,0.1-0.2,0.1L8.5,8.4L7.9,7.6l1.5-1.3c0.1-0.1,0.1-0.1,0.2-0.2c0-0.1,0-0.2,0-0.2c0-0.1-0.1-0.1-0.1-0.2
		c0-0.1-0.1-0.1-0.2-0.1c-0.1,0-0.1,0-0.2,0c-0.1,0-0.2,0.1-0.2,0.1L6.9,7.2C6.8,7.3,6.8,7.4,6.8,7.4c0,0.1,0,0.1,0,0.2
		c0,0.1,0,0.1,0.1,0.2l2.6,3c0.1,0.1,0.1,0.1,0.2,0.1c0.1,0,0.1,0,0.2,0c0.1,0,0.1,0,0.2-0.1L12,9.1L12,9.1z M15.7,5.3
		c0,0.2,0,0.3-0.1,0.4c-0.1,0.1-0.1,0.2-0.3,0.3C15.2,6,15.1,6.1,15,6.1c-0.1,0-0.3,0.1-0.5,0.1c-0.2,0-0.3,0-0.5,0
		c-0.1,0-0.3,0-0.4-0.1C13.6,6,13.5,6,13.4,6c-0.1,0-0.1,0-0.2,0.1c-0.1,0-0.1,0.1-0.1,0.2c0,0.1,0,0.1,0,0.2c0,0.1,0,0.2,0.1,0.2
		c0,0.1,0.1,0.1,0.2,0.2C13.5,7,13.6,7,13.8,7c0.2,0,0.4,0,0.6,0c0.2,0,0.4,0,0.6-0.1c0.2,0,0.4-0.1,0.6-0.2
		c0.2-0.1,0.3-0.2,0.5-0.3c0.1-0.1,0.3-0.2,0.4-0.4c0.1-0.1,0.2-0.3,0.2-0.5c0-0.2,0-0.4,0-0.6c0-0.2-0.1-0.4-0.2-0.5
		c-0.1-0.1-0.2-0.2-0.3-0.3c-0.1-0.1-0.3-0.1-0.4-0.2c-0.2,0-0.3-0.1-0.5-0.1c-0.2,0-0.3,0-0.5,0c-0.2,0-0.3,0-0.5,0
		c-0.1,0-0.3,0-0.4-0.1c-0.1,0-0.2-0.1-0.3-0.2c-0.1-0.1-0.1-0.2-0.1-0.3c0-0.1,0-0.2,0.1-0.3c0.1-0.1,0.1-0.2,0.2-0.2
		c0.1-0.1,0.2-0.1,0.3-0.1c0.1,0,0.2-0.1,0.4-0.1c0.1,0,0.3,0,0.4,0c0.1,0,0.2,0,0.3,0.1c0.1,0,0.2,0,0.3,0c0.1,0,0.1-0.1,0.2-0.1
		c0.1-0.1,0.1-0.1,0.1-0.2c0-0.1,0-0.2-0.1-0.2c0-0.1-0.1-0.1-0.2-0.2c-0.2-0.1-0.3-0.1-0.5-0.1c-0.2,0-0.4,0-0.6,0
		C14,1.9,13.8,2,13.6,2c-0.2,0.1-0.4,0.1-0.5,0.2c-0.2,0.1-0.3,0.2-0.4,0.4c-0.1,0.1-0.2,0.3-0.3,0.5c-0.1,0.2-0.1,0.3,0,0.5
		c0,0.2,0.1,0.4,0.2,0.6c0.1,0.2,0.2,0.3,0.4,0.4c0.1,0.1,0.3,0.1,0.5,0.2c0.2,0,0.4,0.1,0.5,0.1c0.2,0,0.4,0,0.5,0
		c0.2,0,0.3,0,0.5,0c0.2,0,0.3,0.1,0.4,0.1C15.6,5,15.6,5.1,15.7,5.3L15.7,5.3z M19.7,6c0,0.1,0,0.2,0.1,0.3c0,0.1,0.1,0.1,0.2,0.2
		c0.1,0,0.1,0.1,0.2,0.1c0.1,0,0.2,0,0.2,0c0.1,0,0.1-0.1,0.2-0.1c0-0.1,0.1-0.1,0.1-0.2l0.2-3.5L22,2.6c0.1,0,0.2,0,0.3-0.1
		c0.1,0,0.1-0.1,0.2-0.2c0-0.1,0.1-0.1,0.1-0.2c0-0.1,0-0.1,0-0.2c0-0.1-0.1-0.1-0.1-0.2c-0.1,0-0.2-0.1-0.3-0.1l-3.3-0.2
		c-0.1,0-0.2,0-0.3,0.1c-0.1,0-0.1,0.1-0.2,0.2c0,0.1-0.1,0.1-0.1,0.2c0,0.1,0,0.1,0,0.2c0,0.1,0.1,0.1,0.1,0.2
		c0.1,0,0.1,0.1,0.2,0.1l1.2,0.1L19.7,6L19.7,6z M28.8,6.8C28.9,6.5,29,6.2,29,5.9c0-0.3,0-0.5,0-0.8c-0.1-0.3-0.2-0.5-0.3-0.7
		c-0.1-0.2-0.3-0.4-0.5-0.6c-0.2-0.2-0.4-0.3-0.6-0.4c-0.2-0.1-0.5-0.2-0.7-0.2c-0.3,0-0.5-0.1-0.8,0c-0.3,0-0.5,0.1-0.8,0.2
		c-0.2,0.1-0.5,0.3-0.7,0.5c-0.2,0.2-0.4,0.5-0.5,0.8c-0.1,0.3-0.2,0.6-0.3,0.9c0,0.3,0,0.6,0.1,0.8c0.1,0.3,0.2,0.5,0.3,0.7
		c0.1,0.2,0.3,0.4,0.5,0.6C25,7.7,25.2,7.8,25.5,8c0.2,0.1,0.5,0.2,0.7,0.2c0.2,0,0.5,0.1,0.7,0c0.2,0,0.5-0.1,0.7-0.2
		c0.2-0.1,0.4-0.3,0.6-0.5C28.5,7.3,28.6,7.1,28.8,6.8L28.8,6.8z M28,6.4c-0.1,0.2-0.2,0.4-0.3,0.5c-0.1,0.1-0.3,0.2-0.4,0.3
		c-0.2,0.1-0.3,0.1-0.5,0.1c-0.2,0-0.3,0-0.5,0c-0.2,0-0.3-0.1-0.5-0.1c-0.1-0.1-0.3-0.2-0.4-0.3c-0.1-0.1-0.2-0.2-0.3-0.4
		c-0.1-0.1-0.1-0.3-0.2-0.5c0-0.2,0-0.3,0-0.5c0-0.2,0.1-0.4,0.2-0.6c0.1-0.2,0.2-0.4,0.3-0.5c0.1-0.1,0.3-0.2,0.4-0.3
		c0.2-0.1,0.3-0.1,0.5-0.1c0.2,0,0.3,0,0.5,0c0.2,0,0.3,0.1,0.4,0.1c0.1,0.1,0.3,0.2,0.4,0.3c0.1,0.1,0.2,0.2,0.3,0.4
		C28,5,28.1,5.1,28.1,5.3c0,0.2,0.1,0.3,0,0.5C28.1,6,28.1,6.2,28,6.4L28,6.4z M30.8,9.6l0.7,0.8l-0.5,1.8c0,0.1,0,0.2,0,0.3
		c0,0.1,0.1,0.2,0.2,0.2c0.1,0,0.2,0.1,0.3,0.1c0.1,0,0.2,0,0.3-0.1c0.1-0.1,0.1-0.2,0.2-0.3l0.3-1.4c0.2,0.1,0.4,0.1,0.5,0.2
		c0.2,0,0.3,0,0.5,0c0.2,0,0.3-0.1,0.5-0.2c0.1-0.1,0.3-0.2,0.4-0.3c0.1-0.1,0.2-0.3,0.3-0.4c0.1-0.2,0.1-0.3,0.1-0.5
		c0-0.2,0-0.3-0.1-0.5c-0.1-0.2-0.2-0.4-0.3-0.5l-1.2-1.4c-0.1-0.1-0.1-0.1-0.2-0.1c-0.1,0-0.1,0-0.2,0c-0.1,0-0.1,0-0.2,0.1l-3,2.5
		c-0.1,0.1-0.1,0.1-0.1,0.2c0,0.1,0,0.2,0,0.2c0,0.1,0.1,0.1,0.1,0.2c0.1,0.1,0.1,0.1,0.2,0.1c0.1,0,0.1,0,0.2,0
		c0.1,0,0.2,0,0.2-0.1L30.8,9.6L30.8,9.6z M32.6,8.1l0.9,1c0.1,0.1,0.1,0.2,0.2,0.3c0,0.1,0,0.2,0,0.3c0,0.1-0.1,0.2-0.1,0.3
		c-0.1,0.1-0.1,0.1-0.2,0.2c-0.1,0.1-0.2,0.1-0.3,0.1c-0.1,0-0.2,0-0.3,0c-0.1,0-0.2-0.1-0.3-0.2l-0.9-1L32.6,8.1L32.6,8.1z
		 M33.2,17c0,0.1,0.1,0.2,0.2,0.2c0.1,0.1,0.1,0.1,0.2,0.1c0.1,0,0.1,0,0.2,0c0.1,0,0.1-0.1,0.2-0.1c0.1-0.1,0.1-0.1,0.1-0.2
		c0-0.1,0-0.2,0-0.3l-0.7-2l1-0.4l0.6,1.6c0,0.1,0.1,0.2,0.2,0.2c0.1,0,0.1,0.1,0.2,0.1c0.1,0,0.1,0,0.2,0c0.1,0,0.1-0.1,0.2-0.1
		c0.1-0.1,0.1-0.1,0.1-0.2c0-0.1,0-0.2,0-0.3L35.2,14l1-0.4l0.7,1.9c0,0.1,0.1,0.2,0.2,0.2c0.1,0.1,0.1,0.1,0.2,0.1
		c0.1,0,0.2,0,0.2,0c0.1,0,0.1-0.1,0.2-0.1c0.1-0.1,0.1-0.1,0.1-0.2c0-0.1,0-0.2,0-0.3l-0.9-2.3c0-0.1-0.1-0.1-0.1-0.2
		c-0.1,0-0.1-0.1-0.2-0.1c-0.1,0-0.1,0-0.2,0L32.6,14c-0.1,0-0.1,0.1-0.2,0.1c0,0.1-0.1,0.1-0.1,0.2c0,0.1,0,0.1,0,0.2L33.2,17
		L33.2,17z M35.2,21.4c-0.2,0-0.3-0.1-0.4-0.2c-0.1-0.1-0.2-0.2-0.2-0.3c0-0.1-0.1-0.3-0.1-0.4c0-0.2,0-0.3,0-0.5
		c0-0.2,0.1-0.3,0.1-0.4c0.1-0.1,0.1-0.3,0.2-0.3c0.1-0.1,0.1-0.2,0.1-0.2c0-0.1,0-0.1,0-0.2c0-0.1-0.1-0.1-0.1-0.2
		c-0.1,0-0.1-0.1-0.2-0.1c-0.1,0-0.2,0-0.2,0c-0.1,0-0.2,0.1-0.2,0.2c-0.1,0.1-0.2,0.3-0.3,0.4c-0.1,0.2-0.1,0.3-0.2,0.5
		c0,0.2-0.1,0.4-0.1,0.6c0,0.2,0,0.4,0,0.6c0,0.2,0.1,0.4,0.2,0.5c0.1,0.2,0.2,0.3,0.3,0.5c0.1,0.1,0.3,0.2,0.4,0.3
		c0.2,0.1,0.4,0.1,0.6,0.1c0.2,0,0.4,0,0.5-0.1c0.1-0.1,0.3-0.2,0.4-0.3c0.1-0.1,0.2-0.2,0.3-0.4c0.1-0.1,0.1-0.3,0.2-0.5
		c0.1-0.2,0.1-0.3,0.1-0.5c0-0.2,0.1-0.3,0.1-0.4c0-0.1,0.1-0.3,0.2-0.4c0.1-0.1,0.1-0.2,0.2-0.2c0.1-0.1,0.2-0.1,0.3,0
		c0.1,0,0.2,0.1,0.3,0.1c0.1,0.1,0.1,0.2,0.2,0.3c0,0.1,0.1,0.2,0.1,0.4c0,0.1,0,0.3,0,0.4c0,0.1-0.1,0.2-0.1,0.4
		c0,0.1-0.1,0.2-0.1,0.3c-0.1,0.1-0.1,0.2-0.1,0.3c0,0.1,0,0.2,0.1,0.2c0,0.1,0.1,0.1,0.2,0.1c0.1,0,0.2,0,0.2,0
		c0.1,0,0.2-0.1,0.2-0.2c0.1-0.1,0.2-0.3,0.3-0.5c0.1-0.2,0.1-0.4,0.1-0.5c0-0.2,0-0.4,0-0.6c0-0.2-0.1-0.4-0.1-0.6
		c-0.1-0.2-0.1-0.3-0.2-0.5c-0.1-0.1-0.2-0.3-0.4-0.4c-0.1-0.1-0.3-0.1-0.5-0.2c-0.2,0-0.5,0-0.6,0.1c-0.2,0.1-0.3,0.2-0.4,0.3
		c-0.1,0.1-0.2,0.3-0.3,0.4c-0.1,0.2-0.1,0.3-0.2,0.5c-0.1,0.2-0.1,0.4-0.2,0.5c0,0.2-0.1,0.3-0.2,0.5c-0.1,0.1-0.1,0.3-0.2,0.3
		C35.4,21.3,35.3,21.4,35.2,21.4L35.2,21.4z"/>
	<path fill="#00B04F" d="M7.5,30.5L7.1,30l-0.4,0.2L6.5,30l1.8-0.7l0.2,0.2l-1,1.6l-0.2-0.2L7.5,30.5L7.5,30.5z M7.4,29.9l0.3,0.4
		L8,29.7l0,0L7.4,29.9L7.4,29.9z M9.8,33.2L9.6,33l0.5-0.6l-0.6-0.5L9,32.5l-0.2-0.2L10,31l0.2,0.2l-0.5,0.6l0.6,0.5l0.5-0.6
		l0.2,0.2L9.8,33.2L9.8,33.2z M12.2,33.7l-0.6-0.4l-0.3,0.5l0.7,0.4l-0.1,0.2l-1-0.6l0.9-1.5l1,0.6l-0.1,0.2l-0.7-0.4l-0.3,0.4
		l0.6,0.4L12.2,33.7L12.2,33.7z M13.9,35l-0.6-0.3L13,35l-0.3-0.1l1.3-1.4l0.3,0.1l-0.2,1.9l-0.3-0.1L13.9,35L13.9,35z M13.5,34.5
		l0.4,0.2L14,34l0,0L13.5,34.5L13.5,34.5z M15.6,35.7l0.8,0.2l-0.1,0.2l-1.1-0.3l0.5-1.7l0.3,0.1L15.6,35.7L15.6,35.7z M18.6,34.9
		l-0.5-0.1l-0.2,1.5l-0.3,0l0.2-1.5l-0.5-0.1l0-0.2l1.4,0.2L18.6,34.9L18.6,34.9z M21,36.6l-0.3,0l0-0.8l-0.8,0l0,0.8l-0.3,0
		l-0.1-1.8l0.3,0l0,0.8l0.8,0l0-0.8l0.3,0L21,36.6L21,36.6z M22.6,36.4l-0.3,0l-0.2-1.8l0.3,0L22.6,36.4L22.6,36.4z M24.6,35.2
		L24,35.3l0.1,0.6l0.8-0.2l0.1,0.2l-1.1,0.3l-0.4-1.7l1.1-0.3l0.1,0.2l-0.8,0.2l0.1,0.5l0.7-0.2L24.6,35.2L24.6,35.2z M26.1,34.7
		l0.3,0.7l-0.3,0.1l-0.7-1.7l0.6-0.2c0.2-0.1,0.3-0.1,0.5,0c0.1,0,0.2,0.1,0.3,0.3c0,0.1,0,0.2,0,0.2c0,0.1-0.1,0.2-0.1,0.2
		c0.1,0,0.2,0,0.3,0.1c0.1,0.1,0.1,0.1,0.2,0.2l0.1,0.1c0,0,0,0.1,0.1,0.1c0,0,0.1,0.1,0.1,0.1l0,0L27,35.2c0,0-0.1,0-0.1-0.1
		c0,0-0.1-0.1-0.1-0.2l-0.1-0.1c0-0.1-0.1-0.1-0.2-0.2c-0.1,0-0.1,0-0.2,0L26.1,34.7L26.1,34.7z M26,34.5l0.3-0.1
		c0.1,0,0.2-0.1,0.2-0.2c0-0.1,0-0.1,0-0.2c0-0.1-0.1-0.1-0.2-0.2c-0.1,0-0.2,0-0.3,0L25.8,34L26,34.5L26,34.5z M28.9,33.1l-0.1-1
		l0.3-0.2l0.1,1.3l0.3,0.5l-0.2,0.2l-0.4-0.5l-1.1-0.6l0.3-0.2L28.9,33.1L28.9,33.1z M31.5,31.4c0.1,0.2,0.2,0.4,0.2,0.5
		c0,0.2-0.1,0.4-0.3,0.5c-0.2,0.1-0.3,0.2-0.5,0.2c-0.2,0-0.4-0.1-0.5-0.3L30.2,32c-0.1-0.2-0.2-0.3-0.2-0.5c0-0.2,0.1-0.4,0.3-0.5
		c0.2-0.1,0.4-0.2,0.5-0.2c0.2,0,0.4,0.1,0.5,0.3L31.5,31.4L31.5,31.4z M31.1,31.3c-0.1-0.1-0.2-0.2-0.3-0.2c-0.1,0-0.2,0-0.3,0.1
		c-0.1,0.1-0.1,0.2-0.1,0.3c0,0.1,0.1,0.2,0.1,0.4l0.2,0.2c0.1,0.1,0.2,0.2,0.3,0.2c0.1,0,0.2,0,0.3-0.1c0.1-0.1,0.2-0.2,0.2-0.3
		c0-0.1-0.1-0.2-0.1-0.4L31.1,31.3L31.1,31.3z M32.4,28.9l0.9,0.8c0.2,0.1,0.2,0.3,0.2,0.5c0,0.2-0.1,0.3-0.2,0.5
		c-0.1,0.2-0.3,0.2-0.5,0.3c-0.2,0-0.3,0-0.5-0.2l-0.9-0.8l0.2-0.2l0.9,0.8c0.1,0.1,0.2,0.1,0.3,0.1c0.1,0,0.2-0.1,0.3-0.1
		c0.1-0.1,0.1-0.2,0.1-0.3c0-0.1-0.1-0.2-0.1-0.3l-0.9-0.8L32.4,28.9L32.4,28.9z"/>
	<path fill-rule="evenodd" clip-rule="evenodd" fill="#00B04F" d="M5,24.4c0.7,0,1.2,0.5,1.2,1.2c0,0.7-0.5,1.2-1.2,1.2
		c-0.7,0-1.2-0.5-1.2-1.2C3.8,25,4.3,24.4,5,24.4L5,24.4z"/>
	<path fill-rule="evenodd" clip-rule="evenodd" fill="#00B04F" d="M34.6,24.4c0.7,0,1.2,0.5,1.2,1.2c0,0.7-0.5,1.2-1.2,1.2
		c-0.7,0-1.2-0.5-1.2-1.2C33.4,25,34,24.4,34.6,24.4L34.6,24.4z"/>
	<path fill-rule="evenodd" clip-rule="evenodd" fill="#00B04F" d="M22.9,22.7c0,0-0.1,0.1-0.1,0.1c-0.1,0.1-0.2,0.1-0.3,0.2
		c-0.2,0.1-0.4,0.3-0.6,0.4c-0.4,0.3-0.7,0.6-1,1c-0.2,0.2-0.3,0.4-0.5,0.5c-0.2,0.2-0.3,0.4-0.4,0.6c-0.1,0.1-0.1,0.2-0.2,0.2
		c-0.1-0.1-0.1-0.2-0.2-0.3c-0.1-0.2-0.3-0.4-0.4-0.6c-0.2-0.2-0.3-0.4-0.5-0.5c-0.3-0.3-0.7-0.7-1.1-1c-0.2-0.1-0.4-0.3-0.6-0.4
		c-0.1-0.1-0.2-0.1-0.3-0.2c0,0-0.1-0.1-0.1-0.1c0,0-0.1-0.1-0.1-0.1c0,0,0.1,0.1,0.1,0.1c0,0,0.1,0.1,0.1,0.1
		c0.1,0.1,0.2,0.2,0.2,0.3c0.2,0.2,0.3,0.3,0.5,0.5c0.3,0.4,0.6,0.7,0.8,1.1c1.6,2.4,0.7,4.3,0.4,7.2c0,0,0.4,0.6,1.2,0.6
		c0.8,0,1.1-0.6,1.1-0.6c-0.3-2.9-1.1-4.7,0.4-7.2c0.2-0.4,0.5-0.8,0.8-1.1c0.1-0.2,0.3-0.4,0.5-0.5c0.1-0.1,0.2-0.2,0.2-0.3
		C22.9,22.8,22.9,22.8,22.9,22.7c0.1,0,0.1-0.1,0.1-0.1C23,22.7,23,22.7,22.9,22.7L22.9,22.7z M20.5,24.5c0,0.4-0.3,0.7-0.7,0.7
		c-0.4,0-0.7-0.3-0.7-0.7c0-0.4,0.3-0.7,0.7-0.7S20.5,24.1,20.5,24.5L20.5,24.5z"/>
	<path fill-rule="evenodd" clip-rule="evenodd" fill="#F58220" d="M25.6,16.6c-0.1,0.1-0.2,0.3-0.2,0.4c0.1,0,0.1,0,0.1-0.1
		c0,0.1,0,0,0,0.1c0,0,0,0,0,0l0,0c0.1-0.1,0.1,0,0.1-0.2l0.2,0c-0.1-0.1-0.1-0.1-0.1,0c0.1-0.1,0.1,0,0.3-0.1
		c0.2-0.1,0.2-0.1,0.3-0.3c0.1,0,0,0,0.1,0.1c0.1-0.2,0.1,0,0.2-0.1c0.1-0.1,0-0.1,0.2-0.1c0,0,0,0,0,0l0-0.1c0.2,0,0.3,0,0.4-0.2
		c0.2-0.2-0.1,0.1,0.3-0.2c0,0,0,0,0,0l0.1,0c0.1-0.1,0.1-0.1,0.1-0.1c0.1-0.1,0,0,0.2,0c-0.1,0-0.1,0-0.1-0.1c0.1,0,0.1,0,0.2,0
		c0,0,0,0,0,0c0-0.1,0-0.1,0-0.2c0.1,0,0,0,0.1,0c0.1,0,0.1,0,0.1,0c0,0,0,0,0,0c0,0,0,0,0,0c-0.1-0.1-0.1,0-0.1,0
		c0.2,0,0.2,0,0.3,0c0,0,0,0,0,0l0.2-0.1c0.1,0,0,0,0.1,0.1l0-0.1l0.1,0l0-0.6c-0.1,0,0,0.1-0.1-0.1c0.1,0.1,0,0.1-0.1,0.2
		c0.1,0.2,0,0.2,0,0.2c-0.1,0,0,0-0.1,0c0,0,0,0.1,0,0.1c-0.1,0-0.1,0-0.2,0.1c-0.2,0.1-0.2,0-0.2,0c0,0,0-0.1,0,0
		c0,0.1,0,0,0.1,0.1l-0.2,0.1c-0.1,0-0.2,0.1-0.2,0.1c0,0-0.1,0-0.1,0c-0.1,0,0,0-0.1-0.1c0.1,0,0.1,0,0.2,0c0,0,0,0,0,0
		c0.1,0,0.1-0.1,0.1-0.1c-0.1,0,0.1,0-0.1,0c-0.1,0-0.1,0.1-0.1,0.1c-0.1,0.1-0.2,0.1-0.2,0.1c0,0,0,0,0,0c0,0,0,0,0,0l-0.1,0
		c-0.3,0.2-0.1-0.1-0.3,0.2c0.1,0,0.1,0,0.2,0c0,0,0,0-0.1,0c-0.4,0.2-0.2-0.1-0.3,0L26.6,16c-0.1,0.1,0,0-0.2,0.1
		c0.1,0.1,0.1,0,0.1,0.1c-0.1,0.1-0.2,0.1-0.3,0.2c-0.1,0.1,0,0-0.1,0.1c-0.2,0.1,0,0-0.1,0.2c-0.2,0-0.1,0-0.2,0.1
		c-0.1,0.1,0.1-0.1-0.1,0C25.7,16.6,25.7,16.6,25.6,16.6L25.6,16.6C25.7,16.7,25.7,16.6,25.6,16.6L25.6,16.6z"/>
	<path fill-rule="evenodd" clip-rule="evenodd" fill="#F58220" d="M25.4,17.1c0,0.1,0,0.1-0.1,0.2c0,0.2-0.1,0.5-0.1,0.8
		c0.3-0.4,0.5-0.7,0.9-0.9c0.2-0.1,0.3-0.3,0.5-0.4l0.5-0.3c0.1,0,0,0,0.1,0c0.1,0,0.1,0,0.1,0c0.1,0,0.1,0,0.1,0l0.1-0.1
		c0.2-0.1,0.3-0.1,0.5-0.3c0.1-0.1,0.2-0.1,0.2-0.1c0.3-0.2,0.4-0.2,0.5-0.3l0,0.1c0,0,0,0,0,0c0,0,0,0,0,0c0,0,0,0,0,0l0-0.2
		c0-0.1,0-0.2,0-0.3l-0.1,0l0,0.1c0-0.1,0-0.1-0.1-0.1l-0.2,0.1c0,0,0,0,0,0c-0.1,0.1-0.1,0-0.3,0c0,0.1,0,0,0.1,0c0,0,0,0,0,0
		c0,0,0,0,0,0c-0.1,0-0.1,0-0.1,0c-0.1,0,0,0-0.1,0c0,0.1,0,0.1,0,0.2c0,0,0,0,0,0c-0.1,0-0.1,0-0.2,0c0,0.1,0,0,0.1,0.1
		c-0.1,0.1-0.1,0-0.2,0c-0.1,0,0,0.1-0.1,0.1l-0.1,0c0,0,0,0,0,0c-0.4,0.3-0.1-0.1-0.3,0.2c-0.1,0.1-0.2,0.2-0.4,0.2l0,0.1
		c0,0,0,0,0,0c-0.2,0-0.1,0-0.2,0.1c-0.1,0.1-0.1,0-0.2,0.1c-0.1,0,0-0.1-0.1-0.1c-0.2,0.2-0.2,0.1-0.3,0.3c-0.2,0.1-0.2,0-0.3,0.1
		c0.1,0,0.1,0,0.1,0l-0.2,0c0,0.2,0,0.1-0.1,0.2l0,0c0,0,0,0,0,0c0-0.1,0,0,0-0.1C25.5,17.1,25.6,17,25.4,17.1L25.4,17.1z"/>
	<path fill-rule="evenodd" clip-rule="evenodd" fill="#F58220" d="M28.3,14.6c-0.1,0.1-0.2,0.2-0.3,0.2c-0.1,0.1,0-0.1,0,0.1
		c-0.2,0.1-0.1,0-0.2,0.1c-0.2,0.1-0.1,0-0.3,0.2c0,0-0.1,0-0.1,0.1l-0.5,0.3l0,0c-0.1,0.1-0.2,0.1-0.3,0.2c-0.1,0-0.1,0.1-0.2,0.2
		l-0.1-0.1c0,0,0,0-0.1,0c-0.2,0.1-0.5,0.6-0.6,0.9c0.1,0,0,0,0.1,0l0,0.1c0,0,0-0.1,0.1-0.1c0.2-0.1-0.1,0,0.1,0
		c0.1-0.1,0.1-0.1,0.2-0.1c0.1-0.2,0,0,0.1-0.2c0.1,0,0,0,0.1-0.1c0,0,0.2,0,0.3-0.2c0-0.1,0,0-0.1-0.1c0.1-0.1,0,0,0.2-0.1l0.1-0.1
		c0.2-0.1-0.1,0.2,0.3,0c0,0,0,0,0.1,0c-0.1,0-0.1,0-0.2,0c0.2-0.3,0,0,0.3-0.2l0.1,0c0,0,0,0,0,0c0,0,0,0,0,0c0.1,0,0.2,0,0.2-0.1
		c0,0,0.1-0.1,0.1-0.1c0.1,0,0,0,0.1,0c0,0,0,0.1-0.1,0.1c0,0,0,0,0,0c-0.1,0-0.1,0-0.2,0c0,0.1,0,0,0.1,0.1c0,0,0.1,0,0.1,0
		c0.1,0,0.2-0.1,0.2-0.1l0.2-0.1c0-0.1-0.1-0.1-0.1-0.1c0-0.1,0,0,0,0c0,0,0.1,0.1,0.2,0c0.1-0.1,0.1-0.1,0.2-0.1c0,0,0-0.1,0-0.1
		c0,0,0,0,0.1,0c0,0,0.2,0,0-0.2c0.1,0,0.2-0.1,0.1-0.2c0.1,0.1,0,0,0.1,0.1l0-0.2C28.8,14.4,28.4,14.5,28.3,14.6L28.3,14.6z"/>
	<path fill-rule="evenodd" clip-rule="evenodd" fill="#F58220" d="M26.5,17.2c-0.1,0-0.3,0.3-0.3,0.4c-0.1,0.1-0.3,0.3-0.3,0.4
		c0.1,0,0,0,0.1,0c0,0,0,0,0.1,0c0-0.2,0.1-0.2,0.2-0.2l0.1-0.1c0.3-0.1,0.1-0.1,0.3-0.2l0.2-0.1c0,0,0,0,0,0c0.1-0.1-0.1,0,0,0
		c0.2-0.1,0.1-0.1,0.2-0.1c-0.1-0.1-0.1,0,0.2-0.1l0.1,0c0.1,0,0.1,0,0.2,0c0-0.1-0.1-0.1-0.1-0.2c0.1,0,0,0,0.1,0
		c0.1,0,0.1-0.1,0.4-0.1l0-0.1c0.2,0,0.1,0,0.2-0.2l0.1,0.1c0.1-0.2,0.1-0.1,0.3-0.2c0-0.1,0-0.1,0-0.1c0,0,0-0.1,0.1,0.1
		c0.1-0.1,0-0.1,0.1-0.1c0-0.1,0-0.1,0-0.1c0-0.1,0.1-0.2,0.1-0.3l-0.1,0l-0.2,0.1c0,0,0,0,0,0c-0.1,0.1-0.1,0-0.2,0.1l-0.2,0.2
		c-0.1,0-0.2,0.1-0.3,0.1c0,0-0.1,0-0.1,0c0,0,0,0-0.1,0c-0.2,0.2-0.2,0.1-0.4,0.2c-0.1,0.1-0.1,0-0.2,0.1c-0.1,0.1,0,0-0.1,0.1
		c0,0-0.1,0-0.1,0l-0.1,0c0,0,0,0,0,0c0-0.1,0-0.1,0-0.1c0,0,0.1,0.1-0.1,0.1C26.6,17.2,26.5,17.2,26.5,17.2L26.5,17.2z"/>
	<path fill-rule="evenodd" clip-rule="evenodd" fill="#F58220" d="M25.8,18c-0.1,0-0.2,0.2-0.2,0.3l0.7-0.1c0-0.2,0,0,0-0.1
		c0-0.1,0,0,0-0.1l0-0.1c0.1-0.1,0.2-0.1,0.3,0c0-0.1,0,0,0-0.1c0.2,0,0,0,0.1,0.1c0,0,0-0.1,0.1-0.1c0-0.1,0,0,0.1-0.1l0,0.1
		c0,0.1,0,0,0,0.1l0.2-0.1c0,0,0.1,0,0.1,0c-0.1,0-0.1,0-0.1-0.1c0.2,0,0.2,0,0.3,0c0,0,0,0,0,0c0,0,0.1-0.1,0.2,0
		c-0.1-0.1,0,0-0.1,0l0,0c0.1-0.1,0.3,0,0.4-0.1c0-0.1,0,0,0-0.1c0.1,0,0,0,0.1,0.1c0,0.1,0,0.1,0,0.1c0-0.1,0.1-0.2,0.3-0.2
		c0-0.1-0.1-0.1,0.2-0.2l0,0.1c0.1-0.1,0.2-0.4,0.2-0.5c-0.1-0.2-0.1-0.1-0.1-0.1c0,0,0,0,0,0.1c-0.2,0-0.2,0-0.3,0.2l-0.1-0.1
		c-0.1,0.1,0,0.1-0.2,0.2l0,0.1c-0.3,0-0.3,0.2-0.4,0.1c0,0,0,0-0.1,0c0,0.1,0,0,0.1,0.2c-0.1-0.1,0-0.1-0.2,0l-0.1,0
		c-0.3,0.1-0.3,0-0.2,0.1c-0.1,0,0,0-0.2,0.1c-0.1,0.1,0.1,0,0,0c0,0,0,0,0,0l-0.2,0.1c-0.2,0.1,0,0.1-0.3,0.2l-0.1,0.1
		c-0.1,0.1-0.2,0.1-0.2,0.2C26,18,25.9,18,25.8,18C25.9,18,25.9,18,25.8,18L25.8,18z"/>
	<path fill-rule="evenodd" clip-rule="evenodd" fill="#F58220" d="M27.2,16.4C27.2,16.4,27.2,16.4,27.2,16.4
		c-0.1,0.1-0.7,0.7-0.7,0.8c0.1,0,0.1,0,0.2,0c0.2-0.1,0.1-0.1,0.1-0.1c0,0,0,0,0,0.1c0,0,0,0,0,0l0.1,0c0,0,0,0,0.1,0
		c0.2-0.1,0-0.1,0.1-0.1c0.1-0.1,0,0,0.2-0.1c0.2-0.2,0.2-0.1,0.4-0.2c0,0,0,0,0.1,0c0,0,0.1,0,0.1,0c0.1,0,0.2-0.1,0.3-0.1l0.2-0.2
		c0.1-0.1,0.1,0,0.2-0.1c0,0,0,0,0,0l0.2-0.1l0.1,0c0-0.1,0-0.2,0-0.3l0-0.1c-0.1,0.1-0.2,0.1-0.5,0.3C28.2,16,28.1,16,28,16
		c-0.2,0.1-0.3,0.2-0.5,0.3l-0.1,0.1c-0.1,0,0,0-0.1,0C27.3,16.4,27.3,16.4,27.2,16.4L27.2,16.4z"/>
	<path fill-rule="evenodd" clip-rule="evenodd" fill="#F58220" d="M26.3,18.3c0.3,0,0.7-0.2,0.9-0.3c0.2-0.1,0.4-0.2,0.5-0.3
		c0.1,0,0.1-0.1,0.2-0.1c0.1-0.1,0.1-0.2,0.2-0.2c0,0,0.1-0.1,0.1-0.1c0-0.1,0.1-0.1,0.1-0.1l0-0.1c-0.3,0.1-0.2,0.1-0.2,0.2
		c-0.1,0-0.2,0.1-0.3,0.2c0,0,0,0,0-0.1c0-0.1,0,0-0.1-0.1c-0.1,0.1,0,0.1,0,0.1c-0.1,0.1-0.3,0.1-0.4,0.1l0,0c0.1,0,0.1,0,0.1,0
		c-0.1,0-0.1,0-0.2,0c0,0,0,0,0,0c-0.1,0.1-0.1,0-0.3,0c0,0.1-0.1,0.1,0.1,0.1c0,0-0.1,0-0.1,0l-0.2,0.1c0-0.1,0,0,0-0.1l0-0.1
		c-0.1,0.1,0,0-0.1,0.1c0,0,0,0.1-0.1,0.1c-0.1,0,0,0-0.1-0.1c0.1,0.1,0.1,0,0,0.1c-0.1,0-0.2-0.1-0.3,0l0,0.1
		C26.3,18.2,26.3,18.1,26.3,18.3C26.3,18.3,26.4,18.1,26.3,18.3L26.3,18.3z"/>
	<path fill-rule="evenodd" clip-rule="evenodd" fill="#F58220" d="M26.2,15.8C26.3,15.8,26.3,15.8,26.2,15.8l0.1,0.1
		c0-0.1,0.1-0.1,0.2-0.2c0.1-0.1,0.2-0.1,0.3-0.2l0,0l0.5-0.3c0,0,0.1,0,0.1-0.1c0.2-0.2,0.2-0.1,0.3-0.2c0.1-0.1,0,0,0.2-0.1
		c0-0.1-0.1,0,0-0.1c0.1,0,0.2-0.1,0.3-0.2c-0.4,0.1-0.9,0.3-1.2,0.5C26.9,15.2,26.3,15.6,26.2,15.8L26.2,15.8z"/>
	<path fill-rule="evenodd" clip-rule="evenodd" fill="#00B04F" d="M18.4,11.4c0,0.1,0,0.3-0.1,0.4c0,0.1-0.1,0,0,0
		c0.1,0,0.1,0,0.1,0l0.8,0c0.2,0,0.2,0,0.2,0.1l0.1,0c0.1,0,1.3,0.1,1.4,0.1l0-0.2l-0.1-0.3l-0.1,0l0,0.2c-0.2,0-0.2,0-0.2,0
		c-0.2-0.1-0.7-0.1-1-0.1l0-0.1c0.3,0,0.5,0,0.8,0c-0.2,0-0.4,0-0.5,0c-0.2,0,0-0.1-0.2,0c-0.1,0-0.1,0-0.2,0c-0.2,0-0.3,0-0.5,0
		c-0.1,0-0.1,0-0.1,0C18.7,11.4,18.7,11.4,18.4,11.4c0.1-0.1,0.1,0,0.1-0.1L18.4,11.4L18.4,11.4z"/>
	<path fill-rule="evenodd" clip-rule="evenodd" fill="#00B04F" d="M18.5,11.1c0.2,0.2,0.9,0.1,1.2,0.1c0.1,0,0.1,0,0.2,0
		c0.1,0,0.8,0,0.8,0.1l0-0.1l0-0.1l0,0c0,0,0,0,0-0.1c0-0.1-0.1-0.2-0.1-0.3l-0.5,0c-0.3,0-1.1,0-1.5-0.1L18.5,11.1L18.5,11.1z"/>
	<path fill-rule="evenodd" clip-rule="evenodd" fill="#00B04F" d="M18.3,11.9l0,0.8c0-0.2,0-0.3,0-0.4c0.2,0,0.1,0,0.2,0
		c0.2,0.1,0.7,0,0.9,0c0-0.1,0-0.2,0.1-0.2l0,0.5c0.1-0.1-0.1-0.3,0.2-0.2l0.9,0c0.1,0,0.3-0.1,0.4,0.1l0-0.7l0,0.2
		c-0.1,0-1.3,0-1.4-0.1l-0.1,0c0-0.1,0.1-0.1-0.2-0.1l-0.8,0C18.4,11.9,18.4,11.9,18.3,11.9C18.3,11.8,18.4,11.9,18.3,11.9
		L18.3,11.9z"/>
	<path fill-rule="evenodd" clip-rule="evenodd" fill="#00B04F" d="M18.5,11.3C18.5,11.4,18.5,11.3,18.5,11.3
		c0.3,0.1,0.2,0.1,0.3,0.1c0,0,0.1,0,0.1,0c0.2,0,0.4,0,0.5,0c0.1,0,0.1,0,0.2,0c0.2,0,0,0,0.2,0c0.2,0,0.4,0,0.5,0
		c-0.3,0-0.5,0-0.8,0l0,0.1c0.3,0,0.8,0,1,0.1c0,0,0,0.1,0.2,0l0-0.2l0.1,0c0-0.1,0-0.3-0.1-0.4l0,0.1c-0.1-0.1-0.7-0.1-0.8-0.1
		c-0.2,0-0.1,0-0.2,0c-0.3,0-1,0.1-1.2-0.1L18.5,11.3L18.5,11.3z"/>
	<path fill-rule="evenodd" clip-rule="evenodd" fill="#00B04F" d="M19.6,13.7l0-0.2l0.2,0c0,0-0.1,0-0.1,0l-0.1,0
		c0.1-0.1,0.5,0,0.6,0c0.1,0,0.1,0,0.3,0l0.2,0c0.1-0.1,0.1-0.1,0.1-0.2l0.1-0.4c-0.1,0-0.2,0-0.4,0c-0.2,0,0-0.1-0.3-0.1l-0.7,0
		c0,0.2,0,0.3,0,0.5c0,0.1,0,0.2,0,0.2C19.5,13.5,19.5,13.6,19.6,13.7L19.6,13.7C19.6,13.7,19.6,13.7,19.6,13.7L19.6,13.7z"/>
	<path fill-rule="evenodd" clip-rule="evenodd" fill="#00B04F" d="M18.9,10.3C19,10.3,18.9,10.3,18.9,10.3l0.1,0l1.3,0
		c0,0.1,0,0.1,0,0.1c0,0,0,0,0,0l0.1,0c0,0,0,0,0,0c-0.1-0.1-0.3-0.5-0.4-0.5c0,0,0,0,0,0c0,0,0,0,0,0c0,0-0.1,0-0.1,0
		c0,0.1,0.1,0,0,0.1c0,0,0,0-0.1,0c0,0-0.4-0.1-0.5-0.1c0,0,0,0,0,0l0,0c0,0-0.1,0.1-0.1-0.1l0-0.1C19.1,9.7,18.9,10.1,18.9,10.3
		L18.9,10.3z"/>
	<path fill-rule="evenodd" clip-rule="evenodd" fill="#00B04F" d="M18.4,12.9c0,0.2,0.1,0.5,0.1,0.7l0,0c0-0.1-0.1-0.1,0.2-0.1
		c0.1,0,0.2,0,0.3,0l0-0.1c0,0,0,0,0,0l-0.2,0c0-0.1-0.1-0.1,0.3-0.1c0,0,0,0,0,0l0,0c0,0,0-0.1,0,0.1c0.1-0.1,0.1-0.3,0.1-0.4
		c0-0.1,0.1-0.2,0.1-0.4c-0.1,0-0.1,0-0.1,0l-0.1,0c-0.4,0-0.3,0.1-0.4-0.1c-0.2,0-0.1,0.1-0.4,0.1C18.4,12.8,18.4,12.8,18.4,12.9
		L18.4,12.9z"/>
	<path fill-rule="evenodd" clip-rule="evenodd" fill="#00B04F" d="M19.5,12.6l0,0.2l0.7,0c0.3,0,0.1,0,0.3,0.1c0.1,0,0.3,0,0.4,0
		l0.1-0.4c0-0.2-0.2-0.1-0.4-0.1l-0.9,0C19.4,12.3,19.6,12.4,19.5,12.6L19.5,12.6z"/>
	<path fill-rule="evenodd" clip-rule="evenodd" fill="#00B04F" d="M18.7,10.6c0.4,0.1,1.1,0.1,1.5,0.1l0.5,0l-0.2-0.4c0,0,0,0,0,0
		l-0.1,0c0,0,0,0,0,0c-0.1,0,0,0,0-0.1l-1.3,0l0,0c0,0,0,0-0.1,0L18.7,10.6L18.7,10.6z"/>
	<path fill-rule="evenodd" clip-rule="evenodd" fill="#00B04F" d="M18.3,12.6c0,0.1,0,0.2,0.1,0.3C18.4,12.8,18.4,12.8,18.3,12.6
		c0.3,0.1,0.2,0,0.4,0c0.1,0.2,0,0.1,0.4,0.1l0.1,0c0,0,0.1,0,0.1,0l0.1-0.5c-0.2,0-0.7,0-0.9,0c-0.1,0-0.1,0-0.2,0
		C18.3,12.4,18.3,12.5,18.3,12.6L18.3,12.6z"/>
	<path fill-rule="evenodd" clip-rule="evenodd" fill="#00B04F" d="M19.6,13.7c0,0.1,0,0.3,0,0.5l0-0.2l0.1,0c0.3,0,0.3,0,0.5,0
		c0.1,0,0.1,0,0.1-0.1l0,0.1c0.1-0.1,0.3-0.4,0.3-0.5l-0.2,0c-0.2,0-0.1,0-0.3,0c-0.1,0-0.5,0-0.6,0l0.1,0c0,0,0.1,0,0.1,0l-0.2,0
		L19.6,13.7L19.6,13.7z"/>
	<path fill-rule="evenodd" clip-rule="evenodd" fill="#00B04F" d="M19.6,14.2l0,0.2c0,0,0,0.1,0,0.1c0,0.1,0,0.1,0,0.1
		c0.2-0.1,0.5-0.5,0.6-0.7l0-0.1c-0.1,0.1,0,0-0.1,0.1c-0.2,0-0.2,0-0.5,0l-0.1,0L19.6,14.2L19.6,14.2z"/>
	<path fill-rule="evenodd" clip-rule="evenodd" fill="#00B04F" d="M18.6,13.7c0,0.2,0.1,0.3,0.2,0.5l0-0.1c0.1,0,0.1,0,0.2,0
		c0.1,0,0.1,0,0.2-0.1l0,0.6l0-0.2l0-0.8c0-0.2,0-0.1,0-0.1l0,0c0,0,0,0,0,0c-0.4,0-0.3,0-0.3,0.1l0.2,0c0,0,0,0,0,0l0,0.1
		c-0.1,0-0.2,0-0.3,0C18.5,13.6,18.6,13.6,18.6,13.7L18.6,13.7z"/>
	<path fill-rule="evenodd" clip-rule="evenodd" fill="#00B04F" d="M19.3,9.6L19.3,9.6c0,0.2,0,0.1,0.1,0.2l0,0c0,0,0,0,0,0
		c0.1,0,0.5,0.1,0.5,0.1c0,0,0.1,0,0.1,0c0.1,0,0,0,0-0.1c0-0.1-0.4-0.4-0.5-0.5C19.4,9.4,19.3,9.5,19.3,9.6L19.3,9.6z"/>
	<path fill-rule="evenodd" clip-rule="evenodd" fill="#00B04F" d="M18.7,14.1c0.1,0.2,0.3,0.5,0.4,0.6l0-0.2l0-0.6
		C19,14,19,14,18.9,14c-0.1,0-0.1,0-0.2,0L18.7,14.1L18.7,14.1z"/>
</g>
</svg>
