<?xml version="1.0" encoding="utf-8"?>
<!-- Generator: Adobe Illustrator 18.0.0, SVG Export Plug-In . SVG Version: 6.00 Build 0)  -->
<!DOCTYPE svg PUBLIC "-//W3C//DTD SVG 1.1//EN" "http://www.w3.org/Graphics/SVG/1.1/DTD/svg11.dtd">
<svg version="1.1" id="Layer_1" xmlns="http://www.w3.org/2000/svg" xmlns:xlink="http://www.w3.org/1999/xlink" x="0px" y="0px"
	 viewBox="0 0 44.4 42.8" enable-background="new 0 0 44.4 42.8" xml:space="preserve">
<g>
	<g>
		<path fill="#00AF4F" d="M9.4,14.9c0.7,0.7,1.7,1.1,2.6,1.1c1,0,1.9-0.4,2.6-1.1l8-8c1.5-1.5,1.5-3.9,0-5.3l-0.4-0.4
			c-1.5-1.5-3.9-1.5-5.3,0l-8,8C8.4,9.8,8,10.8,8,11.8c0,1,0.4,1.9,1.1,2.6L9.4,14.9z M18,2.1c0.4-0.4,1-0.7,1.7-0.7
			c0.6,0,1.2,0.3,1.7,0.7l0.4,0.4c0.4,0.4,0.7,1,0.7,1.7s-0.3,1.2-0.7,1.7l-3.5,3.5l-3.7-3.9L18,2.1z"/>
		<polygon fill="#00AF4F" points="18.7,2.8 16.5,5 16.8,5.2 17.1,5.5 19.3,3.4 		"/>
		<path fill="#00AF4F" d="M43,16.5L32.9,6.3c-1.8-1.8-4.8-1.8-6.6,0l-0.5,0.5c-1.8,1.8-1.8,4.8,0,6.6l10.1,10.2
			c0.9,0.9,2.1,1.3,3.3,1.3s2.4-0.5,3.3-1.3l0.5-0.5c0.9-0.9,1.3-2.1,1.3-3.3C44.4,18.5,43.9,17.3,43,16.5z M31.4,16.8l-4.5-4.5
			c-0.6-0.6-0.9-1.3-0.9-2.1c0-0.8,0.3-1.5,0.9-2.1l0.5-0.5C28,7,28.8,6.6,29.6,6.6c0.8,0,1.5,0.3,2.1,0.9l4.5,4.5L31.4,16.8z"/>
		<polygon fill="#00AF4F" points="30.1,9.1 32.8,11.8 33.2,11.5 33.6,11.1 30.8,8.4 		"/>
		<path fill="#00AF4F" d="M25.5,16.5c-2.5-2.5-6.6-2.5-9.2,0L1.9,31.1C0.6,32.3,0,33.9,0,35.6s0.6,3.3,1.9,4.6l0.8,0.8
			c1.3,1.3,2.9,1.9,4.6,1.9s3.3-0.6,4.6-1.9l1.1-1.1l0.1,0.1l1.3-1.3l-0.1-0.1l1.4-1.4l0.1,0.1l1.3-1.3L17,35.7l9.4-9.4
			c2.5-2.5,2.5-6.6,0-9.2L25.5,16.5z M24.9,25.1l-6.6,6.6l-7.3-7.3l6.6-6.6c0.9-0.9,2.1-1.3,3.2-1.3s2.3,0.4,3.2,1.3l0.8,0.8
			C26.7,20.4,26.7,23.3,24.9,25.1z"/>
		<polygon fill="#00AF4F" points="15.2,23.3 15.7,23.8 16.3,24.3 20.2,20.4 19.1,19.3 		"/>
	</g>
</g>
</svg>
