<?xml version="1.0" encoding="utf-8"?>
<!-- Generator: Adobe Illustrator 18.0.0, SVG Export Plug-In . SVG Version: 6.00 Build 0)  -->
<!DOCTYPE svg PUBLIC "-//W3C//DTD SVG 1.1//EN" "http://www.w3.org/Graphics/SVG/1.1/DTD/svg11.dtd">
<svg version="1.1" id="Layer_1" xmlns="http://www.w3.org/2000/svg" xmlns:xlink="http://www.w3.org/1999/xlink" x="0px" y="0px"
	 viewBox="0 0 51.2 51.7" enable-background="new 0 0 51.2 51.7" xml:space="preserve">
<g>
	<path fill="#D6DE23" d="M51.2,0v21h-2.9V5.4L21.5,32.2l-2.4-2L45.8,3.4H30.2V0H51.2z M41.9,47.3c0,0.5-0.5,1-1,1H3.9
		c-0.5,0-1-0.5-1-1V10.2c0-0.5,0.5-1,1-1h24.9V6.3H3.9C2,6.3,0,7.8,0,10.2v37.6c0,2,2,3.9,3.9,3.9h37.6c2,0,3.9-2,3.9-3.9V22.4h-3.4
		V47.3z"/>
</g>
</svg>
