<?xml version="1.0" encoding="utf-8"?>
<!-- Generator: Adobe Illustrator 18.0.0, SVG Export Plug-In . SVG Version: 6.00 Build 0)  -->
<!DOCTYPE svg PUBLIC "-//W3C//DTD SVG 1.1//EN" "http://www.w3.org/Graphics/SVG/1.1/DTD/svg11.dtd">
<svg version="1.1" id="Layer_1" xmlns="http://www.w3.org/2000/svg" xmlns:xlink="http://www.w3.org/1999/xlink" x="0px" y="0px"
	 viewBox="0 0 19.5 19.5" enable-background="new 0 0 19.5 19.5" xml:space="preserve">
<path fill="#FFFFFF" d="M18.9,17.2l-1.8,1.8c-0.4,0.4-0.9,0.6-1.5,0.6c-4.2-0.3-8.1-2.1-10.8-4.9C2.1,11.9,0.2,7.9,0,3.8
	c0-0.6,0.2-1.1,0.6-1.5l1.8-1.8c0.8-0.8,2.2-0.8,2.9,0.2l1.6,2c0.6,0.7,0.6,1.6,0.1,2.4l-1.4,2C5.4,7.4,5.4,7.8,5.6,7.9l2.9,3.2
	l3.2,2.9c0.3,0.3,0.6,0.3,0.8,0.1l2-1.4c0.7-0.5,1.7-0.5,2.4,0.1l2,1.6C19.7,14.9,19.7,16.3,18.9,17.2z"/>
</svg>
