<?xml version="1.0" encoding="utf-8"?>
<!-- Generator: Adobe Illustrator 18.0.0, SVG Export Plug-In . SVG Version: 6.00 Build 0)  -->
<!DOCTYPE svg PUBLIC "-//W3C//DTD SVG 1.1//EN" "http://www.w3.org/Graphics/SVG/1.1/DTD/svg11.dtd">
<svg version="1.1" id="Layer_1" xmlns="http://www.w3.org/2000/svg" xmlns:xlink="http://www.w3.org/1999/xlink" x="0px" y="0px"
	 viewBox="0 0 10.8 7.5" enable-background="new 0 0 10.8 7.5" xml:space="preserve">
<path fill="#D6DE23" d="M9.9,0h-9C0.4,0,0,0.4,0,0.9v5.6c0,0.5,0.4,0.9,0.9,0.9h9c0.5,0,0.9-0.4,0.9-0.9V0.9C10.8,0.4,10.4,0,9.9,0z
	 M9.9,0.6L5.8,3.3c-0.2,0.1-0.5,0.1-0.7,0L1,0.6H9.9z M9.9,6.9h-9c-0.2,0-0.3-0.1-0.3-0.3V1.1l4.1,2.8C4.9,4,5.2,4.1,5.4,4.1
	S5.9,4,6.1,3.8l4.1-2.8v5.5C10.2,6.7,10.1,6.9,9.9,6.9z"/>
</svg>
