<?xml version="1.0" encoding="utf-8"?>
<!-- Generator: Adobe Illustrator 18.0.0, SVG Export Plug-In . SVG Version: 6.00 Build 0)  -->
<!DOCTYPE svg PUBLIC "-//W3C//DTD SVG 1.1//EN" "http://www.w3.org/Graphics/SVG/1.1/DTD/svg11.dtd">
<svg version="1.1" id="Layer_1" xmlns="http://www.w3.org/2000/svg" xmlns:xlink="http://www.w3.org/1999/xlink" x="0px" y="0px"
	 viewBox="0 0 25.2 25.2" enable-background="new 0 0 25.2 25.2" xml:space="preserve">
<g transform="translate(0,-952.36218)">
	<g>
		<path fill="#FFFFFF" d="M0.4,977.6l1.7-5.6c-1.4-2.1-2.1-4.5-2.1-7c0-7,5.7-12.6,12.6-12.6S25.2,958,25.2,965s-5.7,12.6-12.6,12.6
			c-2.4,0-4.7-0.7-6.7-1.9L0.4,977.6z M6,973.7c0.3,0,0.6,0.1,0.9,0.3c1.7,1.1,3.7,1.7,5.8,1.7c5.9,0,10.6-4.8,10.6-10.6
			s-4.8-10.6-10.6-10.6S2,959.1,2,965c0,2.2,0.6,4.2,1.9,6c0.3,0.4,0.3,0.9,0.2,1.4l-0.6,2.1l2-0.7C5.7,973.7,5.8,973.7,6,973.7z"/>
	</g>
	<g>
		<path fill="#FFFFFF" d="M7.9,958.4l2.1,3.5l-0.9,0.9c-0.2,0.2-0.2,0.5-0.1,0.7c1.3,2.3,2.9,4.1,5.2,5.1c0.2,0.1,0.5,0.1,0.6-0.1
			l0.9-0.9l3.4,2.1c-0.4,0.9-0.9,1.4-1.4,1.7c-0.7,0.3-1.5,0.4-2.4,0.2c-1.8-0.4-4-1.8-5.8-3.6c-1.8-1.8-3.2-4.1-3.5-5.9
			c-0.2-0.9-0.1-1.7,0.2-2.3C6.6,959.2,7,958.8,7.9,958.4L7.9,958.4z"/>
	</g>
</g>
</svg>
