<?xml version="1.0" encoding="utf-8"?>
<!-- Generator: Adobe Illustrator 18.0.0, SVG Export Plug-In . SVG Version: 6.00 Build 0)  -->
<!DOCTYPE svg PUBLIC "-//W3C//DTD SVG 1.1//EN" "http://www.w3.org/Graphics/SVG/1.1/DTD/svg11.dtd">
<svg version="1.1" id="Layer_1" xmlns="http://www.w3.org/2000/svg" xmlns:xlink="http://www.w3.org/1999/xlink" x="0px" y="0px"
	 viewBox="0 0 11.7 11.8" enable-background="new 0 0 11.7 11.8" xml:space="preserve">
<g id="Symbols_5_">
	<g>
		<g id="Footer-_x2F_-Desktop_9_" transform="translate(-1074.000000, -184.000000)">
			<g id="Trailer_9_" transform="translate(0.000000, -1.000000)">
				<g id="Group-25_9_" transform="translate(814.000000, 185.000000)">
					<g id="Group-23_9_">
						<g id="instagram_9_" transform="translate(260.000000, 0.000000)">
							<path id="Shape_9_" fill="#FFFFFF" d="M5.9,1.1c1.5,0,1.8,0,2.4,0c1.6,0.1,2.4,0.8,2.4,2.4c0,0.7,0,0.8,0,2.4s0,1.8,0,2.4
								c-0.1,1.6-0.8,2.4-2.4,2.4c-0.7,0-0.8,0-2.4,0s-1.8,0-2.4,0C2,10.6,1.2,9.9,1.1,8.2c0-0.7,0-0.8,0-2.4s0-1.8,0-2.4
								C1.2,1.9,2,1.1,3.6,1.1C4.2,1.1,4.3,1.1,5.9,1.1L5.9,1.1z M5.9,0C4.3,0,4.2,0,3.5,0C1.3,0.2,0.2,1.3,0,3.5c0,0.7,0,0.8,0,2.4
								s0,1.8,0,2.4c0.1,2.1,1.3,3.3,3.4,3.4c0.7,0,0.8,0,2.4,0s1.8,0,2.4,0c2.1-0.1,3.3-1.3,3.4-3.4c0-0.7,0-0.8,0-2.4s0-1.8,0-2.4
								c-0.1-2.1-1.3-3.3-3.4-3.4C7.7,0,7.6,0,5.9,0z M5.9,2.9c-1.7,0-3,1.4-3,3S4.2,9,5.9,9s3-1.4,3-3C9,4.2,7.6,2.9,5.9,2.9z
								 M5.9,7.9c-1.1,0-2-0.9-2-2s0.9-2,2-2s2,0.9,2,2C7.9,7,7,7.9,5.9,7.9z M9.1,2C8.7,2,8.4,2.4,8.4,2.8s0.3,0.7,0.7,0.7
								c0.4,0,0.7-0.3,0.7-0.7S9.5,2,9.1,2z"/>
						</g>
					</g>
				</g>
			</g>
		</g>
	</g>
</g>
</svg>
