<?xml version="1.0" encoding="utf-8"?>
<!-- Generator: Adobe Illustrator 18.0.0, SVG Export Plug-In . SVG Version: 6.00 Build 0)  -->
<!DOCTYPE svg PUBLIC "-//W3C//DTD SVG 1.1//EN" "http://www.w3.org/Graphics/SVG/1.1/DTD/svg11.dtd">
<svg version="1.1" id="Layer_1" xmlns="http://www.w3.org/2000/svg" xmlns:xlink="http://www.w3.org/1999/xlink" x="0px" y="0px"
	 viewBox="0 0 12 9.6" enable-background="new 0 0 12 9.6" xml:space="preserve">
<path fill="#00AF4F" d="M12,1.1c-0.5,0.2-0.9,0.3-1.4,0.4c0.5-0.3,0.9-0.8,1.1-1.4c-0.5,0.3-1,0.5-1.6,0.6c-0.9-1-2.4-1.1-3.4-0.1
	C6,1.3,5.8,2.2,6,3c-2-0.1-3.9-1-5.1-2.5C0.7,0.8,0.5,1.2,0.5,1.7c0,0.8,0.4,1.6,1.1,2C1.3,3.7,0.9,3.6,0.5,3.4l0,0
	c0,1.2,0.8,2.2,2,2.4C2.2,5.9,1.8,5.9,1.4,5.8c0.3,1,1.2,1.7,2.2,1.7c-0.9,0.7-1.9,1-3.1,1c-0.2,0-0.4,0-0.6-0.1
	c1.1,0.7,2.4,1.1,3.7,1.1c4.5,0,6.9-3.7,6.9-6.9c0-0.1,0-0.2,0-0.3C11.2,2,11.6,1.6,12,1.1"/>
</svg>
